<?xml version="1.0" encoding="utf-8"?>
<!-- Generator: Adobe Illustrator 19.2.1, SVG Export Plug-In . SVG Version: 6.00 Build 0)  -->
<!DOCTYPE svg PUBLIC "-//W3C//DTD SVG 1.1//EN" "http://www.w3.org/Graphics/SVG/1.1/DTD/svg11.dtd">
<svg version="1.1" id="Layer_1" xmlns="http://www.w3.org/2000/svg" xmlns:xlink="http://www.w3.org/1999/xlink" x="0px" y="0px"
	 viewBox="0 0 328.2712097 50.3554955" style="enable-background:new 0 0 328.2712097 50.3554955;" xml:space="preserve">
<style type="text/css">
	.st0{fill:#c79135;}
</style>
<g>
	<path class="st0" d="M328.2712097,33.1848183c0,0-3.8845825-1.4628887-9.2059937-2.4118633
		c2.0579834-5.3596191,2.4081421-15.4506845-14.7401123-11.9553223c-9.9457397,2.0288086-11.843811,2.9451904-11.843811,2.9451904
		s12.8886719-6.8704844,16.1613159-10.404664c7.0093384-7.5698242,2.2248535-13.0854492-6.6738281-10.8598633
		c-4.25,1.060791-8.6372681,4.1860352-12.2359009,8.2436523c-1.9024658,2.145752-6.8677368,8.8812265-6.8677368,8.8812265
		c0.7602539-2.7760019,0.8597412-12.5285645-5.8823242-12.3956299l-0.6280518,2.8107905
		c7.7353516-1.6882319,5.2868652,8.5610361,3.6502075,11.7834482c-2.4528809,4.828125-7.0877686,13.7014141-12.4770508,22.4925518
		l2.0077515,8.0411377c0,0,9.0388184-20.9604473,14.9632568-30.1633282
		C293.3634949,6.4220023,298.2612,4.1484427,300.4650574,3.114507c8.6343384-4.0576172,10.9252319,4.2521973,3.4664917,10.0087891
		c-6.427002,4.9631357-16.4881592,10.2087412-16.4881592,10.2087412s17.4640503-3.2050781,21.1338501-3.2050781
		c7.4734497,0,10.1400146,5.1025391,8.8326416,10.3762207c-2.7730103-0.4095459-5.8386841-0.6435547-8.8987427-0.4595947
		c-5.0254517,0.302124-13.6670532,1.5211182-20.770752,7.8087139c-4.369873,3.8673096-6.5780029,12.2410889,7.5552979,10.4743652
		c3.8956909-0.4873047,9.0489502-2.668457,12.3005981-4.6442871c3.1365967-1.9067383,7.9528198-5.4628906,10.8008423-11.3773193
		c4.0772705,0.9556885,7.5881348,2.2280273,8.9569702,2.7103271L328.2712097,33.1848183z M313.8111877,37.1755409
		c-2.5509033,2.9450684-9.5006714,8.5029297-18.9736328,9.7773438c-5.0581665,0.6789551-11.848938-2.2373047-5.0705566-9.041748
		c2.9473267-2.9567871,10.2579956-7.0666485,20.7069092-6.7558575c2.121582,0.0637207,4.3496094,0.3886719,6.4781494,0.8289795
		C316.1706848,34.0327187,314.9253845,35.8914833,313.8111877,37.1755409z"/>
	<path class="st0" d="M43.4963531,21.710577c-3.157959,0-6.7217407,1.0455322-9.6393433,3.5697021
		c-3.0598736,2.7315674-4.3204327,6.2490234-4.3306255,9.8708477c0.0109253,7.8508301,5.2789288,12.8632812,12.0042706,12.8684082
		c4.0685425-0.005127,7.8291016-1.7869873,10.3887329-4.6057129c2.0585938-2.2358398,3.3583374-5.2602539,3.3677368-9.2335205
		C55.2871246,27.2719784,50.6333771,21.7119198,43.4963531,21.710577z M43.3336945,46.3298378
		c-6.6186523-0.0036621-10.0299683-5.9527588-10.0394287-12.0187988c0.0115967-4.8542461,1.9699707-10.9114971,8.2001343-10.912962
		c6.7747192,0.0064697,10.0234375,6.1531982,10.0184326,12.3630352
		C51.5149689,41.3740273,49.1601105,46.3247108,43.3336945,46.3298378z"/>
	<path class="st0" d="M85.8258209,47.1925087c-0.2512207-0.0494385-2.1072388-0.5010986-4.1083984-2.1834717
		c-1.9198608-1.644043-4.9231567-5.5657959-6.9243774-9.4926758c-0.2584229-0.5388184-0.2076416-0.6861572,0.1525269-0.8894043
		l1.199585-0.6965332c1.2001953-0.7412109,2.5523071-2.6771221,2.557373-5.0595684
		c-0.0021973-0.8917236-0.0958862-2.5783691-1.3012085-4.0705566c-1.100769-1.4377441-3.4607544-2.6845703-7.8297729-2.5922852
		c-3.7592163,0.1030273-6.1227417,0.4421387-8.3787842,0.6337891c-0.7529907,0.0544434-0.7987671,0.5554199-0.3006592,0.6550293
		c0.6506348,0.151001,1.5038452,0.3527832,2.0498657,0.6506348c0.4095459,0.2033691,0.8488159,0.595459,0.9505615,1.3825684
		c0.105957,0.9511719,0.257019,2.6342773,0.257019,5.3666992v8.590086
		c-0.0072632,2.2866211-0.1038818,3.7773438-0.2614136,4.6101074c-0.2454834,1.6940918-1.0463257,2.1915283-3.1572266,2.8312988
		c-0.4058838,0.1479492-0.350708,0.6512451,0.1989746,0.6411133c1.7063599,0.0073242,7.8813477,0.0058594,9.3343506,0.0073242
		c0.6048584,0.0036621,0.5997314-0.4494629,0.1525269-0.6412354c-1.8567505-0.8001709-2.6533203-1.293335-2.9082031-3.1761475
		c-0.1567993-0.9453125-0.2548218-1.6467285-0.2511597-5.7131348l0.0014038-0.7333984
		c0.0007324-0.5532227-0.0341187-1.1871338,0.319519-1.1900635c0.6920166,0.0042725,1.7318115,0.057251,2.9001465,0.1859131
		c0.5684814,0.1416016,1.1908569,0.2105713,1.8966064,1.4943848c1.7615967,3.3843994,3.3060913,6.2133789,5.5170898,8.2443848
		c1.3026733,1.1516113,3.4628906,1.8908691,5.5258179,1.8937988c1.399292-0.0029297,2.2553101-0.2578125,2.513855-0.3944092
		C86.074173,47.4444618,86.0749054,47.1967812,85.8258209,47.1925087z M68.9913483,35.5395546
		c-1.1008301,0.0065918-0.6121826-0.03125-1.1668701-0.0029297c-0.6578979,0.0588379-0.541748-0.6149902-0.5452881-0.9620361
		l-0.0131226-5.7669659c-0.005127-2.9145508,0.1539307-4.2658691,0.2497559-4.6005859
		c0.1052856-0.4052734,0.2527466-0.4503174,1.3579102-0.4394531c4.569458-0.0014648,6.6251221,2.6437988,6.6156616,6.6013184
		C75.4945221,33.7939491,72.1049957,35.5476112,68.9913483,35.5395546z"/>
	<path class="st0" d="M100.6490021,22.2639217c-5.7262573,0.0014648-8.7288208,0.3477783-10.4940186,0.5938721
		c-0.4981079,0.09729-0.5046387,0.5511475,0.0523071,0.6463623c1.7049561,0.2453613,3.0656738,0.6462402,3.3096924,2.0911865
		c0.1524048,0.9381104,0.2432251,2.3692627,0.2381592,5.9041748l0.0130615,2.3220196
		c0,4.7161865-0.1118164,9.7824707-0.262146,10.3792725c-0.1517944,0.7000732-0.453125,1.3803711-1.0484619,1.7877197
		c-0.6600952,0.4501953-1.3499756,0.6906738-2.3171387,0.9890137c-0.4269409,0.1480713-0.4458618,0.6484375,0.1626587,0.6484375
		c0.0297241-0.0036621,0.0603027,0.005127,0.0929565,0c1.6511841-0.151001,4.1708984-0.0021973,6.7210693-0.0036621
		c2.5115967,0.0087891,7.6358643-0.1408691,11.3979492-2.5161133c3.7678223-2.3793945,6.6287842-5.3144531,6.6375122-11.364502
		C115.1482697,26.1420956,110.0326691,22.2753963,100.6490021,22.2639217z M108.0067902,43.960453
		c-1.6984253,1.2896729-4.1999512,1.8393555-7.0709839,1.8283691c-1.5038452,0-2.4049683-0.1416016-2.762207-0.2946777
		c-0.4988403-0.1917725-0.7515259-0.5860596-0.8996582-1.0908203c-0.1481323-0.5430908-0.4022827-1.5893555-0.3950806-5.8612061
		l-0.0042725-6.5430889c0.0057983-4.7233887,0.1030884-6.2091064,0.208374-7.0557861
		c0.1016846-0.6934814,0.2969971-0.9954834,0.6977539-1.0899658c0.4008789-0.1022949,1.0594482-0.1524658,1.9591064-0.1560059
		c7.8341675,0.0136719,11.8968506,5.1242676,11.8954468,11.4306622
		C111.6264801,39.3967323,110.0217438,42.4218788,108.0067902,43.960453z"/>
	<path class="st0" d="M138.7154083,42.3398476c-0.2483521,0.8422852-0.6085205,1.4433594-1.105896,2.0388184
		c-0.4974365,0.5932617-1.3063354,1.0377197-2.1594849,1.1938477c-1.0478516,0.1887207-2.460144,0.2868652-3.913147,0.2919922
		c-2.1064453,0-3.4099121-0.1437988-3.8121948-0.7421875c-0.4102173-0.595459-0.6549072-1.9438477-0.6513062-6.2664795
		l0.0021973-3.069458c-0.0130615-1.3505859,0.0449829-1.1029053,1.2445679-1.0913086l1.4660645,0.0705566
		c3.0097656-0.0029297,4.3734131,0.3186035,4.9725342,1.2568359c0,0-0.0980835-0.692627-0.1300049-1.2490234
		c-0.0740356-1.3105469,0.1321411-2.3845215,0.1321411-2.3845215c-0.5736694,0.8706055-1.8980713,1.2387695-4.8614502,1.2271729
		l-1.4819336,0.0523682c-1.208313-0.0058594-1.4072876,0.3970947-1.3477173-1.1125488l0.0036011-3.2297344
		c0.0007324-1.8283691,0.1009521-3.7591553,0.1982422-4.5528564c0.1589966-0.9395752,0.2041016-1.0906982,1.3665771-1.0863037
		l1.4536743,0.0014648c2.1610107,0.0029297,3.2087402,0.0987549,4.4169922,0.4001465
		c1.4544678,0.3928223,2.0601196,1.8342285,2.2532349,2.8812256c0.1067505,0.6375732,0.7581177,0.3928223,0.7036133-0.208374
		c-0.0908203-1.137207,0.2562866-3.2727051,0.4088135-4.6130371c0.0435791-0.4422607-0.1553955-0.5461426-0.4574585-0.395752
		c-0.50177,0.2446289-2.6097412,0.3477783-4.2630615,0.3449707l-7.5241699,0.0028076
		c-1.5669556-0.0028076-3.0192261-0.1590576-4.8221436-0.1633301c-0.7530518,0.0042725-0.755188,0.5474854-0.2454834,0.6977539
		c1.6483154,0.3986816,2.8057251,1.0942383,3.1514282,2.6322021c0.2047729,0.8415527,0.2541504,2.8703613,0.2541504,6.4472656
		l-0.0036621,6.3100567c-0.0007324,4.4605713-0.2555542,5.7574463-0.4037476,6.4428711
		c-0.4007568,1.5394287-2.1638184,1.9816895-3.6676636,2.3374023c-0.4501343,0.0966797-0.4501343,0.6912842,0.2483521,0.6884766
		c1.7129517-0.0036621,13.998291,0.0028076,16.4613037,0.0036621c1.607605,0.0144043,1.9024658-0.0858154,2.2175903-1.3847656
		c0.2962036-1.3413086,0.5489502-3.1695557,0.5482178-3.7098389
		C139.3659821,41.9404335,138.8634796,41.8953896,138.7154083,42.3398476z"/>
	<path class="st0" d="M169.2438507,47.0371132c-2.1137695-0.6962891-2.9669189-1.1066895-3.762085-3.189209
		c-2.7636108-6.9918213-4.9151001-14.0954571-6.1669312-18.661375c-0.4552612-1.6411133-0.5859985-2.579834-0.6048584-2.730957
		c-0.008728-0.1162109-0.1008911-0.5220947-0.1008911-0.5220947c-0.0385132-0.0340576-0.1126099-0.0196533-0.1953735-0.0269775
		c-0.2556152,0-1.3861694-0.0471191-1.5074463,0.1794434c-0.1901855,0.3493652-0.8981934,1.9532471-1.0586548,2.3548584
		c-0.2955933,0.6971436-0.5061646,1.2364502-0.9490967,2.2806396c-1.8726196,4.3706055-4.0749512,9.9240704-6.6854248,15.3438702
		c-0.9591675,1.9764404-1.8632202,3.3104248-2.5065918,3.8049316c-0.6593018,0.4537354-1.4558716,0.7979736-2.3649292,1.1407471
		c-0.4575195,0.199707-0.3950806,0.6455078,0.2591553,0.6505127c1.75-0.0020752,6.5678101,0.0036621,8.5210571,0.0015869
		c0.6578979,0.0129395,0.7014771-0.4880371,0.2548828-0.6391602c-1.2576294-0.3978271-1.9619751-0.701416-2.3613281-1.0935059
		c-0.6549683-0.6411133-0.3535767-1.7404785-0.0479126-2.8326416c0.50177-1.9393311,1.5734863-4.4903564,1.8748779-5.133667
		c0.2453613-0.5495605,0.4907837-0.7434082,0.6977539-0.7929688c0.4066162-0.1044922,1.2620239-0.1030273,3.2639771-0.1044922
		c2.7084351,0.0073242,3.4186401,0,3.8092041,0.1066895c0.253479,0.0531006,0.4995728,0.2563477,0.9091187,1.4428711
		c0.8481445,2.3352051,0.9853516,3.9443359,1.4973145,5.6340332c0.5459595,1.7382812-0.0036621,2.2421875-1.9213257,2.7736816
		c-0.3979492,0.1496582-0.395752,0.6491699,0.2555542,0.6427002c1.8640137,0.0115967,6.8234253,0.0072021,8.7331543,0.0072021
		C169.6875763,47.6789589,169.6875763,47.1779823,169.2438507,47.0371132z M159.0526886,35.7116737
		c-0.3456421,0.0435791-1.0006104,0.102417-3.1085205,0.09729c-1.798645,0.0029297-2.4623413-0.0566406-2.7142334-0.1044922
		c-0.395752-0.0457764-0.3486328-0.2947998-0.1467285-0.7414551c0.8706055-2.2335205,1.6199951-4.0313702,2.3722534-5.7435284
		c0.1975098-0.4516602,0.390625-0.9099121,0.5911255-1.3579102c0.3034668-0.6499023,0.5075073-0.638916,0.7036133-0.0406494
		c0.199646,0.5401611,1.2133179,3.5180664,2.3082886,6.9439678
		C159.2603302,35.4133339,159.2603302,35.6658974,159.0526886,35.7116737z"/>
	<path class="st0" d="M198.0695953,22.1940975c-1.3040771-0.0021973-2.6583252,0.1540527-4.0720825,0.1408691
		c-1.6491089,0.0036621-3.3082275-0.1408691-4.6617432-0.1430664c-0.6985474-0.0123291-0.6985474,0.4873047-0.2512207,0.6447754
		c1.7572021,0.6448975,2.7628784,1.1416016,3.2079468,2.2772217c0.3580322,0.7987061,0.6542969,2.0447998,0.6513672,4.7161865
		l0.0029297,4.51367c-0.0029297,5.4226074-0.9613647,8.1542969-2.4638062,9.6348877
		c-1.5037231,1.5357666-3.8244629,1.6409912-5.222229,1.6286621c-2.5625,0.0036621-4.5230713-1.0892334-5.618103-2.1290283
		c-1.208252-1.0986328-2.0628662-3.383667-2.0599976-6.6591797v-4.5703125
		c0.0109253-4.0111065,0.2070312-7.1015606,1.0115356-8.0891094c0.3471069-0.5437012,0.9512329-0.989502,2.2023315-1.2873535
		c0.4567871-0.0900879,0.5569458-0.6870117-0.2003784-0.692749c-2.0985107-0.0057373-3.1535645,0.1539307-4.9100342,0.1481934
		c-1.4573975,0-2.4151611-0.1437988-4.263855-0.1481934c-0.6092529-0.0057373-0.6571655,0.5439453-0.1590576,0.6854248
		c1.2017212,0.3500977,2.460144,0.7580566,2.8667603,1.5910645c0.2439575,0.5495605,0.3550415,1.0993652,0.3485107,4.321167
		l-0.0100708,9.5906963c-0.0015259,3.423584,0.6011963,5.2084961,1.7026978,6.5947266
		c1.6062622,1.9880371,4.4692993,2.9813232,7.3811035,2.9893799c6.6766357-0.0007324,10.9456177-4.7227783,11.2484131-11.7669678
		l0.3049316-6.8422832c0.1488647-2.380127,0.2468872-3.6291504,0.604126-4.4256592
		c0.4509277-1.1813965,1.4050903-1.7833252,2.4071045-2.074585
		C198.6620636,22.6872616,198.6657257,22.1970272,198.0695953,22.1940975z"/>
	<path class="st0" d="M223.2247467,41.5656776c-2.3431396-3.3931885-4.0328979-6.1785889-4.9318237-7.5473633
		c-0.3572998-0.5452881-0.2526855-0.6918945,0.1989746-1.2402344c1.6533813-2.0374737,6.9156494-8.6096172,8.6190796-10.5505352
		c-1.3810425,0.0036621-2.3345337,0.1364746-3.7678223,0.1328125c-1.6011353-0.0020752-1.3266602-0.1495361-3.229126-0.1531982
		c-0.5518799-0.0093994-0.3615723,0.5533447,0.0269165,0.7124023c2.0745239,0.8400879,2.8660278,1.1849365,1.7114258,2.8740234
		c-1.1602783,2.0396729-2.6118774,3.9130859-4.2158813,5.8372803c-0.4545288,0.5524883-0.5489502,0.6042461-0.9998169-0.0864258
		c-0.5991211-1.0070801-1.4036255-2.0999756-2.109375-3.2312012c-2.65625-4.2224121-2.704834-4.37854-0.5482788-5.4655762
		c0.5068359-0.2440186,0.4000854-0.6469727-0.2055054-0.6455078c-1.998291-0.005127-3.2036743,0.1496582-4.3618164,0.1467285
		c-1.3476562,0-2.2561035-0.1481934-4.2594604-0.1467285c-0.612915-0.0073242-0.6557007,0.4509277-0.1553955,0.6374512
		c2.9088745,1.0942383,3.5551147,2.1384277,5.572998,5.0727539c1.4435425,2.083252,2.8943481,4.268919,4.267395,6.4560528
		c0.3413086,0.5402832,0.3413086,0.638916-0.1153564,1.1821289c-1.0456543,1.3410645-2.7302856,3.5717773-4.3480835,5.6136475
		c-3.3118896,4.1621094-3.6604004,4.6102295-6.6287842,5.8009033c-0.4465942,0.1947021-0.4415283,0.6412354,0.1560669,0.6376953
		c1.4646606,0.005127,6.6251831,0.0115967,8.2836914,0.005127c0.6499023,0.0092773,0.6425781-0.4387207,0.1945801-0.635498
		c-1.8545532-0.8430176-2.5551758-1.0004883-1.2416382-3.47229c1.1530151-2.2357178,2.8361816-4.5194092,4.298645-6.6085205
		c0.444397-0.6381836,0.6055908-0.6992188,0.9984131-0.0384521c1.4551392,2.2713623,3.2741089,5.3609619,4.3334961,6.9984131
		c1.4558716,2.2836914,0.5482178,2.2836914-1.4595337,3.0751953c-0.4465332,0.1975098-0.3782959,0.7253418,0.3231812,0.7363281
		c2.7636108,0.0202637,9.0518799,0.00354,14.7360229,0.0048828
		C225.4416656,45.9340858,225.5520172,44.7578163,223.2247467,41.5656776z"/>
	<path class="st0" d="M17.716692,32.7063026c-0.2490845-0.102417-0.2512207-0.3085938-0.0478516-0.4501953l1.6097412-1.0493145
		c0.7501221-0.4887695,1.6091309-1.5378418,1.6091309-3.5739746c-0.0036011-1.4848633-0.8001709-3.3691406-2.6075439-4.4133301
		c-1.4595337-0.8422852-3.4664927-1.0449219-5.7262583-1.0449219c-1.6613159-0.0021973-3.6073608,0.1350098-5.5010982,0.3173828
		c0,0,0.2294922,6.1262207,0.2330933,9.6601543l-0.0093994,5.9580078c-0.0029297,4.4213867-0.1103516,5.6513672-0.253418,6.3978271
		c-0.1525269,0.8482666-0.4494629,1.3404541-1.1589355,1.6323242c-0.5917969,0.2513428-4.8519287,1.159668-5.8641357,1.4152832
		c0,0,7.5828857,0.0072021,9.6363525,0.0072021c1.7543335-0.0042725,5.2941895,0.1699219,8.2539072-1.1711426
		c3.0148315-1.333252,4.8439941-3.8056641,4.8446655-7.3869629C22.7429981,35.2309608,20.1789722,33.5485878,17.716692,32.7063026z
		 M10.3930216,30.3056698c0-3.7097168,0.0501099-5.2041016,0.151001-5.8010254
		c0.0530396-0.3470459,0.1481323-0.5473633,0.3027954-0.6876221c0.1517334-0.1575928,0.5569458-0.2498779,1.1574707-0.2519531
		c3.9094238-0.008667,5.5207529,2.6300049,5.5185556,5.6187744c-0.0093994,1.6875-0.8335571,2.8486309-1.7841196,3.3430157
		c-0.9207153,0.6694336-3.2210693,1.0325928-4.4743652,1.0305176c-0.8045654,0.0072021-0.8735352-0.4162598-0.8713379-1.3579102
		V30.3056698z M13.648942,45.8542519c-0.7958374,0.0058594-1.5059814-0.0994873-2.0578613-0.2556152
		c-0.4000854-0.0915527-0.6498413-0.3485107-0.8045044-0.8917236c-0.1975098-0.7856445-0.395752-2.4760742-0.399353-6.2540283
		l0.0057983-3.4259033c0-0.4393311,0.0333862-0.8582764,0.2991333-0.90979
		c0.2483521-0.0944824,1.0921021-0.0131836,1.7905884,0.0623779c1.6345825,0.1546631,6.7428598,0.6070557,6.7370615,5.9077148
		C19.2256031,44.467289,16.7066822,45.8542519,13.648942,45.8542519z"/>
	<polygon class="st0" points="157.7935944,15.0963182 163.166214,2.513921 161.6493073,2.513921 157.1865997,13.2758837 
		152.7434235,2.513921 151.1728058,2.513921 156.544693,15.0963182 	"/>
	<rect x="166.1977692" y="2.513921" class="st0" width="1.4101562" height="12.493042"/>
	<polygon class="st0" points="173.0872345,4.7627006 181.1530304,15.0069628 182.2771149,15.0069628 182.2771149,2.513921 
		180.9032745,2.513921 180.9032745,12.5257616 173.0335236,2.513921 171.7119293,2.513921 171.7119293,15.0069628 
		173.0872345,15.0069628 	"/>
	<path class="st0" d="M190.5926666,13.9177294c-1.7310791,0-2.9799805-0.5888672-4.2827148-1.7666016l-0.8742065,1.0354004
		c1.4987183,1.3382568,3.1231079,1.9990234,5.1031494,1.9990234c2.4812622,0,4.2653198-1.3927002,4.2653198-3.5339355v-0.0356445
		c0-1.90979-1.2838135-2.927002-4.0692139-3.5340576c-2.7476807-0.5888667-3.3909912-1.2489009-3.3909912-2.4267573V5.6196342
		c0-1.1247559,1.0354004-2.0170901,2.6605225-2.0170901c1.2838135,0,2.4448853,0.4108889,3.6044312,1.3563235l0.8206177-1.0885012
		c-1.2664185-1.017334-2.5690918-1.5349121-4.3901978-1.5349121c-2.3729248,0-4.1040649,1.4455566-4.1040649,3.4089358v0.0356445
		c0,2.052002,1.3200684,2.97998,4.1941528,3.6052241c2.6227417,0.5532227,3.2471313,1.2133789,3.2471313,2.3737793v0.0355225
		C193.3766022,13.0261278,192.2700348,13.9177294,190.5926666,13.9177294z"/>
	<path class="st0" d="M214.8990631,8.7600145V8.7244921c0-3.5158687-2.7128906-6.2105713-6.6397095-6.2105713h-4.3371582v12.493042
		h4.3371582C212.1861725,15.0069628,214.8990631,12.2760057,214.8990631,8.7600145z M205.3330231,3.8166554h2.9263306
		c3.1586304,0,5.1757812,2.1777346,5.1757812,4.9433594v0.036377c0,2.7658691-2.0171509,4.907959-5.1757812,4.907959h-2.9263306
		V3.8166554z"/>
	<polygon class="st0" points="227.4436188,13.7216845 219.7335358,13.7216845 219.7335358,9.3490038 226.5504303,9.3490038 
		226.5504303,8.0644579 219.7335358,8.0644579 219.7335358,3.7991993 227.3535309,3.7991993 227.3535309,2.513921 
		218.3233795,2.513921 218.3233795,15.0069628 227.4436188,15.0069628 	"/>
</g>
</svg>
