<svg id="Group_17937" data-name="Group 17937" xmlns="http://www.w3.org/2000/svg" xmlns:xlink="http://www.w3.org/1999/xlink" width="200" height="119.427" viewBox="0 0 200 119.427">
  <defs>
    <clipPath id="clip-path">
      <rect id="Rectangle_1963" data-name="Rectangle 1963" width="200" height="119.427" fill="none"/>
    </clipPath>
  </defs>
  <g id="Group_17284" data-name="Group 17284" clip-path="url(#clip-path)">
    <path id="Path_28391" data-name="Path 28391" d="M16.009,199.585l2.854,2.312a.421.421,0,0,1,.086.656,10.644,10.644,0,0,1-8.561,4.166,10.3,10.3,0,1,1,0-20.6,10.405,10.405,0,0,1,8.1,3.339.429.429,0,0,1-.028.685l-2.8,2.483a.432.432,0,0,1-.685-.058,5.3,5.3,0,0,0-4.594-2.027,5.885,5.885,0,0,0,0,11.758,5.9,5.9,0,0,0,4.966-2.569.4.4,0,0,1,.656-.143" transform="translate(0 -107.893)" fill="#023d67" fill-rule="evenodd"/>
    <path id="Path_28392" data-name="Path 28392" d="M60.507,198.846h5.251l-2.625-7.391Zm12.3,8.047H69.068a.549.549,0,0,1-.571-.4l-1.284-3.6H59.051l-1.284,3.6a.55.55,0,0,1-.571.4H53.458a.39.39,0,0,1-.4-.57l7.077-18.749a.524.524,0,0,1,.542-.371h4.909a.524.524,0,0,1,.542.371l7.077,18.749a.39.39,0,0,1-.4.57" transform="translate(-30.738 -108.523)" fill="#023d67" fill-rule="evenodd"/>
    <path id="Path_28393" data-name="Path 28393" d="M117.095,187.688v14.954h9.5a.437.437,0,0,1,.485.485v3.282a.436.436,0,0,1-.485.485H113.014a.436.436,0,0,1-.485-.485V187.688a.436.436,0,0,1,.485-.485h3.6a.437.437,0,0,1,.485.485" transform="translate(-65.234 -108.523)" fill="#023d67" fill-rule="evenodd"/>
    <path id="Path_28394" data-name="Path 28394" d="M159.455,206.409V187.688a.437.437,0,0,1,.485-.485h3.6a.436.436,0,0,1,.485.485v18.721a.436.436,0,0,1-.485.485h-3.6a.436.436,0,0,1-.485-.485" transform="translate(-92.437 -108.523)" fill="#023d67" fill-rule="evenodd"/>
    <path id="Path_28395" data-name="Path 28395" d="M201.188,187.688v3.282a.436.436,0,0,1-.485.485h-9.788v4.395h8.733a.436.436,0,0,1,.485.485v3.253a.436.436,0,0,1-.485.485h-8.733v6.336a.436.436,0,0,1-.485.485h-3.6a.436.436,0,0,1-.485-.485V187.688a.436.436,0,0,1,.485-.485H200.7a.436.436,0,0,1,.485.485" transform="translate(-108.028 -108.523)" fill="#023d67" fill-rule="evenodd"/>
    <path id="Path_28396" data-name="Path 28396" d="M247.821,196.3a5.852,5.852,0,1,0-5.849,5.993,5.7,5.7,0,0,0,5.849-5.993m-16.38,0a10.531,10.531,0,1,1,10.531,10.416A10.345,10.345,0,0,1,231.441,196.3" transform="translate(-134.168 -107.893)" fill="#023d67" fill-rule="evenodd"/>
    <path id="Path_28397" data-name="Path 28397" d="M299.64,191.455v4.423h3.4a2.289,2.289,0,0,0,2.6-2.312c0-1.369-.942-2.112-2.6-2.112Zm11.273,15.439h-4.566a.656.656,0,0,1-.571-.314l-4.539-6.877h-1.6v6.706a.436.436,0,0,1-.485.485h-3.6a.436.436,0,0,1-.485-.485V187.688a.436.436,0,0,1,.485-.485h7.7c4.309,0,7.049,2.311,7.049,6.22a5.813,5.813,0,0,1-4.023,5.822l4.936,7.048c.229.314.086.6-.314.6" transform="translate(-171.058 -108.523)" fill="#023d67" fill-rule="evenodd"/>
    <path id="Path_28398" data-name="Path 28398" d="M360.028,187.688a.437.437,0,0,1,.485-.485H364a.437.437,0,0,1,.485.485v18.721a.436.436,0,0,1-.485.485h-4.281a.659.659,0,0,1-.571-.314L350.9,194.023v12.386a.436.436,0,0,1-.485.485H346.9a.436.436,0,0,1-.485-.485V187.688a.436.436,0,0,1,.485-.485h4.737a.658.658,0,0,1,.571.314l7.819,11.9Z" transform="translate(-200.82 -108.523)" fill="#023d67" fill-rule="evenodd"/>
    <path id="Path_28399" data-name="Path 28399" d="M405.5,206.409V187.688a.436.436,0,0,1,.485-.485h3.6a.437.437,0,0,1,.485.485v18.721a.436.436,0,0,1-.485.485h-3.6a.436.436,0,0,1-.485-.485" transform="translate(-235.071 -108.523)" fill="#023d67" fill-rule="evenodd"/>
    <path id="Path_28400" data-name="Path 28400" d="M435.24,198.846h5.252l-2.626-7.391Zm12.3,8.047H443.8a.549.549,0,0,1-.571-.4l-1.284-3.6h-8.162l-1.284,3.6a.551.551,0,0,1-.572.4h-3.737a.391.391,0,0,1-.4-.57l7.077-18.749a.524.524,0,0,1,.542-.371h4.909a.524.524,0,0,1,.542.371l7.077,18.749a.391.391,0,0,1-.4.57" transform="translate(-247.974 -108.523)" fill="#023d67" fill-rule="evenodd"/>
    <path id="Path_28401" data-name="Path 28401" d="M182.053,258.792a.293.293,0,0,1,.3-.213h1.995a.208.208,0,0,1,.213.3l-3.76,10a.28.28,0,0,1-.29.2h-1.827a.293.293,0,0,1-.29-.213l-2.588-6.988-2.6,6.988a.293.293,0,0,1-.29.213h-1.826a.28.28,0,0,1-.29-.2l-3.76-10a.208.208,0,0,1,.213-.3h1.994a.293.293,0,0,1,.3.213l2.451,6.912,2.451-6.912a.293.293,0,0,1,.3-.213h2.086a.293.293,0,0,1,.3.213l2.451,6.943Z" transform="translate(-96.825 -149.901)" fill="#023d67" fill-rule="evenodd"/>
    <path id="Path_28402" data-name="Path 28402" d="M214.957,268.825v-9.987a.233.233,0,0,1,.259-.259h1.918a.233.233,0,0,1,.259.259v9.987a.233.233,0,0,1-.259.259h-1.918a.233.233,0,0,1-.259-.259" transform="translate(-124.612 -149.901)" fill="#023d67" fill-rule="evenodd"/>
    <path id="Path_28403" data-name="Path 28403" d="M236.563,258.838a.233.233,0,0,1,.259-.259h1.857a.233.233,0,0,1,.259.259v9.987a.233.233,0,0,1-.259.259H236.4a.35.35,0,0,1-.3-.167l-4.4-6.7v6.607a.233.233,0,0,1-.259.259H229.56a.233.233,0,0,1-.259-.259v-9.987a.233.233,0,0,1,.259-.259h2.527a.352.352,0,0,1,.3.168l4.171,6.348Z" transform="translate(-132.928 -149.901)" fill="#023d67" fill-rule="evenodd"/>
    <path id="Path_28404" data-name="Path 28404" d="M268.7,258.838v1.751a.233.233,0,0,1-.259.259h-5.191v1.979h4.614a.233.233,0,0,1,.258.259v1.476a.233.233,0,0,1-.258.259h-4.614v1.994h5.191a.234.234,0,0,1,.259.259v1.751a.233.233,0,0,1-.259.259h-7.369a.233.233,0,0,1-.258-.259v-9.987a.233.233,0,0,1,.258-.259h7.369a.233.233,0,0,1,.259.259" transform="translate(-151.198 -149.901)" fill="#023d67" fill-rule="evenodd"/>
    <path id="Path_28405" data-name="Path 28405" d="M285.341,267.134a.238.238,0,0,1,.015-.365l1.34-1.295c.137-.137.259-.091.366.062a3.112,3.112,0,0,0,2.892,1.354c.989,0,1.919-.244,1.919-1.142,0-.807-.64-1.05-2.27-1.248-2.359-.289-3.912-1.2-3.912-3.288,0-1.934,1.415-3.212,4.018-3.212a5.137,5.137,0,0,1,3.975,1.522.239.239,0,0,1-.016.366l-1.294,1.218a.227.227,0,0,1-.364-.016,2.923,2.923,0,0,0-2.391-.989c-1.02,0-1.659.335-1.659.974,0,.655.548.959,2.268,1.126,2.406.243,3.913,1.081,3.913,3.273,0,2.375-1.705,3.517-4.187,3.517a5.576,5.576,0,0,1-4.613-1.858" transform="translate(-165.37 -149.564)" fill="#023d67" fill-rule="evenodd"/>
    <path id="Path_28406" data-name="Path 28406" d="M321.4,132.594c0-2.611-.185-3.878-.471-4.384a.571.571,0,0,0-.482-.288c-2.313-.073-17.656-.546-22.826-.482a5.281,5.281,0,0,0-4.864,2.731.578.578,0,0,1-.509.314c-1.8.009-9.7.048-10.09.048-.442,0-.687.049-.687,1.866v.1c0,1.816.245,1.866.687,1.866.392,0,8.286.038,10.09.047a.577.577,0,0,1,.509.313,5.281,5.281,0,0,0,4.864,2.732c5.17.065,20.513-.409,22.826-.481a.572.572,0,0,0,.482-.289c.286-.506.471-1.772.471-4.384Z" transform="translate(-163.169 -73.874)" fill="#023d67" fill-rule="evenodd"/>
    <path id="Path_28407" data-name="Path 28407" d="M309.717,65.238c-1.306-2.262-2.1-3.267-2.6-3.562a.572.572,0,0,0-.562-.009c-2.04,1.094-15.564,8.355-20.009,11a5.279,5.279,0,0,0-2.846,4.8.579.579,0,0,1-.284.526c-1.559.91-8.376,4.891-8.715,5.086-.382.221-.571.386.337,1.959l.05.085c.908,1.573,1.145,1.493,1.528,1.272.339-.2,7.195-4.11,8.762-5a.578.578,0,0,1,.6.017,5.28,5.28,0,0,0,5.577-.066c4.51-2.529,17.561-10.611,19.528-11.831a.571.571,0,0,0,.274-.491c-.006-.58-.479-1.769-1.785-4.031Z" transform="translate(-159.063 -35.709)" fill="#248e2a" fill-rule="evenodd"/>
    <path id="Path_28408" data-name="Path 28408" d="M278.428,16.659c-2.262-1.306-3.451-1.779-4.032-1.785a.571.571,0,0,0-.491.273c-1.22,1.967-9.3,15.018-11.83,19.528a5.28,5.28,0,0,0-.066,5.577.579.579,0,0,1,.017.6c-.895,1.568-4.809,8.424-5,8.763-.222.382-.3.62,1.272,1.528l.085.049c1.573.909,1.738.72,1.959.338.2-.339,4.176-7.157,5.086-8.715a.578.578,0,0,1,.526-.284,5.28,5.28,0,0,0,4.8-2.846c2.641-4.445,9.9-17.97,11-20.01a.572.572,0,0,0-.008-.562c-.3-.5-1.3-1.294-3.562-2.6Z" transform="translate(-148.928 -8.623)" fill="#a7b338" fill-rule="evenodd"/>
    <path id="Path_28409" data-name="Path 28409" d="M231.845,0c-2.611,0-3.878.185-4.384.471a.57.57,0,0,0-.288.482c-.073,2.313-.546,17.657-.482,22.826a5.28,5.28,0,0,0,2.731,4.864.578.578,0,0,1,.314.509c.009,1.8.048,9.7.048,10.09,0,.442.049.687,1.866.687h.1c1.816,0,1.865-.245,1.865-.687,0-.391.039-8.286.047-10.09a.579.579,0,0,1,.314-.509,5.281,5.281,0,0,0,2.732-4.864c.065-5.17-.409-20.513-.482-22.826a.571.571,0,0,0-.288-.482C235.429.185,234.162,0,231.55,0Z" transform="translate(-131.411)" fill="#ffbc26" fill-rule="evenodd"/>
    <path id="Path_28410" data-name="Path 28410" d="M164.49,15.76c-2.262,1.306-3.266,2.1-3.562,2.6a.573.573,0,0,0-.008.562c1.094,2.04,8.355,15.564,11,20.009a5.279,5.279,0,0,0,4.8,2.846.579.579,0,0,1,.526.284c.91,1.558,4.89,8.376,5.086,8.715.221.382.387.571,1.959-.337l.085-.05c1.573-.908,1.493-1.145,1.272-1.528-.2-.339-4.109-7.195-5-8.762a.579.579,0,0,1,.017-.6,5.281,5.281,0,0,0-.066-5.577c-2.529-4.51-10.611-17.561-11.83-19.528a.571.571,0,0,0-.491-.274c-.581.005-1.77.479-4.032,1.785Z" transform="translate(-93.246 -8.187)" fill="#e9971f" fill-rule="evenodd"/>
    <path id="Path_28411" data-name="Path 28411" d="M115.909,63.682c-1.306,2.262-1.779,3.451-1.785,4.032a.574.574,0,0,0,.274.491c1.967,1.22,15.018,9.3,19.528,11.83a5.281,5.281,0,0,0,5.577.066.578.578,0,0,1,.6-.017c1.567.894,8.424,4.809,8.763,5,.382.221.62.3,1.528-1.272l.049-.084c.909-1.573.72-1.738.338-1.959-.339-.2-7.157-4.176-8.716-5.086a.578.578,0,0,1-.283-.526,5.279,5.279,0,0,0-2.846-4.8c-4.445-2.642-17.97-9.9-20.01-11a.573.573,0,0,0-.562.009c-.5.3-1.294,1.3-2.6,3.562Z" transform="translate(-66.159 -34.955)" fill="#e89230" fill-rule="evenodd"/>
    <path id="Path_28412" data-name="Path 28412" d="M99.251,130.8c0,2.612.185,3.878.47,4.384a.572.572,0,0,0,.482.288c2.313.073,17.657.547,22.826.482a5.28,5.28,0,0,0,4.864-2.731.578.578,0,0,1,.509-.314c1.8-.009,9.7-.048,10.09-.048.442,0,.687-.049.687-1.866v-.1c0-1.816-.245-1.865-.687-1.865-.391,0-8.286-.039-10.09-.048a.577.577,0,0,1-.509-.313,5.281,5.281,0,0,0-4.864-2.732c-5.17-.065-20.513.409-22.826.482a.571.571,0,0,0-.482.288c-.285.506-.47,1.772-.47,4.384Z" transform="translate(-57.537 -73.003)" fill="#c4383d" fill-rule="evenodd"/>
  </g>
</svg>
