<svg xmlns="http://www.w3.org/2000/svg" xmlns:xlink="http://www.w3.org/1999/xlink"
    id="Capa_2_00000179627200924387760390000012544607159793422220_" x="0px" y="0px"
    viewBox="0 0 5013.2 1136.4" style="enable-background:new 0 0 5013.2 1136.4;"
    xml:space="preserve"><style type="text/css">	.st0{fill:url(#SVGID_1_);}	.st1{fill:#000000;}</style><g id="Capa_1-2">	<g>					<linearGradient id="SVGID_1_" gradientUnits="userSpaceOnUse" x1="188.03" y1="149.04" x2="4848.48" y2="149.04" gradientTransform="matrix(1 0 0 -1 0 1136)">			<stop offset="0" style="stop-color:#CAFF69"></stop>			<stop offset="6.000000e-02" style="stop-color:#A1FF79"></stop>			<stop offset="0.14" style="stop-color:#6CFF8E"></stop>			<stop offset="0.21" style="stop-color:#46FF9D"></stop>			<stop offset="0.27" style="stop-color:#2EFFA7"></stop>			<stop offset="0.3" style="stop-color:#26FFAB"></stop>			<stop offset="0.34" style="stop-color:#28F5AE"></stop>			<stop offset="0.41" style="stop-color:#30DCB7"></stop>			<stop offset="0.49" style="stop-color:#3DB3C5"></stop>			<stop offset="0.59" style="stop-color:#4F79D9"></stop>			<stop offset="0.71" style="stop-color:#6531F2"></stop>			<stop offset="0.72" style="stop-color:#682BF5"></stop>			<stop offset="0.77" style="stop-color:#5B23DA"></stop>			<stop offset="0.9" style="stop-color:#3B1098"></stop>			<stop offset="1" style="stop-color:#1F005C"></stop>		</linearGradient>		<path class="st0" d="M1853.1,839.3c0,0,551,283.9,1131.3,69.2h57.7c80.7,37.3,449.8,204.1,1047,84.3h9.8   c0,0,324.7,73.6,713.4,73.6v69.9H201v-68.1c161.5,0,364.7-63,417-91.4h14.2c385.1,63,925.4,2.7,1157-139.3h63.9L1853.1,839.3   L1853.1,839.3z"></path>		<g>			<rect x="827.8" y="180.9" class="st1" width="101.2" height="464.7"></rect>			<path class="st1" d="M1249.6,171.9c-26,0-42.1,4.5-65.4,14.3c-19.7,8.9-33.1,19.7-45.7,34l-12.5,46.6h-3.6l-8.1-85.1h-92.2v465.6    h101.2V375.2c0-37.6,8.9-67.2,26.9-87.8c18.8-20.6,44.8-31.3,77.9-31.3s58.2,9.9,77,28.6s27.8,51.9,27.8,99.4v263.3h100.3V380.6    c0-69.9-15.2-120.9-46.6-155.8C1354.3,188.9,1308.7,171.9,1249.6,171.9L1249.6,171.9z"></path>			<path class="st1" d="M2304.4,420.9c-14.3-11.6-32.2-22.4-53.7-31.3c-21.5-9-46.6-18.8-75.2-28.6c-19.7-7.2-35.8-13.4-47.5-18.8    s-21.5-10.8-28.6-16.1c-7.2-4.5-11.6-9.9-14.3-15.2c-2.7-4.5-3.6-9.9-3.6-16.1c0-12.5,5.4-22.4,16.1-30.5    c11.6-7.2,28.6-11.6,53.7-11.6s47.5,3.6,68.9,9.8s43,17,63.6,30.5l43.9-69.9c-23.3-15.2-49.2-27.8-79.7-37.6s-61.8-14.3-94-14.3    c-25.1,0-48.4,2.7-69.9,8.1c-21.5,5.4-40.3,13.4-55.5,24.2s-27.8,24.2-35.8,40.3c-8.1,16.1-12.5,34.9-12.5,55.5    c0,17.9,2.7,34,8.1,48.4c5.4,13.4,14.3,26,26,37.6c11.6,10.8,27.8,21.5,46.6,31.3c19.7,9.9,43,18.8,69.9,28.6    c36.7,13.4,66.3,25.1,86.9,35.8s31.3,25.1,31.3,43c0,34-30.4,51-93.1,51c-24.2,0-48.4-3.6-74.3-11.6    c-25.1-8.1-50.2-19.7-74.3-34.9l-45.7,69c26,17,56.4,31.3,91.3,43c34.9,11.6,69.9,17,104.8,17c25.1,0,49.2-2.7,72.5-7.2    c23.3-4.5,43-12.5,60.9-23.3c17-10.8,31.3-24.2,42.1-42.1c10.8-17.9,16.1-39.4,16.1-65.4c0-22.4-3.6-41.2-12.5-58.2    C2330.4,445.9,2318.8,432.5,2304.4,420.9L2304.4,420.9z"></path>			<path class="st1" d="M3490.5,555.4c-23.3,13.4-52.8,19.7-88.6,19.7c-59.1,0-104.8-20.6-135.2-61.8    c-31.3-41.2-46.6-96.7-46.6-165.7s15.2-124.5,46.6-165.7c31.3-40.3,76.1-60.9,135.2-60.9c35.8,0,63.6,5.4,84.2,17.9    c20.6,12.5,39.4,31.3,57.3,56.4l90.4-51.9c-23.3-38.5-53.7-67.2-91.3-86.9s-85.1-29.5-139.7-29.5c-43.9,0-84.2,7.2-118.2,23.3    c-34.9,16.1-65.4,37.6-90.4,66.3c-25.1,28.6-44.8,62.7-58.2,102.1c-13.4,38.5-20.6,82.4-20.6,128s7.2,90.4,20.6,129    c14.3,38.5,33.1,72.5,58.2,101.2c25.1,28.7,54.6,50.2,90.4,66.3c34.9,15.2,75.2,23.3,118.2,23.3c51.9,0,97.6-9.8,137-30.5    c39.4-19.7,71.6-49.2,97.6-86.9l-85.1-51.9C3534.4,523.2,3513.8,542,3490.5,555.4L3490.5,555.4z"></path>			<rect x="4408.4" y="11" class="st1" width="101.2" height="645.6"></rect>			<path class="st1" d="M5003,325.3c-9-27.8-22.4-52.8-40.3-74.3c-17.9-21.5-40.3-38.5-67.2-51c-26.9-12.5-58.2-18.8-94.9-18.8    c-33.1,0-63.6,5.4-91.3,16.1s-51,26-70.7,46.6c-19.7,20.6-34.9,45.7-45.7,76.1c-10.8,29.5-16.1,65.4-16.1,104.8s5.4,72.5,17,103    c11.6,29.5,26.9,55.5,47.5,76.1c20.6,21.5,43.9,36.7,70.7,47.5c26.9,10.8,55.5,16.1,85.1,16.1c38.5,0,72.5-5.4,100.3-16.1    c27.8-10.8,53.7-26,76.1-45.7l-59.1-58.2c-17,12.5-34,21.5-51.9,27.8s-37.6,9.8-59.1,9.8c-15.2,0-30.4-1.8-44.8-7.2    c-13.4-5.4-26.9-12.5-38.5-23.3c-12.5-9.8-21.5-23.3-29.5-39.4c-8.1-16.1-13.4-35.8-16.1-58.2h335.8c0.9-4.5,0.9-10.8,1.8-17.9    c0.9-7.2,0.9-15.2,0.9-23.3C5014.6,384.4,5010.1,354,5003,325.3L5003,325.3z M4677.9,381.7c4.5-37.6,17-66.3,36.7-86.9    s46.6-30.5,80.6-30.5c20.6,0,38.5,2.7,52.8,9c15.2,6.3,26.9,14.3,36.7,25.1c9,10.8,17,23.3,21.5,37.6c4.5,14.3,8.1,29.5,9,45.7    L4677.9,381.7L4677.9,381.7z"></path>			<path class="st1" d="M1877.3,240.9c-17.9-21.5-40.3-38.5-67.2-51c-26.9-12.5-58.2-18.8-94.9-18.8c-33.1,0-63.6,5.4-91.3,16.1    s-51,26-70.7,46.6c-19.7,20.6-34.9,45.7-45.7,76.1c-10.8,29.5-16.1,65.4-16.1,104.8s5.4,72.5,17,103    c11.6,29.5,26.9,55.5,47.5,76.1c20.6,21.5,43.9,36.7,70.7,47.5s55.5,16.1,85.1,16.1c38.5,0,72.5-5.4,100.3-16.1    s53.7-26,76.1-45.7l-59.1-58.2c-17,12.5-34,21.5-51.9,27.8c-17.9,6.3-37.6,9.8-59.1,9.8c-15.2,0-30.4-1.8-44.8-7.2    c-13.4-5.4-26.9-12.5-38.5-23.3c-12.5-9.8-21.5-23.3-29.6-39.4c-8.1-16.1-13.4-35.8-16.1-58.2h335.8c0.9-4.5,0.9-10.8,1.8-17.9    c0.9-7.2,0.9-15.2,0.9-23.3c1.8-31.3-2.7-61.8-9.8-90.4C1908.6,287.5,1895.2,262.4,1877.3,240.9L1877.3,240.9z M1592.5,371.6    c4.5-37.6,17-66.3,36.7-86.9c19.7-20.6,46.6-30.4,80.6-30.4c20.6,0,38.5,2.7,52.8,8.9c15.2,6.3,26.9,14.3,36.7,25.1    c8.9,10.8,17,23.3,21.5,37.6s8.1,29.5,8.9,45.7L1592.5,371.6L1592.5,371.6z"></path>			<circle class="st1" cx="878.8" cy="54.6" r="54.6"></circle>			<path class="st1" d="M3937.4,182c-26,0-42.1,4.5-65.4,14.3c-19.7,8.9-33.1,19.7-45.7,34l-11.6,46.6h-4.5l0.9-265.1h-100.3v645.6    H3812V385.3c0-37.6,8.9-67.2,26.9-87.8c18.8-20.6,44.8-31.3,77.9-31.3s58.2,9.9,77,28.6s27.8,51.9,27.8,99.4v263.3h100.3V390.7    c0-69.9-15.2-120.9-46.6-155.8C4043,199,3997.4,182,3937.4,182L3937.4,182z"></path>			<rect x="4209.6" y="191" class="st1" width="101.2" height="464.7"></rect>			<circle class="st1" cx="4259.7" cy="64.7" r="54.6"></circle>			<path class="st1" d="M573.9,513.1c-1.8,9.2-3.6,28.7-4.5,34h-4.5c-1.8-8.1-3.6-26.9-5.4-34c-2.7-9-116.7-478.2-116.7-478.2H332.5    c0,0-114,469.2-116.7,478.2c-1.8,7.2-3.6,26-5.4,34H206c-0.9-5.4-2.7-24.8-4.5-34c-2.1-10.9-91.3-486.2-91.3-486.2H0l146,619.7    h116.4l125.3-427.2L513,646.5h116.4l146-619.7H665.2C665.2,26.9,575.9,502.2,573.9,513.1L573.9,513.1z"></path>			<g>				<path class="st1" d="M2899.5,396.5c-20.3,0-39.7-4.4-59-13.3v220.4h73.5l-0.4-207.9C2908.8,396.2,2904.1,396.5,2899.5,396.5     L2899.5,396.5z"></path>				<path class="st1" d="M2913.5,356.1l-0.1-58.1c0-35.6,12.1-66.1,48.5-66.1c13.6,0,23.3,2.4,31.3,5.2l5.1-56.4     c-11.5-4-27.1-7.2-46.6-7.2c-25.5,0-54.5,7.6-76,28c-25.2,23.9-35.3,61.7-35.3,99.3v35.5c-16.1-11.1-28.7-25.3-38-38.2     c-24.1-33.7-36.1-72.7-37.2-96.4l-20.1,0.5V218c-0.7,18.8-2.3,36.4-4.6,52.9c-1.4,9.9-3.2,19.3-5.2,28.3     c-6.2,28.5-15.1,53.1-25.9,74.2c0.2,0.2,0.4,0.5,0.6,0.7c4.5,5.6,8.3,11.7,11.4,18.2c6.2,12.7,9.7,27,9.7,42.2     c0,52.2-41,94.5-91.6,94.5c-23,0-44-8.8-60.1-23.3c-5.5-4.9-10.4-10.5-14.6-16.7c-10.6-15.4-16.8-34.2-16.8-54.5     c0-52.2,41-94.5,91.6-94.5c22,0,42.1,8,57.9,21.3c8.7-20.4,18.2-44.4,23.5-71.2c-24-13.6-51.8-21.4-81.4-21.4     c-91.6,0-165.8,74.2-165.8,165.8s74.2,165.8,165.8,165.8s165.8-74.2,165.8-165.8c0-48-20.4-91.2-53-121.4     c3.8-15.1,6.8-30.9,8.9-47.4c14.3,33,37.7,66.5,69.2,87.9c3.2,2.2,6.5,4.2,9.9,6.1c17.9,10.1,38,16.2,60.4,16.3     c1.7,0.2,6.3,0.5,12.8,0.2c4.1-0.2,8.8-0.6,14.2-1.4c22.5-3.5,54.9-14.3,83.1-46.4l-15.1-13.3     C2966,349.1,2930.9,355.3,2913.5,356.1L2913.5,356.1z"></path>			</g>		</g>	</g></g></svg>