<svg xmlns="http://www.w3.org/2000/svg" viewBox="0 0 201 69">
    <defs>
        <style>.b029b6ac-db2d-41c8-8d1a-2549c2fe63d2{fill:#bfbdb3;fill-rule:evenodd;}</style>
    </defs>
    <g id="a6f5bb87-dcbc-4c91-998d-7df7e4ea9913" data-name="Layer 2">
        <g id="ad4cb59d-1039-4991-80c1-f73ef8418c6e" data-name="Layer 1">
            <path class="b029b6ac-db2d-41c8-8d1a-2549c2fe63d2 hide-on-scroll "
                d="M123.91,33.49a32.08,32.08,0,0,0-10.55.65c-3.64.79-7.37,1-9.13-.56a4.61,4.61,0,0,1-1.46-3.23,5.28,5.28,0,0,1,2.9-5.23,20.57,20.57,0,0,0,6.77,1.09c8.73,0,15.07-6,15.07-14.17a12.47,12.47,0,0,0-1.09-5.29,2,2,0,0,1,1.82-2.93h2a.89.89,0,0,0,.91-.87V1.45c0-.72-.59-.72-.91-.72H118.48A17.3,17.3,0,0,0,112.83,0c-9,0-15.07,5.23-15.07,13,0,4.06,1.57,8.05,3.91,9.93a1.38,1.38,0,0,1,.52,1.05,1.56,1.56,0,0,1-.5,1.2c-1.62,1.53-3.1,6.73-1.09,10.3,2.47,4.38,7,5.09,10.36,4.83a44.38,44.38,0,0,0,7.17-.94c-4.76,2.92-7,8.77-7,14.32,0,9.29,5.4,15.29,13.76,15.29,7.36,0,11.08-4.66,12.1-9a1,1,0,0,0,0-.84.84.84,0,0,0-.6-.39l-.6-.16a.91.91,0,0,0-.9.13,1.31,1.31,0,0,0-.38.61,8,8,0,0,1-8.12,5.82c-5.56,0-8-3.71-8-12v-.66h16c2.13,0,2.88-.66,2.88-2.52v-.88C137.2,42.61,132.61,34.44,123.91,33.49ZM112.67,1.39c5.83,0,8,6.46,8,10.8,0,4.92-2.16,12.74-8,12.74-5.6,0-8.12-7.06-8.12-12.06C104.55,7.34,107.09,1.39,112.67,1.39Zm15.22,48.75h-9.5c.15-10,4.7-11,6.11-11,3.46,0,5.7,3.55,5.7,8.75C130.2,49.4,129.85,50.14,127.89,50.14Z"></path>
            <path class="b029b6ac-db2d-41c8-8d1a-2549c2fe63d2 hide-on-scroll "
                d="M66.82,65.6c-.31,0-3-.55-3-4.17v-22c0-1.06-.67-1.22-1.07-1.22H56.06a1,1,0,0,0-1,.93v.74a1,1,0,0,0,1,1,1.67,1.67,0,0,1,1.7,1.64V65.6H54.53a.9.9,0,0,0-1,1v.68a1,1,0,0,0,1,1H66.84a1,1,0,0,0,1-.93v-.74A.91.91,0,0,0,66.82,65.6Z"></path>
            <path class="b029b6ac-db2d-41c8-8d1a-2549c2fe63d2"
                d="M56.88,28.46a3.43,3.43,0,1,0,3.43-3.38A3.41,3.41,0,0,0,56.88,28.46Z"></path>
            <path class="b029b6ac-db2d-41c8-8d1a-2549c2fe63d2"
                d="M57.31,7.81a1.83,1.83,0,0,0,1.83-2A5.52,5.52,0,0,0,53.56,0c-3.24,0-6.29,2-8.29,5.23V1.56a.82.82,0,0,0-.83-.81h-9a.82.82,0,0,0-.83.81v.86a1,1,0,0,0,1,1,3.78,3.78,0,0,1,3.83,3.72v21h-4a.83.83,0,0,0-.83.81v1a.82.82,0,0,0,.83.8H50.56a.82.82,0,0,0,.83-.8V29.1a.91.91,0,0,0-1-1,5.34,5.34,0,0,1-5.1-5.64V9c2.1-4.06,5.27-5.5,7.36-5.5h.14a7.59,7.59,0,0,0-.58,2.69,1.51,1.51,0,0,0,1.49,1.59Z"></path>
            <path class="b029b6ac-db2d-41c8-8d1a-2549c2fe63d2 hide-on-scroll "
                d="M92.43,22.55a1,1,0,0,0,0-.84.86.86,0,0,0-.6-.39l-.6-.16a.9.9,0,0,0-.9.12,1.34,1.34,0,0,0-.38.62,8,8,0,0,1-8.12,5.82c-5.57,0-8.05-3.71-8.05-12v-.65h16c2.14,0,2.89-.66,2.89-2.52v-.46a11.65,11.65,0,0,0-3.71-9,12.4,12.4,0,0,0-8.29-3c-9.66,0-14.05,8.4-14.05,16.2,0,9.29,5.4,15.3,13.75,15.3C87.69,31.57,91.4,26.91,92.43,22.55ZM79.91,1.87c3.47,0,5.71,3.36,5.71,8.56,0,1.54-.35,2.28-2.32,2.28H73.81C74,2.66,78.51,1.87,79.91,1.87Z"></path>
            <path class="b029b6ac-db2d-41c8-8d1a-2549c2fe63d2 hide-on-scroll "
                d="M148.67,0c-8.95,0-14.73,6.42-14.73,16.36,0,9.53,5.35,15.22,14.32,15.22s14.79-6.45,14.79-16.42C163.05,5.67,157.67,0,148.67,0Zm-.24,29.83c-4.87,0-7.24-4.44-7.24-13.59,0-9.75,2.39-14.5,7.3-14.5s7.3,4.43,7.3,13.54C155.79,25.07,153.38,29.83,148.43,29.83Z"></path>
            <path class="b029b6ac-db2d-41c8-8d1a-2549c2fe63d2"
                d="M14.28,31.57c9,0,14.75-6.43,14.75-16.38C29,5.72,23.67.07,14.69.07S0,6.47,0,16.39C0,25.89,5.34,31.57,14.28,31.57Zm.24-29.76c4.9,0,7.28,4.41,7.28,13.5,0,9.77-2.4,14.52-7.34,14.52S7.24,25.39,7.24,16.27C7.24,6.54,9.62,1.81,14.52,1.81Z"></path>
            <path class="b029b6ac-db2d-41c8-8d1a-2549c2fe63d2 hide-on-scroll "
                d="M48.66,38.24H37.13q-1,0-1,.93V40c0,.42.19.93,1,.93h0l1.46.05a2.26,2.26,0,0,1,1.46,1,4.09,4.09,0,0,1,.64,3.54L35.57,60.35l-5.4-15.12c-.69-1.9-1.79-5-1.8-5l-.12-.36H24.84l-.12.37L22,48.59,17.88,60.36,12,43.91c-.44-1.62-.26-2.31,0-2.6A1.4,1.4,0,0,1,13.15,41l1.49-.05c.68,0,1-.32,1-.93v-.8q0-.93-1-.93h-12c-.67,0-1,.31-1,.93V40c0,.61.35.93,1,.93h0l1.74,0c.28.73.95,2.54,1.73,4.66l8.28,21.9a1,1,0,0,0,1.11.76h1.63a1,1,0,0,0,1.11-.75L25,49.3l7.12,18.2a1,1,0,0,0,1.1.76h1.7A1,1,0,0,0,36,67.5l6.66-18.62c.88-2.51,1.54-4.25,2-5.2A4,4,0,0,1,48.07,41l.62-.05a.89.89,0,0,0,1-.93v-.8Q49.68,38.24,48.66,38.24Z"></path>
            <path class="b029b6ac-db2d-41c8-8d1a-2549c2fe63d2 hide-on-scroll "
                d="M200,28.09c-.35,0-3.93-.58-3.93-5.19V10.8C196.09,1.4,189,0,186,0a10.55,10.55,0,0,0-9.12,4.55V2A1.07,1.07,0,0,0,175.81.73h-8.76a1,1,0,0,0-1,.93v.8a1,1,0,0,0,1,1,3.79,3.79,0,0,1,3.84,3.71V28.09H167.1a1,1,0,0,0-1,1v.68a1,1,0,0,0,1,1h13.56a1,1,0,0,0,1-.93v-.74a.91.91,0,0,0-1-1H180c-1.55,0-3.12-.49-3.12-4.17V8.27c1.79-3.24,4-5.08,7-5.08,3.83,0,5.76,2.76,5.76,7.44V25.52a2.61,2.61,0,0,1-2.59,2.57h-.65a.91.91,0,0,0-1,1v.68a1,1,0,0,0,1,1H200a1,1,0,0,0,1-.93v-.74A.91.91,0,0,0,200,28.09Z"></path>
            <path class="b029b6ac-db2d-41c8-8d1a-2549c2fe63d2 hide-on-scroll "
                d="M105.83,65.6c-.34,0-3.92-.58-3.92-5.19V48.31c0-9.4-7-10.8-10.08-10.8a10.54,10.54,0,0,0-9.12,4.55v-2.6a1.07,1.07,0,0,0-1.08-1.22H72.87a1,1,0,0,0-1,.93V40a1,1,0,0,0,1,1,3.8,3.8,0,0,1,3.84,3.72V65.6H72.92a.9.9,0,0,0-1,1v.68a1,1,0,0,0,1,1H86.48a1,1,0,0,0,1-.93v-.74a.91.91,0,0,0-1-1h-.6c-1.54,0-3.11-.49-3.11-4.18V45.78c1.79-3.25,4-5.08,7-5.08,3.82,0,5.76,2.76,5.76,7.44V63A2.61,2.61,0,0,1,92.9,65.6h-.66a.9.9,0,0,0-1,1v.68a1,1,0,0,0,1,1h13.62a1,1,0,0,0,1-.93v-.74A.91.91,0,0,0,105.83,65.6Z"></path>
        </g>
    </g>
</svg>