<svg width="431" height="200" viewBox="0 0 431 200" fill="none" xmlns="http://www.w3.org/2000/svg">
<path fill-rule="evenodd" clip-rule="evenodd" d="M242.154 145.008V99.3462H236.239V145.008H242.154ZM15.3848 111.945H21.3002V116.422C22.414 114.588 23.9448 113.266 26.0325 112.457C28.1217 111.603 30.4171 111.177 32.9217 111.177C35.7063 111.177 38.1186 111.646 40.1602 112.585C42.2478 113.522 43.9648 114.802 45.3094 116.422C46.7017 117.998 47.7463 119.832 48.4417 121.922C49.1371 124.011 49.4848 126.228 49.4848 128.572C49.4848 130.918 49.1371 133.135 48.4417 135.223C47.7909 137.312 46.7709 139.146 45.3786 140.725C44.034 142.258 42.3171 143.474 40.2294 144.369C38.1878 145.263 35.7986 145.711 33.0617 145.711C32.1802 145.711 31.1832 145.626 30.0694 145.455C29.0032 145.285 27.9355 145.008 26.8678 144.625C25.8002 144.242 24.7802 143.729 23.8063 143.089C22.8771 142.408 22.0894 141.575 21.4402 140.597L21.3002 157.606H15.3848L15.3848 111.945ZM43.2217 128.189C43.2217 126.654 42.9894 125.162 42.5263 123.712C42.1078 122.22 41.4355 120.897 40.5078 119.748C39.6263 118.595 38.4663 117.68 37.0278 116.997C35.6355 116.315 33.9894 115.974 32.0878 115.974C30.0925 115.974 28.3986 116.337 27.0078 117.06C25.6155 117.786 24.4786 118.745 23.5971 119.938C22.7155 121.089 22.0663 122.411 21.6494 123.905C21.2771 125.397 21.0909 126.909 21.0909 128.445C21.0909 130.065 21.3002 131.642 21.7171 133.177C22.1355 134.671 22.7848 135.991 23.6663 137.143C24.594 138.294 25.7771 139.231 27.2155 139.957C28.654 140.638 30.394 140.98 32.4355 140.98C34.4771 140.98 36.1709 140.617 37.5155 139.892C38.9078 139.168 40.0202 138.208 40.8555 137.014C41.6909 135.82 42.294 134.457 42.6663 132.922C43.0371 131.386 43.2217 129.809 43.2217 128.189ZM58.7355 128.508C58.7355 130.512 59.014 132.303 59.5709 133.88C60.174 135.415 60.9863 136.717 62.0063 137.782C63.0263 138.806 64.2109 139.594 65.5555 140.148C66.9478 140.703 68.4094 140.98 69.9402 140.98C71.4709 140.98 72.9094 140.703 74.2555 140.148C75.6463 139.594 76.8525 138.806 77.8725 137.782C78.894 136.717 79.6832 135.415 80.2402 133.88C80.8432 132.303 81.1448 130.512 81.1448 128.508C81.1448 126.505 80.8432 124.735 80.2402 123.2C79.6832 121.623 78.894 120.302 77.8725 119.235C76.8525 118.169 75.6463 117.358 74.2555 116.805C72.9094 116.251 71.4709 115.974 69.9402 115.974C68.4094 115.974 66.9478 116.251 65.5555 116.805C64.2109 117.358 63.0263 118.169 62.0063 119.235C60.9863 120.302 60.174 121.623 59.5709 123.2C59.014 124.735 58.7355 126.505 58.7355 128.508ZM52.4725 128.508C52.4725 126.078 52.8432 123.818 53.5863 121.729C54.3278 119.598 55.4417 117.765 56.9263 116.229C58.4109 114.652 60.2432 113.415 62.4232 112.52C64.6048 111.625 67.1094 111.177 69.9402 111.177C72.8171 111.177 75.3217 111.625 77.4555 112.52C79.6371 113.415 81.4678 114.652 82.954 116.229C84.4386 117.765 85.5509 119.598 86.294 121.729C87.0355 123.818 87.4078 126.078 87.4078 128.508C87.4078 130.94 87.0355 133.198 86.294 135.288C85.5509 137.377 84.4386 139.211 82.954 140.788C81.4678 142.323 79.6371 143.537 77.4555 144.434C75.3217 145.285 72.8171 145.711 69.9402 145.711C67.1094 145.711 64.6048 145.285 62.4232 144.434C60.2432 143.537 58.4109 142.323 56.9263 140.788C55.4417 139.211 54.3278 137.377 53.5863 135.288C52.8432 133.198 52.4725 130.94 52.4725 128.508ZM90.8878 111.945H96.4555V118.915C96.4555 118.915 99.1679 114.551 101.879 112.969C104.619 111.368 106.616 111.092 109.817 111.177V116.932C107.451 116.932 105.432 117.232 103.762 117.829C102.091 118.425 100.746 119.298 99.7263 120.451C98.7048 121.602 97.9632 123.009 97.4986 124.671C97.0355 126.291 96.8032 128.168 96.8032 130.298V145.008H90.8878V111.945ZM119.212 111.945H126.38V116.742H119.212V137.271C119.212 137.909 119.259 138.422 119.351 138.806C119.491 139.189 119.723 139.488 120.046 139.7C120.372 139.914 120.812 140.063 121.371 140.148C121.972 140.191 122.739 140.212 123.666 140.212H126.38V145.008H121.857C120.326 145.008 119.003 144.923 117.891 144.752C116.823 144.54 115.942 144.178 115.246 143.665C114.596 143.154 114.109 142.429 113.785 141.491C113.459 140.554 113.297 139.317 113.297 137.782V102.032H119.212V111.945ZM159.437 145.008H153.869V139.765C152.479 141.811 150.877 143.325 148.928 144.306C146.98 145.243 144.685 145.711 142.039 145.711C139.672 145.711 137.7 145.434 136.125 144.88C134.546 144.285 133.271 143.452 132.296 142.388C131.322 141.32 130.626 140.063 130.208 138.614C129.837 137.122 129.652 135.48 129.652 133.689V111.945H135.566V134.328C135.566 136.375 136.217 137.994 137.516 139.189C138.816 140.383 140.602 140.98 142.874 140.98C144.685 140.98 146.237 140.725 147.537 140.212C148.883 139.7 149.996 138.975 150.877 138.038C151.759 137.1 152.408 136.012 152.825 134.777C153.289 133.497 153.522 132.111 153.522 130.618V111.945H159.437V145.008ZM196.114 142.195C196.114 147.609 194.768 151.658 192.077 154.345C189.386 157.031 185.165 158.374 179.411 158.374C177.74 158.374 176.025 158.203 174.262 157.862C172.545 157.522 170.968 156.968 169.529 156.198C168.137 155.432 166.977 154.429 166.049 153.194C165.122 151.957 164.611 150.443 164.519 148.652H170.434C170.48 149.634 170.806 150.465 171.408 151.148C172.057 151.829 172.823 152.383 173.705 152.811C174.632 153.237 175.629 153.535 176.697 153.705C177.763 153.918 178.785 154.025 179.76 154.025C181.708 154.025 183.354 153.705 184.7 153.066C186.046 152.469 187.16 151.617 188.042 150.508C188.922 149.442 189.549 148.142 189.919 146.606C190.337 145.071 190.546 143.388 190.546 141.555V139.38C189.386 141.426 187.831 142.942 185.743 143.922C183.703 144.86 181.522 145.328 179.203 145.328C176.512 145.328 174.168 144.88 172.172 143.986C170.179 143.089 168.508 141.895 167.163 140.405C165.817 138.869 164.797 137.1 164.1 135.095C163.451 133.049 163.126 130.897 163.126 128.637C163.126 126.675 163.405 124.671 163.962 122.625C164.519 120.535 165.446 118.66 166.746 116.997C168.045 115.292 169.762 113.906 171.896 112.84C174.029 111.731 176.651 111.177 179.76 111.177C182.032 111.177 184.12 111.646 186.022 112.585C187.925 113.48 189.409 114.843 190.476 116.677L190.546 111.945H196.114V142.195ZM179.549 140.597C181.499 140.597 183.146 140.234 184.491 139.508C185.883 138.742 186.997 137.76 187.831 136.568C188.668 135.331 189.269 133.945 189.642 132.409C190.059 130.875 190.268 129.34 190.268 127.805C190.268 126.355 190.082 124.928 189.711 123.52C189.34 122.114 188.737 120.855 187.902 119.748C187.112 118.595 186.069 117.68 184.769 116.997C183.471 116.315 181.894 115.974 180.037 115.974C178.136 115.974 176.512 116.315 175.166 116.997C173.82 117.637 172.708 118.511 171.826 119.62C170.991 120.728 170.365 122.006 169.946 123.457C169.576 124.906 169.389 126.418 169.389 127.997C169.389 129.489 169.552 130.982 169.877 132.474C170.202 133.966 170.759 135.331 171.548 136.568C172.336 137.76 173.38 138.742 174.679 139.508C175.979 140.234 177.602 140.597 179.549 140.597ZM233.623 144.88C232.603 145.434 231.189 145.711 229.38 145.711C227.848 145.711 226.619 145.328 225.691 144.562C224.809 143.751 224.368 142.451 224.368 140.66C222.745 142.451 220.843 143.751 218.662 144.562C216.528 145.328 214.208 145.711 211.702 145.711C210.079 145.711 208.546 145.542 207.109 145.2C205.672 144.902 204.396 144.391 203.282 143.665C202.216 142.898 201.356 141.938 200.708 140.788C200.103 139.594 199.802 138.165 199.802 136.503C199.802 134.628 200.149 133.092 200.846 131.898C201.542 130.705 202.446 129.745 203.56 129.02C204.72 128.252 206.019 127.677 207.457 127.294C208.942 126.909 210.449 126.589 211.982 126.334C213.605 126.035 215.136 125.823 216.574 125.695C218.059 125.525 219.357 125.311 220.471 125.055C221.585 124.757 222.466 124.351 223.116 123.84C223.765 123.286 224.091 122.497 224.091 121.474C224.091 120.28 223.836 119.322 223.325 118.595C222.86 117.871 222.234 117.317 221.445 116.932C220.703 116.549 219.845 116.294 218.871 116.166C217.943 116.038 217.016 115.974 216.086 115.974C213.582 115.974 211.494 116.422 209.823 117.317C208.154 118.169 207.248 119.811 207.109 122.242H201.194C201.286 120.195 201.751 118.468 202.585 117.06C203.422 115.654 204.534 114.525 205.926 113.671C207.319 112.775 208.919 112.137 210.728 111.752C212.537 111.369 214.44 111.177 216.436 111.177C218.059 111.177 219.659 111.283 221.237 111.497C222.86 111.709 224.322 112.158 225.622 112.84C226.92 113.48 227.963 114.397 228.752 115.591C229.542 116.783 229.936 118.34 229.936 120.258V137.271C229.936 138.549 230.005 139.488 230.145 140.085C230.329 140.682 230.886 140.98 231.814 140.98C232.325 140.98 232.928 140.874 233.623 140.66V144.88ZM224.02 127.932C223.277 128.445 222.305 128.829 221.097 129.085C219.891 129.297 218.616 129.489 217.269 129.66C215.971 129.788 214.649 129.958 213.303 130.171C211.959 130.342 210.751 130.64 209.685 131.068C208.617 131.494 207.736 132.111 207.04 132.922C206.391 133.689 206.065 134.755 206.065 136.118C206.065 137.014 206.251 137.782 206.622 138.422C207.04 139.018 207.549 139.508 208.154 139.892C208.803 140.277 209.545 140.554 210.38 140.725C211.262 140.894 212.143 140.98 213.025 140.98C214.974 140.98 216.643 140.745 218.036 140.277C219.428 139.765 220.563 139.146 221.445 138.422C222.328 137.654 222.976 136.845 223.394 135.991C223.812 135.095 224.02 134.265 224.02 133.497V127.932Z" fill="black"/>
<path fill-rule="evenodd" clip-rule="evenodd" d="M232.949 79.7261C232.949 84.4953 230.192 88.2815 224.988 88.2815C219.782 88.2815 217.025 84.4953 217.025 79.7261C217.025 74.9261 219.782 71.1384 224.988 71.1384C230.192 71.1384 232.949 74.9261 232.949 79.7261ZM229.909 79.7261C229.909 75.8338 227.694 73.7107 224.988 73.7107C222.28 73.7107 220.066 75.8338 220.066 79.7261C220.066 83.5861 222.28 85.7107 224.988 85.7107C227.696 85.7107 229.909 83.5861 229.909 79.7261Z" fill="black"/>
<path fill-rule="evenodd" clip-rule="evenodd" d="M233.028 74.0862V71.5139L235.748 71.5154V69.22C235.748 66.5185 237.376 65.1046 240.334 65.1046C240.843 65.1046 241.574 65.2 242.086 65.36L242.168 67.9385L242.017 67.8893C241.563 67.7369 241.014 67.6754 240.552 67.6754C239.308 67.6754 238.632 68.0539 238.632 69.3754V71.5154L241.76 71.5139V74.0862H238.632V87.9077H235.748V74.0862H233.028Z" fill="black"/>
<path fill-rule="evenodd" clip-rule="evenodd" d="M98.7001 51.4723C98.7001 50.823 99.0032 50.3492 99.4586 50.0077C99.8647 49.703 100.326 49.6277 100.849 49.6277C101.937 49.6277 103.082 48.56 103.082 47.1123C103.082 45.8692 101.937 44.7938 100.648 44.7938C97.254 44.7938 95.694 50.2892 93.874 56.3415L83.9032 89.4954H77.257L69.9509 63.2107L62.574 89.4954H56.1724L44.6201 56.4323H51.1617L59.3032 83.4846L66.6801 56.4323H73.1509L80.6663 83.4846C80.6663 83.4846 85.7524 66.723 89.0663 56.6754C90.3647 52.7384 91.5817 48.3707 93.534 45.2061C95.1955 42.5092 97.394 40.6661 100.626 40.6661C104.286 40.6661 106.982 43.5138 106.982 47.1123C106.982 50.4446 104.172 53.3215 100.725 53.3215C99.6386 53.3215 98.7001 52.6138 98.7001 51.4723ZM184.702 79.0723C184.748 80.2646 185.049 81.2892 185.608 82.1415C186.163 82.9507 186.882 83.6123 187.763 84.123C188.691 84.5923 189.712 84.9338 190.826 85.1477C191.985 85.3615 193.168 85.4677 194.374 85.4677C195.302 85.4677 196.275 85.403 197.297 85.2753C198.319 85.1477 199.246 84.9123 200.08 84.5707C200.962 84.2307 201.68 83.74 202.239 83.1015C202.794 82.4184 203.072 81.5661 203.072 80.543C203.072 79.1369 202.492 78.0692 201.334 77.3461C200.174 76.62 198.712 76.0446 196.949 75.6184C195.232 75.1507 193.354 74.7446 191.312 74.4031C189.271 74.02 187.369 73.5077 185.608 72.8692C183.889 72.1861 182.452 71.2492 181.292 70.0554C180.132 68.8615 179.552 67.1984 179.552 65.0677C179.552 63.4046 179.946 61.9769 180.736 60.783C181.571 59.5877 182.614 58.6292 183.866 57.9046C185.166 57.1369 186.603 56.583 188.18 56.2415C189.805 55.8584 191.406 55.6661 192.982 55.6661C195.025 55.6661 196.903 55.8369 198.62 56.1784C200.335 56.4769 201.843 57.0307 203.143 57.8415C204.488 58.6092 205.556 59.6738 206.343 61.0384C207.132 62.36 207.596 64.023 207.736 66.0261H201.822C201.728 64.9615 201.426 64.0861 200.917 63.4046C200.406 62.68 199.756 62.1046 198.968 61.6769C198.179 61.2507 197.297 60.9538 196.323 60.783C195.396 60.5692 194.445 60.463 193.469 60.463C192.588 60.463 191.683 60.5261 190.756 60.6554C189.874 60.783 189.063 61.0169 188.322 61.3584C187.579 61.6554 186.976 62.083 186.511 62.6369C186.048 63.1492 185.816 63.8307 185.816 64.6846C185.816 65.6215 186.163 66.4107 186.859 67.0492C187.602 67.6461 188.529 68.1584 189.643 68.5846C190.756 68.9677 192.009 69.3092 193.4 69.6077C194.791 69.863 196.183 70.14 197.576 70.4384C199.06 70.7369 200.499 71.1 201.889 71.5261C203.328 71.9523 204.58 72.5277 205.648 73.2523C206.762 73.9338 207.643 74.8092 208.291 75.8738C208.988 76.9415 209.336 78.2615 209.336 79.84C209.336 81.843 208.872 83.5061 207.945 84.8277C207.063 86.1492 205.879 87.2154 204.396 88.0246C202.957 88.8338 201.311 89.3892 199.454 89.6861C197.645 90.0277 195.835 90.1984 194.028 90.1984C192.032 90.1984 190.129 90.0061 188.322 89.623C186.511 89.24 184.911 88.6215 183.52 87.7692C182.128 86.8738 181.014 85.723 180.179 84.3153C179.343 82.8661 178.879 81.1184 178.786 79.0723H184.702ZM110.317 56.4338H115.885V61.6769C118.482 57.6707 122.379 55.6661 127.714 55.6661C130.08 55.6661 132.052 55.9646 133.628 56.5615C135.206 57.1584 136.482 57.9907 137.457 59.0553C138.431 60.1215 139.103 61.4 139.474 62.8938C139.892 64.343 140.1 65.9615 140.1 67.7523V89.4954H134.186V67.1138C134.186 65.0677 133.536 63.4477 132.237 62.2538C130.939 61.06 129.152 60.463 126.879 60.463C125.069 60.463 123.492 60.7184 122.148 61.2307C120.848 61.7415 119.759 62.4661 118.877 63.4046C117.995 64.343 117.322 65.4507 116.859 66.7307C116.44 67.9661 116.232 69.3307 116.232 70.823V89.4954H110.317V56.4338ZM104.332 89.4954V56.4338L98.417 56.4338V89.4954H104.332ZM170.72 69.7984C170.628 68.52 170.303 67.3061 169.746 66.1538C169.236 65.003 168.517 64.023 167.589 63.2123C166.708 62.36 165.64 61.6984 164.388 61.2307C163.182 60.7184 161.836 60.463 160.351 60.463C158.822 60.463 157.429 60.7184 156.177 61.2307C154.969 61.6984 153.926 62.36 153.045 63.2123C152.163 64.0646 151.468 65.0677 150.957 66.2184C150.446 67.3261 150.145 68.52 150.052 69.7984H170.72ZM176.426 79.0077C175.637 82.7169 173.899 85.5092 171.208 87.3861C168.517 89.2615 165.131 90.1984 161.048 90.1984C158.171 90.1984 155.666 89.7707 153.532 88.92C151.445 88.0677 149.682 86.8738 148.243 85.34C146.806 83.8046 145.716 81.9707 144.974 79.84C144.277 77.7077 143.883 75.3846 143.789 72.8692C143.789 70.3538 144.208 68.0507 145.042 65.9615C145.879 63.8723 147.037 62.0615 148.522 60.5261C150.052 58.9923 151.839 57.7984 153.88 56.9461C155.968 56.0923 158.24 55.6661 160.7 55.6661C163.902 55.6661 166.545 56.2846 168.632 57.52C170.766 58.7153 172.46 60.2492 173.712 62.1261C175.012 64.0015 175.892 66.0477 176.357 68.2646C176.866 70.4815 177.076 72.5923 176.983 74.5954L150.052 74.5954C150.006 76.0446 150.192 77.4307 150.609 78.7523C151.028 80.0307 151.7 81.183 152.628 82.2046C153.556 83.1861 154.739 83.9753 156.177 84.5707C157.616 85.1692 159.308 85.4677 161.256 85.4677C163.762 85.4677 165.803 84.9338 167.38 83.8677C169.005 82.803 170.071 81.183 170.582 79.0077L176.426 79.0077Z" fill="black"/>
<path fill-rule="evenodd" clip-rule="evenodd" d="M305.7 85.8985C305.7 84.5292 306.811 83.4185 308.18 83.4185C309.549 83.4185 310.66 84.5292 310.66 85.8985C310.66 87.2677 309.549 88.3785 308.18 88.3785C306.811 88.3785 305.7 87.2677 305.7 85.8985Z" fill="#006FAB"/>
<path fill-rule="evenodd" clip-rule="evenodd" d="M347.849 60.0923C347.849 59.0893 348.662 58.2769 349.665 58.2769C350.666 58.2769 351.479 59.0893 351.479 60.0923C351.479 61.0939 350.666 61.9077 349.665 61.9077C348.662 61.9077 347.849 61.0939 347.849 60.0923Z" fill="#006FAB"/>
<path fill-rule="evenodd" clip-rule="evenodd" d="M321.851 99.4615C321.914 99.9 321.296 102.649 320.689 99.203C320.416 97.64 319.905 95.42 319.769 94.8661C317.512 94.7769 316.642 92.2938 316.186 90.503C315.929 89.4923 315.185 85.123 315.046 84.0907C314.999 83.7353 315.088 83.6215 315.208 83.6092C317.219 83.4107 319.003 83.2892 320.791 83.2799C321.016 83.2784 321.134 83.3553 321.157 83.4092C321.534 84.2892 322.331 87.603 322.663 88.9538C322.076 90.0338 321.071 90.8015 319.929 90.6292C318.96 90.483 318.791 89.4061 319.208 89.1307C319.5 88.9369 319.654 89.0338 319.825 89.1538C319.959 89.2461 320.251 89.3969 320.54 89.26C321.108 88.9907 321.052 88.3707 320.639 87.9307C320.232 87.4954 319.48 87.2353 318.654 87.6538C316.834 88.5754 316.902 92.3169 320.148 92.34C322.04 92.3538 322.826 90.8923 322.912 90.6307C323.109 92.3107 322.656 93.9553 321.249 94.6415C321.314 95.3384 321.645 98.2584 321.851 99.4615Z" fill="#84BF41"/>
<path fill-rule="evenodd" clip-rule="evenodd" d="M318.572 137.491C318.462 136.575 318.026 136.434 317.463 136.297C316.866 136.152 316.502 135.588 316.452 135.237C316.342 134.438 317.006 133.677 318.237 133.723C319.422 133.768 320.817 134.558 321.279 136.392C322.314 140.5 316.416 144.498 312.012 140.598C310.492 139.254 309.592 136.512 310.159 133.486C310.646 130.875 311.643 128.898 311.643 128.898C312.663 129.274 314.048 129.532 315.023 129.694C315.023 129.694 310.926 135.628 314.668 138.671C316.28 139.983 318.759 139.028 318.572 137.491Z" fill="#84BF41"/>
<path fill-rule="evenodd" clip-rule="evenodd" d="M333.063 32.8554C333.063 31.1739 334.426 29.8108 336.108 29.8108C337.789 29.8108 339.152 31.1739 339.152 32.8554C339.152 34.5369 337.789 35.9 336.108 35.9C334.426 35.9 333.063 34.5369 333.063 32.8554Z" fill="#84BF41"/>
<path fill-rule="evenodd" clip-rule="evenodd" d="M393.599 60.8923C393.599 59.7184 394.549 58.7677 395.723 58.7677C396.896 58.7677 397.848 59.7184 397.848 60.8923C397.848 62.0661 396.896 63.0169 395.723 63.0169C394.549 63.0169 393.599 62.0661 393.599 60.8923Z" fill="#84BF41"/>
<path fill-rule="evenodd" clip-rule="evenodd" d="M395.931 82.2446C395.931 81.5153 396.522 80.923 397.252 80.923C397.982 80.923 398.572 81.5153 398.572 82.2446C398.572 82.9738 397.982 83.5661 397.252 83.5661C396.522 83.5661 395.931 82.9738 395.931 82.2446Z" fill="#84BF41"/>
<path fill-rule="evenodd" clip-rule="evenodd" d="M382.872 104.694C382.872 103.692 383.685 102.878 384.688 102.878C385.689 102.878 386.502 103.692 386.502 104.694C386.502 105.695 385.689 106.509 384.688 106.509C383.685 106.509 382.872 105.695 382.872 104.694Z" fill="#84BF41"/>
<path fill-rule="evenodd" clip-rule="evenodd" d="M339.956 104.989C339.956 103.246 341.368 101.834 343.111 101.834C344.854 101.834 346.266 103.246 346.266 104.989C346.266 106.732 344.854 108.145 343.111 108.145C341.368 108.145 339.956 106.732 339.956 104.989Z" fill="#84BF41"/>
<path fill-rule="evenodd" clip-rule="evenodd" d="M357.359 113.145C357.359 112.143 358.171 111.329 359.173 111.329C360.176 111.329 360.988 112.143 360.988 113.145C360.988 114.146 360.176 114.96 359.173 114.96C358.171 114.96 357.359 114.146 357.359 113.145Z" fill="#006FAB"/>
<path fill-rule="evenodd" clip-rule="evenodd" d="M377.108 100.954C376.268 100.714 375.837 99.6431 376.174 98.4307C374.963 98.0769 374.28 97.1415 374.522 96.3C374.763 95.4584 375.837 95.0277 377.053 95.3692C377.408 94.1584 378.342 93.4769 379.182 93.7184C380.023 93.96 380.454 95.0323 380.114 96.2477C381.319 96.6046 381.997 97.5354 381.757 98.3754C381.516 99.2154 380.446 99.6461 379.236 99.3092C378.88 100.515 377.948 101.194 377.108 100.954Z" fill="#006FAB"/>
<path fill-rule="evenodd" clip-rule="evenodd" d="M354.605 61.4138C353.976 61.2338 353.652 60.4307 353.905 59.5231C352.997 59.2569 352.485 58.5554 352.666 57.9246C352.846 57.2938 353.652 56.9708 354.563 57.2277C354.829 56.32 355.529 55.8077 356.16 55.9892C356.791 56.1692 357.114 56.9738 356.859 57.8846C357.762 58.1523 358.271 58.8507 358.091 59.48C357.911 60.1092 357.109 60.4323 356.2 60.18C355.934 61.0846 355.234 61.5938 354.605 61.4138Z" fill="#84BF41"/>
<path fill-rule="evenodd" clip-rule="evenodd" d="M352.051 64.3584C352.051 63.74 352.552 63.2384 353.171 63.2384C353.788 63.2384 354.289 63.74 354.289 64.3584C354.289 64.9769 353.788 65.4785 353.171 65.4785C352.552 65.4785 352.051 64.9769 352.051 64.3584Z" fill="#BA2229"/>
<path fill-rule="evenodd" clip-rule="evenodd" d="M329.836 128.637C329.836 126.189 331.82 124.206 334.266 124.206C336.714 124.206 338.699 126.189 338.699 128.637C338.699 131.085 336.714 133.068 334.266 133.068C331.82 133.068 329.836 131.085 329.836 128.637Z" fill="#BA2229"/>
<path fill-rule="evenodd" clip-rule="evenodd" d="M352.029 83.7123C352.029 82.4815 353.026 81.4846 354.257 81.4846C355.488 81.4846 356.485 82.4815 356.485 83.7123C356.485 84.943 355.488 85.9399 354.257 85.9399C353.026 85.9399 352.029 84.943 352.029 83.7123Z" fill="#BA2229"/>
<path fill-rule="evenodd" clip-rule="evenodd" d="M336.803 98.4015C336.803 97.4 337.616 96.5861 338.619 96.5861C339.62 96.5861 340.432 97.4 340.432 98.4015C340.432 99.4031 339.62 100.217 338.619 100.217C337.616 100.217 336.803 99.4031 336.803 98.4015Z" fill="#BA2229"/>
<path fill-rule="evenodd" clip-rule="evenodd" d="M370.602 54.0046C370.602 52.4969 371.823 51.2738 373.331 51.2738C374.84 51.2738 376.062 52.4969 376.062 54.0046C376.062 55.5123 374.84 56.7354 373.331 56.7354C371.823 56.7354 370.602 55.5123 370.602 54.0046Z" fill="#BA2229"/>
<path fill-rule="evenodd" clip-rule="evenodd" d="M387.909 50.0031C387.909 48.2138 389.36 46.7631 391.149 46.7631C392.939 46.7631 394.388 48.2138 394.388 50.0031C394.388 51.7923 392.939 53.243 391.149 53.243C389.36 53.243 387.909 51.7923 387.909 50.0031Z" fill="#006FAB"/>
<path fill-rule="evenodd" clip-rule="evenodd" d="M322.862 108.354C324.176 104.865 325.582 101.086 326.269 99.52C324.229 97.4646 324.951 93.9154 325.723 92.1308C326.223 90.9785 326.991 89.9785 327.734 89.0539C328.119 88.5769 328.456 88.0185 329.18 88.44C331.276 89.6662 332.817 90.52 334.562 91.7723C334.826 91.9646 335.203 92.3677 335.091 92.8646C334.796 94.1662 334.502 95.2015 334.108 96.1923C333.365 98.0615 331.42 100.412 328.511 100.531C327.902 101.705 326.36 104.705 324.783 107.782C327.636 104.998 330.348 103.189 333.651 104.608C338.105 106.52 337.411 112.265 333.391 112.866C331.916 113.086 330.965 112.248 330.611 111.422C330.231 110.529 330.563 109.954 331.189 109.895C331.426 109.872 331.526 109.934 331.594 109.969C331.669 110.008 331.829 110.238 331.88 110.312C332.157 110.706 332.571 111.215 333.559 110.978C335.254 110.572 335.212 107.791 333.382 106.794C330.609 105.285 328.04 107.74 325.579 109.803C324.38 110.809 322.768 112.874 321.693 114.8C320.334 117.231 319.439 119.514 319.439 119.514C318.168 119.245 317.177 118.858 316.465 118.355L319.199 114.209C320.792 111.889 321.449 109.42 319.659 107.725C318.443 106.574 316.602 107.375 316.686 108.455C316.74 109.146 317.119 109.286 317.471 109.394C317.94 109.538 318.188 109.823 318.228 110.086C318.345 110.84 317.709 111.375 316.791 111.292C315.903 111.212 314.889 110.565 314.616 109.174C314.002 106.054 318.882 103.203 321.791 106.523C322.317 107.123 322.662 107.731 322.862 108.354Z" fill="#84BF41"/>
<path fill-rule="evenodd" clip-rule="evenodd" d="M317.829 39.4384C317.223 40.3215 316.583 41.6984 316.169 42.6369C317.596 42.6923 317.277 44.0892 317.012 44.9138C316.226 47.3769 315.788 50.2677 316.12 53.1277C315.526 52.96 314.937 52.7769 314.372 52.5631C313.905 52.3861 313.459 52.1831 313.025 51.9631C312.372 49.62 312.362 46.9754 312.856 44.9754C313.086 44.0431 313.788 43.2969 314.923 42.8415C315.339 41.9323 315.982 40.5892 316.588 39.7384C316.943 39.6292 317.456 39.4969 317.829 39.4384ZM357.656 51.7877C357.656 50.8338 358.429 50.0584 359.385 50.0584C360.34 50.0584 361.114 50.8338 361.114 51.7877C361.114 52.7431 360.34 53.5169 359.385 53.5169C358.429 53.5169 357.656 52.7431 357.656 51.7877ZM361.948 56.8954C361.948 56.0784 362.609 55.4169 363.426 55.4169C364.243 55.4169 364.905 56.0784 364.905 56.8954C364.905 57.7107 364.243 58.3723 363.426 58.3723C362.609 58.3723 361.948 57.7107 361.948 56.8954ZM362.609 62.6154C362.609 62.0184 363.092 61.5369 363.689 61.5369C364.285 61.5369 364.768 62.0184 364.768 62.6154C364.768 63.2108 364.285 63.6938 363.689 63.6938C363.092 63.6938 362.609 63.2108 362.609 62.6154ZM322.317 40.38C322.317 42.0508 320.129 43.4031 321.799 43.4031C323.468 43.4031 324.822 42.0508 324.822 40.38C324.822 38.7108 323.468 37.3584 321.799 37.3584C320.129 37.3584 322.317 38.7108 322.317 40.38ZM343.159 72.4584C341.64 71.6077 341.909 69.5969 342.223 68.2077C342.443 67.4338 343.445 64.0492 343.711 63.2907C343.802 63.0307 343.914 63.1107 344.002 63.1415C344.636 63.3692 346.672 64.2231 347.892 64.8461C348.026 64.9154 348.112 65.0138 348.069 65.2815C347.934 66.1169 347.502 68.2123 347.211 69.42C346.874 69.7292 346.456 69.9031 346.002 69.8354C345.405 69.7446 345.325 69.1138 345.557 68.9107C345.709 68.7784 345.826 68.8554 345.936 68.9246C346.152 69.06 346.303 69.0338 346.405 68.9769C346.702 68.8123 346.692 68.4431 346.439 68.1723C346.188 67.9046 345.725 67.7446 345.216 68.0015C344.625 68.3015 344.357 69.0938 344.529 69.7723C344.683 70.38 345.191 70.8969 346.136 70.8877C346.357 70.8861 346.579 70.8369 346.796 70.7477C346.349 71.8077 345.577 72.8446 344.252 72.8215C343.999 73.5538 342.797 77.4554 342.603 78.2538C344.582 74.1369 348.194 71.0692 354.826 67.4077C369.84 59.1184 351.848 45.3938 344.479 60.7123C343.905 59.2246 342.846 56.7169 341.372 54.1692C339.094 50.2292 336.426 46.7323 331.289 45.48C321.371 43.0631 317.825 49.5323 321.362 54.6338C322.914 56.8754 326.754 57.14 327.503 54.5015C327.923 53.0246 327.265 52.5061 326.668 52.0784C326.354 51.8523 326.109 51.4877 326.163 51.1784C326.285 50.46 326.912 50.0292 328.08 50.48C329.139 50.8892 329.817 52.0415 329.817 54.0523C329.817 63.2246 311.992 62.4707 309.217 50.1477C307.985 44.68 309.656 39.08 315.645 36.44C323.682 32.8984 337.449 37.8415 343.431 47.4231C343.486 46.7384 343.192 42.9031 343.403 40.6461C343.743 37.0308 344.677 31.4384 350.662 29.1569C359.262 25.8754 364.665 35.0261 361.037 40.1784C359.456 42.4261 357.196 42.74 355.628 42.2046C353.936 41.6261 353.502 40.4215 354.237 39.4861C354.705 38.8923 355.096 38.9554 355.682 39.0292C356.62 39.1477 357.842 39.2615 358.608 37.5954C359.939 34.7 356.334 31.5138 352.757 32.7754C347.345 34.6846 346.563 40.5323 347.657 46.4477L348.263 49.2446C350.946 46.7523 355.866 46.18 359.572 47.8092C362.288 49.0015 365.622 48.7215 367.114 46.1784C368.245 44.2554 366.652 42.1031 365.274 42.5384C364.394 42.8154 364.339 43.3015 364.286 43.8354C364.24 44.2892 364.236 44.7107 363.639 44.9769C362.628 45.4292 361.791 44.7431 361.622 43.5231C361.46 42.3477 361.997 40.8369 363.722 40.0631C364.399 39.76 365.069 39.6738 365.772 39.7708C365.799 39.2215 365.717 37.6677 365.685 37.0415C364.229 36.8046 363.9 35.3277 363.748 34.1323C363.662 33.4569 363.709 32.76 363.792 32.1477C363.82 31.9461 363.862 31.9261 363.94 31.9292C365.248 31.9569 366.211 32.0354 367.402 32.1538C367.614 32.1738 367.779 32.1646 367.845 32.4754C367.922 32.8384 368.011 33.3169 368.083 33.8784C368.226 34.9938 368.065 36.5308 366.66 37.0138C366.637 37.6123 366.542 39.0969 366.451 39.9107C367.177 40.1215 367.869 40.5154 368.469 41.0431C368.902 40.54 369.891 39.3169 370.242 38.9446C369.502 37.9892 369.959 36.8231 370.536 35.8954C370.84 36.6477 371.294 37.2092 371.88 37.4538C373.939 38.3092 374.959 35.9108 374.037 34.8554C373.619 34.3769 373.072 34.3492 372.702 34.52C372.326 34.6954 372.22 35.0738 372.386 35.3461C372.454 35.4554 372.676 35.5446 372.802 35.5061C373.04 35.4338 373.168 35.4538 373.305 35.6523C373.499 35.9354 373.116 36.5784 372.46 36.4215C371.772 36.2569 371.423 35.6431 371.257 34.9184C371.937 34.1015 373.485 32.3169 373.866 31.9C373.983 31.7723 374.079 31.7738 374.134 31.8277C375.077 32.7492 375.886 33.5908 376.64 34.48C376.736 34.5923 376.742 34.6831 376.693 34.7692C376.271 35.4954 374.679 37.6723 374.32 38.1108C373.657 38.9261 372.331 40.1938 370.974 39.5892C370.694 39.8754 369.425 40.98 368.922 41.4861C369.489 42.1061 369.937 42.8554 370.196 43.68C370.823 43.5369 371.653 43.3661 371.971 43.2646C371.926 41.7923 373.106 41.3646 374.103 40.92C374.709 40.6508 375.368 40.4769 375.809 40.3292C376.031 40.2554 376.088 40.3461 376.129 40.4123C376.72 41.3646 377.225 43.1492 377.412 44.0338C377.434 44.1338 377.402 44.1692 377.329 44.2077C376.72 44.5369 376.223 44.7831 375.686 44.96C374.62 45.3138 372.928 45.5031 372.185 44.2169C371.914 44.2615 371.045 44.3569 370.371 44.4138C370.589 45.7323 370.32 47.1908 369.314 48.5877C367.914 50.5323 366.188 51.2938 364.136 51.4384C367.886 55.94 369.032 62.8061 364.966 67.3108C356.172 75.3877 344.505 76.9723 347.448 87.2369C349.928 94.9354 354.233 94.9184 353.165 97.4769C352.656 98.7 351.039 98.4231 349.04 97.1092C330.888 86.6 320.231 76.7554 314.092 67.4231C317.317 68.2738 320.819 68.7169 323.834 68.5831C326.365 72.8784 337 82.8584 338.591 83.6661C339.002 82.4584 339.743 80.1954 339.925 78.9277C340.399 75.6246 340.586 71.1015 336.845 69.4015C335.48 68.7815 333.709 69.1169 332.768 70.1C332.185 70.7077 331.785 71.8092 332.157 72.8184C332.605 74.0369 333.585 74.2815 334.396 74.2123C334.605 74.1938 334.942 74.22 335.022 74.4384C335.091 74.6323 334.951 75.1738 334.148 75.2538C333.292 75.3384 331.923 74.9815 331.168 73.8092C330.103 72.1569 330.477 70.4308 331.363 69.1754C332.649 67.3538 335.411 66.5661 338.237 68.4431C340.496 69.9415 342.445 73.2492 341.836 77.9615C342.166 76.9246 343.006 73.1261 343.159 72.4584Z" fill="#006FAB"/>
<path fill-rule="evenodd" clip-rule="evenodd" d="M351.232 103.888C351.232 103.197 351.792 102.638 352.482 102.638C353.171 102.638 353.731 103.197 353.731 103.888C353.731 104.578 353.171 105.137 352.482 105.137C351.792 105.137 351.232 104.578 351.232 103.888Z" fill="#006FAB"/>
<path fill-rule="evenodd" clip-rule="evenodd" d="M356.043 90.7246C356.043 89.9246 356.692 89.2754 357.492 89.2754C358.294 89.2754 358.943 89.9246 358.943 90.7246C358.943 91.5246 358.294 92.1738 357.492 92.1738C356.692 92.1738 356.043 91.5246 356.043 90.7246Z" fill="#84BF41"/>
<path fill-rule="evenodd" clip-rule="evenodd" d="M373.257 72.5046C373.251 73.1831 372.843 73.86 372.217 74.0569C371.637 74.24 371.172 73.9969 370.948 73.6692C370.749 73.38 370.816 73.1369 370.911 73.0323C371.037 72.8892 371.273 72.8908 371.417 73.0154C371.594 73.1677 371.797 73.2031 371.974 73.0923C372.199 72.9508 372.44 72.3169 371.683 72.0923C370.882 71.8539 370.274 72.4769 369.683 73.3492C369.28 73.9462 368.859 75.0031 368.859 75.0031C369.072 75.3692 369.226 75.7708 369.272 76.2092L369.286 76.5539C369.457 76.4969 369.637 76.4569 369.823 76.4385C371.228 76.2908 372.486 77.3092 372.634 78.7139C372.78 80.1015 371.786 81.3462 370.408 81.5185C370.513 81.7554 370.583 82.0123 370.611 82.2831C370.759 83.6877 369.74 84.9462 368.336 85.0939C367.951 85.1339 367.577 85.0877 367.233 84.9677C367.063 86.0908 366.154 87.0016 364.972 87.1262C363.568 87.2739 362.309 86.2539 362.162 84.8508C362.111 84.36 362.2 83.8892 362.4 83.4754C361.574 83.1231 360.959 82.3462 360.859 81.3892C360.754 80.3923 361.237 79.4677 362.031 78.9631C361.409 78.5569 360.969 77.8862 360.886 77.0908C360.739 75.6862 361.757 74.4277 363.162 74.28C363.791 74.2139 364.393 74.3815 364.876 74.7154C365.28 74.2892 365.833 73.9985 366.463 73.9323C366.959 73.88 367.437 73.9739 367.854 74.1785C367.854 74.1785 368.012 73.8508 368.072 73.6277C368.3 72.7954 368.417 71.9062 367.719 71.4462C367.222 71.1169 366.793 71.4323 366.779 71.7616C366.771 71.9523 366.865 72.1892 367.117 72.2369C367.354 72.28 367.531 72.42 367.488 72.6723C367.46 72.8354 367.36 72.9677 367.026 73.0092C366.633 73.06 366.063 72.7477 365.885 72.2385C365.432 70.9585 367.071 69.3354 368.611 70.6462C368.934 70.92 369.179 71.3277 369.323 71.8092C370.083 71.0323 371.039 70.7892 371.792 70.8939C372.805 71.0339 373.263 71.7708 373.257 72.5046Z" fill="#84BF41"/>
<path fill-rule="evenodd" clip-rule="evenodd" d="M312.025 73.2677C312.339 73.4246 312.56 73.7662 312.509 74.1015C312.463 74.4123 312.245 74.5723 312.042 74.6031C311.865 74.6292 311.766 74.5431 311.739 74.4754C311.702 74.3846 311.754 74.2754 311.845 74.2369C311.956 74.1892 312.019 74.1031 312.008 73.9954C311.992 73.86 311.752 73.6046 311.477 73.9046C311.186 74.2231 311.337 74.6462 311.608 75.1169C311.794 75.4385 312.188 75.8738 312.188 75.8738C312.406 75.8569 312.628 75.8769 312.842 75.9538L313.005 76.0262C313.017 75.9338 313.039 75.8415 313.072 75.7508C313.322 75.0662 314.079 74.7123 314.765 74.9615C315.44 75.2077 315.794 75.9508 315.562 76.6292C315.694 76.6339 315.829 76.66 315.962 76.7077C316.648 76.9569 317 77.7139 316.751 78.4C316.683 78.5877 316.576 78.7492 316.443 78.8815C316.926 79.2154 317.143 79.8431 316.932 80.42C316.683 81.1046 315.926 81.4569 315.242 81.2077C315.003 81.1215 314.803 80.9723 314.657 80.7877C314.308 81.0908 313.808 81.2 313.342 81.0292C312.854 80.8523 312.536 80.4185 312.482 79.9369C312.152 80.1338 311.74 80.1862 311.352 80.0446C310.668 79.7954 310.316 79.0385 310.565 78.3523C310.676 78.0462 310.889 77.8046 311.154 77.6554C311.048 77.3723 311.039 77.0508 311.151 76.7431C311.239 76.5015 311.389 76.3 311.579 76.1523C311.579 76.1523 311.463 76.0046 311.372 75.9262C311.039 75.6339 310.652 75.3769 310.28 75.5969C310.016 75.7538 310.065 76.0246 310.214 76.1046C310.302 76.1523 310.432 76.1615 310.511 76.0554C310.585 75.9554 310.689 75.9046 310.797 75.9815C310.866 76.0308 310.905 76.1077 310.849 76.2723C310.783 76.4662 310.509 76.66 310.234 76.6277C309.537 76.5477 309.156 75.4215 310.112 75.0015C310.312 74.9154 310.556 74.8938 310.812 74.9354C310.623 74.4062 310.726 73.9077 310.946 73.5831C311.24 73.1446 311.686 73.0985 312.025 73.2677Z" fill="#BA2229"/>
<path fill-rule="evenodd" clip-rule="evenodd" d="M333.556 62.7308C334.452 62.7308 335.36 62.8123 336.228 62.9816C337.24 63.1785 338.316 62.9831 338.632 62.1262C338.851 61.5308 338.271 61.0585 337.979 61.1939C337.771 61.2908 337.78 61.4108 337.797 61.5477C337.782 61.8462 337.736 61.92 337.634 61.9862C337.297 62.2093 336.951 61.96 336.822 61.5739C336.694 61.1923 336.779 60.68 337.285 60.3646C337.983 59.9293 339.166 60.2016 339.679 61.0754C339.959 61.5508 339.957 62.1769 339.568 62.8508C339.314 63.2923 338.968 63.5769 338.359 63.7585C340.582 64.4969 341.712 65.8416 341.491 67.0308C341.359 67.74 340.82 68.3216 340.043 68.2831C339.583 68.2616 339.043 67.9062 338.982 67.2831C338.939 66.8385 339.199 66.5954 339.356 66.5293C339.579 66.4354 339.734 66.4739 339.779 66.6139C339.826 66.7646 339.483 66.9246 339.612 67.1846C339.799 67.5569 340.446 67.4677 340.496 66.9846C340.656 65.3985 334.789 63.0323 329.986 65.0185C325.219 67.2677 319.119 67.3908 309.974 63.44C310.823 64.8369 311.577 67.5477 310.889 69.6477C309.205 74.7893 303.666 75.6277 300.219 73.5939L300.22 104.694C301.591 100.246 304.336 96.6739 307.759 95.42C311.154 94.1769 313.503 94.7339 314.988 95.7646C318.534 98.2292 317.163 104.638 313.46 104.638C312.054 104.638 310.251 103.823 308.845 102.12C308.057 103.857 307.645 106.266 307.709 108.211C307.885 113.551 310.808 119.162 316.256 120.852C322.206 122.7 328.039 120.529 331.505 115.963C333.097 113.866 335.585 116.062 334.643 117.678C331.408 123.234 324.491 128.052 316.872 127.309C307.699 126.412 302.299 121.726 300.22 116.263V144.155C300.22 178.311 300.319 177.311 322.977 177.311V186.745H255.082V177.311C277.399 177.311 277.392 178.651 277.392 144.155V58.3C277.392 25.4969 278.416 20.4246 255.082 20.4246V12.3077H360.816C400.222 12.3077 416.592 43.7554 416.592 77.1C416.592 100.226 406.763 122.031 388.36 131.586C379.208 136.34 367.392 138.412 356.066 135.403C349.262 133.595 342.789 129.751 340.034 125.466C337.534 121.578 337.562 116.449 340.836 113.435C345.132 109.48 351.169 110.243 353.796 113.592C356.719 117.323 357.082 123.775 350.565 126.88C351.896 127.766 356.306 129.672 360.245 129.548C360.648 129.535 361.139 129.495 361.559 129.295C361.963 129.105 362.245 128.705 362.245 128.378C362.245 126.414 362.132 125.015 362.18 123.646C362.226 122.275 362.432 120.935 363.068 119.086C363.596 117.594 365.628 113.645 367.314 112.158C366.982 109.988 366.779 107.774 366.9 105.254C365.46 106.842 363.126 109.685 359.825 108.532C356.206 107.271 356.217 102.474 359.636 101.715C360.905 101.432 361.811 102.114 362.18 102.834C362.568 103.592 362.357 104.337 361.552 104.546C361.302 104.611 360.894 104.469 360.656 104.137C360.483 103.897 360.292 103.709 359.811 103.86C359.128 104.075 358.934 105.614 360.2 106.192C362.014 107.022 363.754 105.511 365.031 103.792C365.729 102.849 367.151 100.828 367.632 99.5046C368.165 98.0416 368.74 96.3123 367.043 94.4816C365.72 93.0554 363.754 94.0816 363.797 95.0708C363.828 95.7677 364.163 95.9 364.554 96.0354C364.911 96.1585 365.417 96.3092 365.557 97.0554C365.785 98.2785 364.728 98.9123 363.542 98.7631C362.371 98.6169 361.079 97.7139 360.788 95.9016C360.129 91.8169 366.506 88.4862 370.031 92.8016C372.034 95.2539 371.763 97.7262 370.683 100.512C372.366 100.945 373.832 101.342 375.042 101.958C378.385 103.752 380.769 105.212 380.582 108.529C380.337 112.842 375.223 114.169 373.414 110.838C372.745 109.608 373.18 108.482 373.808 107.895C374.477 107.268 375.257 107.312 375.562 107.949C375.671 108.178 375.688 108.525 375.423 108.895C375.212 109.191 374.982 109.575 375.382 110.182C376.017 111.142 378.023 110.6 378.279 108.906C378.652 106.42 376.574 104.866 373.891 104.018C372.874 103.683 372.136 103.449 371.677 103.317C371.126 107.685 371.334 110.343 371.866 114.891C372.362 119.115 373.909 121.348 376.343 121.494C378.285 121.609 379.056 119.589 378.362 118.883C377.872 118.386 377.471 118.486 377.089 118.648C376.991 118.689 375.971 119.111 375.52 118.442C374.942 117.582 375.1 116.652 376.082 115.968C377.048 115.294 378.612 115.1 380.043 116.252C383.265 118.848 380.754 125.591 375.248 124.742C371.134 124.108 369.916 120.818 368.679 116.603C367.8 117.534 366.585 119.605 366.362 120.234C365.799 121.872 365.605 123.22 365.552 124.592C365.499 125.966 365.611 129.474 365.605 129.543C369.869 129.265 373.368 128.355 378.563 126.269C387.963 122.491 393.179 115.68 396.365 107.58C391.452 106.857 385.471 110.326 386.125 113.094C386.291 113.795 386.971 113.663 387.065 113.429C387.108 113.322 387.182 113.14 386.872 112.954C386.677 112.837 386.612 112.5 386.66 112.285C386.84 111.462 387.686 111.474 388.209 111.775C388.779 112.102 389.229 112.832 388.949 113.771C388.408 115.58 384.885 116.075 384.288 113.328C383.603 110.165 386.585 106.709 392.832 105.862C388.722 104.595 388.217 100.869 389.666 99.2923C391.482 97.3185 395.697 97.9292 398.137 101.651C400.105 94.1339 401.102 85.0308 401.22 76.7492C398.849 76.2016 394.836 76.6016 392.745 77C388.652 77.7785 383.979 79.3985 382.708 82.4323C380.999 86.5169 385.192 89.9569 387.745 88.2662C389.308 87.2323 389.102 86.1477 388.936 85.18C388.689 83.7446 388.994 83.1446 389.534 82.72C391.194 81.4169 393.152 82.2462 394.152 84.4785C395.122 86.6416 394.926 89.7662 391.986 92.0108C385.922 96.6416 373.319 89.2262 378.159 79.6816C379.134 77.7585 380.64 75.9539 382.619 74.3816C378.088 73.7585 374.468 71.9723 373.092 69.1C369.756 62.1277 377.882 58.1585 381.702 61.1585C383.437 62.5216 383.634 64.4062 383.106 65.7216C382.571 67.0554 381.086 67.6523 380.134 66.8462C379.792 66.5569 379.646 66.2754 379.594 65.9923C379.534 65.6754 379.608 65.3477 379.645 65.1954C379.749 64.757 379.788 64.2769 379.074 63.84C378.06 63.2185 375.905 64.6662 376.565 66.9062C377.519 70.1385 381.577 71.2077 386.865 71.1185C387.556 68.9169 388.646 65.8954 388.112 61.2246C387.848 58.8969 386.788 55.4308 384.039 54.8108C382.585 54.4816 381.826 56.0493 382.44 56.6954C383.236 57.5339 383.62 56.28 384.486 56.9677C385.931 58.1154 383.294 60.4554 381.179 58.6308C378.545 56.36 380.882 50.9539 385.783 52.3508C389.84 53.5062 393.474 60.3893 390.348 70.2585C393.411 69.1216 398.885 68.5385 401.22 68.5631C400.437 55.5939 396.928 46.4123 391.648 39.7539C391.388 39.4262 390.345 38.3492 389.996 38.0954C387.814 36.5185 383.994 35.5554 381.776 37.9816C380.271 39.6293 381.382 42.0646 382.82 41.9262C383.737 41.8385 383.951 41.34 384.051 40.8585C384.196 40.1693 384.706 39.937 384.926 39.88C385.999 39.6077 386.685 40.4939 386.597 41.7216C386.511 42.9046 385.671 44.2723 383.823 44.6693C382.24 45.0108 380.591 44.3308 379.525 43.0769C377.802 41.0508 377.436 37.6108 380.125 35.1693C381.716 33.7246 383.363 33.2646 385.156 33.3908C378.128 28.0539 369.736 25.7539 361.962 25.7539H312.936C313.048 25.9893 313.146 26.2493 313.229 26.5323C313.552 27.6277 313.365 28.8708 312.785 30.1431C316.643 28.4031 320.622 28.0323 322.145 30.2169C323.763 32.5385 321.126 34.9046 319.346 33.9062C318.702 33.5446 318.525 32.9816 318.606 32.5262C318.696 32.0293 319.006 31.8662 319.283 32.0108C319.391 32.0662 319.459 32.2016 319.471 32.3739C319.486 32.6123 319.505 32.9416 319.982 33.1108C320.809 33.4031 321.557 32.2185 320.919 31.3631C319.868 29.9539 313.728 31.7185 308.689 35.9893C305.883 38.3662 303.657 41.48 303.088 45.1831C302.594 48.3877 303.766 52.4446 306.349 55.2631C313.846 63.44 329.189 66.5662 335.632 57.2277C337.466 54.5723 335.485 53.0277 333.874 53.5677C332.946 53.8769 332.857 54.5046 332.846 54.9662C332.839 55.2723 332.696 55.5662 332.488 55.6693C331.946 55.94 331.351 55.6139 331.196 54.6492C331.054 53.7693 331.494 52.7893 332.743 52.1C336.285 50.1431 340.699 54.4893 337.319 58.7939C336.163 60.2646 334.926 61.6 333.556 62.7308ZM300.219 38.8631C302.745 36.1816 306.185 33.9539 308.716 32.1862C310.517 30.9277 311.666 28.7831 310.789 26.9493C310.182 25.6785 308.668 25.9123 308.428 26.5877C308.286 26.9893 308.48 27.2462 308.72 27.4262C308.997 27.6339 309.34 28.0846 309.128 28.6016C308.86 29.2508 308.159 29.44 307.382 29.0569C306.614 28.6816 305.942 27.7569 306.169 26.4462C306.211 26.2046 306.286 25.9739 306.389 25.7539H300.22L300.219 38.8631ZM300.219 56.7846V63.9969C301.499 63.7046 302.711 64.2108 302.899 65.66C302.994 66.3862 302.76 66.9292 302.005 67.4554C301.529 67.7877 301.192 68.2123 301.425 69.16C301.736 70.4231 304.772 70.8816 305.991 68.4462C307.748 64.9323 305.599 60.7446 302.159 58.2523C301.499 57.7739 300.851 57.2846 300.219 56.7846Z" fill="#BA2229"/>
<path fill-rule="evenodd" clip-rule="evenodd" d="M51.5278 178.712H52.9417C52.9725 177.769 53.2725 177.088 53.8401 176.669C54.4094 176.235 55.1432 176.017 56.0401 176.017C56.4601 176.017 56.8478 176.055 57.2078 176.129C57.5817 176.189 57.9048 176.309 58.174 176.489C58.4571 176.669 58.6755 176.915 58.8248 177.229C58.9894 177.529 59.0709 177.918 59.0709 178.397C59.0709 178.712 59.0263 178.966 58.9371 179.16C58.8617 179.355 58.7494 179.514 58.6001 179.632C58.4509 179.737 58.2632 179.812 58.0386 179.857C57.814 179.902 57.5525 179.94 57.2525 179.969C56.4894 180.058 55.734 180.155 54.9863 180.262C54.2525 180.351 53.5863 180.515 52.9878 180.754C52.4032 180.994 51.9325 181.346 51.574 181.811C51.214 182.26 51.034 182.888 51.034 183.695C51.034 184.28 51.1309 184.788 51.3263 185.222C51.5355 185.642 51.8125 185.992 52.1571 186.277C52.5155 186.548 52.9278 186.742 53.3909 186.862C53.8709 186.995 54.3801 187.063 54.9186 187.063C55.4863 187.063 55.974 187.011 56.3771 186.906C56.7971 186.802 57.1632 186.652 57.4771 186.457C57.8063 186.263 58.0986 186.023 58.3525 185.738C58.6232 185.44 58.8832 185.102 59.1386 184.728H59.1832C59.1832 185.028 59.1986 185.305 59.2278 185.558C59.274 185.798 59.3555 186.008 59.4755 186.188C59.5955 186.368 59.7601 186.509 59.9694 186.614C60.194 186.703 60.4863 186.749 60.8448 186.749C61.0401 186.749 61.1971 186.742 61.3171 186.726C61.4509 186.711 61.6001 186.689 61.7663 186.658V185.471C61.6309 185.529 61.4817 185.558 61.3171 185.558C60.7632 185.558 60.4863 185.275 60.4863 184.706V178.554C60.4863 177.777 60.3586 177.148 60.1032 176.669C59.8494 176.175 59.5201 175.794 59.1171 175.525C58.7125 175.254 58.2555 175.075 57.7463 174.985C57.2371 174.882 56.7294 174.829 56.2201 174.829C55.5463 174.829 54.9325 174.902 54.3801 175.052C53.8248 175.203 53.3386 175.434 52.9201 175.748C52.5155 176.062 52.194 176.466 51.9555 176.96C51.7155 177.455 51.574 178.038 51.5278 178.712ZM59.0709 180.417V182.26C59.0709 182.828 58.9586 183.337 58.7355 183.786C58.5248 184.235 58.234 184.617 57.8586 184.931C57.5001 185.245 57.0725 185.485 56.5786 185.649C56.0848 185.814 55.5694 185.895 55.0309 185.895C54.7017 185.895 54.3801 185.843 54.0648 185.738C53.7509 185.634 53.474 185.485 53.234 185.289C52.9955 185.08 52.8001 184.84 52.6509 184.572C52.5155 184.286 52.4478 183.965 52.4478 183.606C52.4478 183.038 52.614 182.603 52.9417 182.303C53.2863 181.989 53.7201 181.751 54.2448 181.585C54.7678 181.422 55.3448 181.302 55.974 181.226C56.6171 181.135 57.2371 181.04 57.8371 180.934C58.0309 180.905 58.2555 180.852 58.5109 180.777C58.7648 180.703 58.9371 180.583 59.0263 180.417H59.0709Z" fill="black"/>
<path fill-rule="evenodd" clip-rule="evenodd" d="M67.9402 175.165L71.6663 186.748H73.2156L76.0448 177.005H76.0894L78.9402 186.748H80.4894L84.2171 175.165H82.7125L79.7494 185.086H79.7048L76.8756 175.165H75.2817L72.4525 185.086H72.4079L69.4448 175.165H67.9402Z" fill="black"/>
<path fill-rule="evenodd" clip-rule="evenodd" d="M90.4125 176.017C91.0848 176.017 91.6771 176.16 92.1863 176.443C92.694 176.729 93.114 177.103 93.4432 177.568C93.7879 178.031 94.0417 178.562 94.2063 179.16C94.3863 179.745 94.4756 180.343 94.4756 180.957C94.4756 181.569 94.3863 182.177 94.2063 182.775C94.0417 183.358 93.7879 183.883 93.4432 184.346C93.114 184.811 92.694 185.185 92.1863 185.471C91.6771 185.754 91.0848 185.895 90.4125 185.895C89.7386 185.895 89.1479 185.754 88.6386 185.471C88.1294 185.185 87.7033 184.811 87.3586 184.346C87.0294 183.883 86.7756 183.358 86.5956 182.775C86.4309 182.177 86.3479 181.569 86.3479 180.957C86.3479 180.343 86.4309 179.745 86.5956 179.16C86.7756 178.562 87.0294 178.031 87.3586 177.568C87.7033 177.103 88.1294 176.729 88.6386 176.443C89.1479 176.16 89.7386 176.017 90.4125 176.017ZM90.4125 174.829C89.5294 174.829 88.7433 174.992 88.0556 175.322C87.3817 175.652 86.8125 176.092 86.3479 176.646C85.8848 177.202 85.5325 177.851 85.294 178.6C85.054 179.332 84.934 180.118 84.934 180.957C84.934 181.795 85.054 182.588 85.294 183.337C85.5325 184.069 85.8848 184.714 86.3479 185.268C86.8125 185.822 87.3817 186.263 88.0556 186.592C88.7433 186.906 89.5294 187.063 90.4125 187.063C91.2956 187.063 92.074 186.906 92.7463 186.592C93.4356 186.263 94.0109 185.822 94.4756 185.268C94.9402 184.714 95.2909 184.069 95.5309 183.337C95.7709 182.588 95.8894 181.795 95.8894 180.957C95.8894 180.118 95.7709 179.332 95.5309 178.6C95.2909 177.851 94.9402 177.202 94.4756 176.646C94.0109 176.092 93.4356 175.652 92.7463 175.322C92.074 174.992 91.2956 174.829 90.4125 174.829Z" fill="black"/>
<path fill-rule="evenodd" clip-rule="evenodd" d="M97.7771 175.165V186.748H99.1909V180.575C99.1909 179.962 99.2956 179.4 99.5063 178.891C99.7156 178.368 100.006 177.918 100.382 177.545C100.771 177.171 101.226 176.885 101.751 176.691C102.274 176.48 102.859 176.392 103.502 176.422V175.006C102.454 174.962 101.548 175.195 100.785 175.703C100.037 176.212 99.4833 176.937 99.1233 177.882H99.0786V175.165H97.7771Z" fill="black"/>
<path fill-rule="evenodd" clip-rule="evenodd" d="M106.06 186.749V170.72H104.646V186.749H106.06Z" fill="black"/>
<path fill-rule="evenodd" clip-rule="evenodd" d="M118.745 186.749V170.72H117.331V177.365H117.286C117.136 176.946 116.919 176.58 116.634 176.266C116.365 175.951 116.051 175.689 115.691 175.48C115.332 175.254 114.943 175.091 114.525 174.986C114.12 174.882 113.7 174.829 113.266 174.829C112.383 174.829 111.612 174.992 110.954 175.322C110.311 175.652 109.772 176.1 109.339 176.669C108.905 177.223 108.583 177.874 108.372 178.623C108.163 179.355 108.059 180.134 108.059 180.957C108.059 181.782 108.163 182.566 108.372 183.315C108.583 184.048 108.905 184.698 109.339 185.268C109.772 185.822 110.311 186.265 110.954 186.592C111.612 186.908 112.383 187.063 113.266 187.063C113.686 187.063 114.105 187.003 114.525 186.885C114.959 186.765 115.363 186.6 115.737 186.391C116.111 186.166 116.44 185.895 116.725 185.582C117.023 185.268 117.248 184.923 117.399 184.549H117.443V186.749H118.745ZM109.472 180.957C109.472 180.36 109.54 179.768 109.674 179.185C109.825 178.585 110.049 178.054 110.348 177.591C110.663 177.126 111.06 176.752 111.539 176.466C112.017 176.168 112.594 176.017 113.266 176.017C114.016 176.017 114.643 176.168 115.152 176.466C115.677 176.752 116.096 177.126 116.409 177.591C116.739 178.054 116.971 178.585 117.106 179.185C117.256 179.768 117.331 180.36 117.331 180.957C117.331 181.555 117.256 182.155 117.106 182.752C116.971 183.337 116.739 183.862 116.409 184.325C116.096 184.789 115.677 185.171 115.152 185.471C114.643 185.755 114.016 185.895 113.266 185.895C112.594 185.895 112.017 185.755 111.539 185.471C111.06 185.171 110.663 184.789 110.348 184.325C110.049 183.862 109.825 183.337 109.674 182.752C109.54 182.155 109.472 181.555 109.472 180.957Z" fill="black"/>
<path fill-rule="evenodd" clip-rule="evenodd" d="M132.125 176.017C132.799 176.017 133.389 176.16 133.899 176.443C134.406 176.729 134.826 177.103 135.156 177.568C135.5 178.031 135.754 178.562 135.919 179.16C136.099 179.745 136.188 180.343 136.188 180.957C136.188 181.569 136.099 182.177 135.919 182.775C135.754 183.358 135.5 183.883 135.156 184.346C134.826 184.811 134.406 185.185 133.899 185.471C133.389 185.754 132.799 185.895 132.125 185.895C131.451 185.895 130.86 185.754 130.351 185.471C129.842 185.185 129.416 184.811 129.071 184.346C128.742 183.883 128.488 183.358 128.308 182.775C128.143 182.177 128.062 181.569 128.062 180.957C128.062 180.343 128.143 179.745 128.308 179.16C128.488 178.562 128.742 178.031 129.071 177.568C129.416 177.103 129.842 176.729 130.351 176.443C130.86 176.16 131.451 176.017 132.125 176.017ZM132.125 174.829C131.242 174.829 130.456 174.992 129.768 175.322C129.094 175.652 128.525 176.092 128.062 176.646C127.597 177.202 127.245 177.851 127.006 178.6C126.766 179.332 126.646 180.118 126.646 180.957C126.646 181.795 126.766 182.588 127.006 183.337C127.245 184.069 127.597 184.714 128.062 185.268C128.525 185.822 129.094 186.263 129.768 186.592C130.456 186.906 131.242 187.063 132.125 187.063C133.008 187.063 133.786 186.906 134.46 186.592C135.148 186.263 135.725 185.822 136.188 185.268C136.652 184.714 137.003 184.069 137.243 183.337C137.483 182.588 137.602 181.795 137.602 180.957C137.602 180.118 137.483 179.332 137.243 178.6C137.003 177.851 136.652 177.202 136.188 176.646C135.725 176.092 135.148 175.652 134.46 175.322C133.786 174.992 133.008 174.829 132.125 174.829Z" fill="black"/>
<path fill-rule="evenodd" clip-rule="evenodd" d="M143.956 176.355V175.166H141.666V174.154C141.666 173.84 141.672 173.549 141.688 173.28C141.703 173.009 141.756 172.778 141.845 172.583C141.951 172.374 142.108 172.209 142.317 172.089C142.526 171.969 142.826 171.909 143.216 171.909C143.379 171.909 143.545 171.925 143.708 171.955C143.874 171.969 144.052 171.992 144.248 172.023V170.811C144.023 170.78 143.822 170.757 143.642 170.743C143.462 170.728 143.268 170.72 143.059 170.72C142.489 170.72 142.017 170.803 141.643 170.966C141.285 171.131 141 171.363 140.791 171.663C140.58 171.963 140.439 172.322 140.363 172.74C140.289 173.16 140.251 173.617 140.251 174.109V175.166H138.276V176.355H140.251V186.749H141.666V176.355H143.956Z" fill="black"/>
<path fill-rule="evenodd" clip-rule="evenodd" d="M161.288 186.749V170.72H159.874V177.365H159.828C159.679 176.946 159.462 176.58 159.177 176.266C158.908 175.951 158.594 175.689 158.234 175.48C157.876 175.254 157.486 175.091 157.066 174.986C156.663 174.882 156.243 174.829 155.809 174.829C154.926 174.829 154.156 174.992 153.497 175.322C152.854 175.652 152.314 176.1 151.88 176.669C151.448 177.223 151.125 177.874 150.916 178.623C150.706 179.355 150.602 180.134 150.602 180.957C150.602 181.782 150.706 182.566 150.916 183.315C151.125 184.048 151.448 184.698 151.88 185.268C152.314 185.822 152.854 186.265 153.497 186.592C154.156 186.908 154.926 187.063 155.809 187.063C156.229 187.063 156.648 187.003 157.066 186.885C157.502 186.765 157.905 186.6 158.279 186.391C158.654 186.166 158.983 185.895 159.268 185.582C159.566 185.268 159.791 184.923 159.94 184.549H159.986V186.749H161.288ZM152.016 180.957C152.016 180.36 152.083 179.768 152.217 179.185C152.368 178.585 152.592 178.054 152.891 177.591C153.206 177.126 153.602 176.752 154.082 176.466C154.56 176.168 155.136 176.017 155.809 176.017C156.559 176.017 157.186 176.168 157.696 176.466C158.22 176.752 158.639 177.126 158.952 177.591C159.282 178.054 159.514 178.585 159.649 179.185C159.799 179.768 159.874 180.36 159.874 180.957C159.874 181.555 159.799 182.155 159.649 182.752C159.514 183.337 159.282 183.862 158.952 184.325C158.639 184.789 158.22 185.171 157.696 185.471C157.186 185.755 156.559 185.895 155.809 185.895C155.136 185.895 154.56 185.755 154.082 185.471C153.602 185.171 153.206 184.789 152.891 184.325C152.592 183.862 152.368 183.337 152.217 182.752C152.083 182.155 152.016 181.555 152.016 180.957Z" fill="black"/>
<path fill-rule="evenodd" clip-rule="evenodd" d="M165.193 172.987V170.72H163.779V172.987H165.193ZM165.193 186.75V175.166H163.779V186.75H165.193Z" fill="black"/>
<path fill-rule="evenodd" clip-rule="evenodd" d="M172.152 176.355V175.166H169.863V174.154C169.863 173.84 169.869 173.549 169.885 173.28C169.9 173.009 169.952 172.778 170.042 172.583C170.148 172.374 170.305 172.209 170.514 172.089C170.723 171.969 171.023 171.909 171.412 171.909C171.576 171.909 171.742 171.925 171.906 171.955C172.071 171.969 172.249 171.992 172.445 172.023V170.811C172.22 170.78 172.019 170.757 171.839 170.743C171.659 170.728 171.465 170.72 171.256 170.72C170.686 170.72 170.214 170.803 169.84 170.966C169.482 171.131 169.197 171.363 168.988 171.663C168.777 171.963 168.636 172.322 168.56 172.74C168.486 173.16 168.448 173.617 168.448 174.109V175.166H166.472V176.355H168.448V186.749H169.863V176.355H172.152Z" fill="black"/>
<path fill-rule="evenodd" clip-rule="evenodd" d="M177.743 176.355V175.166H175.454V174.154C175.454 173.84 175.46 173.549 175.476 173.28C175.491 173.009 175.543 172.778 175.632 172.583C175.739 172.374 175.896 172.209 176.105 172.089C176.314 171.969 176.614 171.909 177.003 171.909C177.166 171.909 177.332 171.925 177.496 171.955C177.662 171.969 177.84 171.992 178.036 172.023V170.811C177.811 170.78 177.608 170.757 177.429 170.743C177.249 170.728 177.056 170.72 176.845 170.72C176.277 170.72 175.805 170.803 175.431 170.966C175.071 171.131 174.788 171.363 174.579 171.663C174.368 171.963 174.226 172.322 174.151 172.74C174.076 173.16 174.039 173.617 174.039 174.109V175.166H172.063V176.355H174.039V186.749H175.454V176.355H177.743Z" fill="black"/>
<path fill-rule="evenodd" clip-rule="evenodd" d="M187.194 180.149H179.696C179.756 179.625 179.876 179.117 180.054 178.623C180.249 178.114 180.503 177.672 180.817 177.297C181.132 176.909 181.514 176.602 181.963 176.378C182.412 176.138 182.928 176.017 183.512 176.017C184.08 176.017 184.589 176.138 185.039 176.378C185.488 176.602 185.869 176.909 186.183 177.297C186.499 177.672 186.737 178.106 186.902 178.6C187.082 179.094 187.179 179.609 187.194 180.149ZM179.696 181.338H188.608C188.639 180.531 188.563 179.737 188.383 178.96C188.203 178.166 187.905 177.471 187.485 176.871C187.082 176.258 186.551 175.763 185.891 175.389C185.232 175.015 184.44 174.829 183.512 174.829C182.599 174.829 181.806 175.008 181.132 175.368C180.474 175.711 179.936 176.175 179.516 176.76C179.097 177.328 178.782 177.98 178.572 178.712C178.379 179.446 178.282 180.194 178.282 180.957C178.282 181.782 178.379 182.566 178.572 183.315C178.782 184.048 179.097 184.698 179.516 185.268C179.936 185.822 180.474 186.265 181.132 186.592C181.806 186.908 182.599 187.063 183.512 187.063C184.979 187.063 186.108 186.705 186.902 185.986C187.709 185.268 188.263 184.251 188.563 182.934H187.148C186.925 183.832 186.52 184.549 185.937 185.088C185.352 185.628 184.545 185.895 183.512 185.895C182.839 185.895 182.262 185.755 181.783 185.471C181.305 185.185 180.908 184.826 180.592 184.392C180.279 183.958 180.046 183.472 179.897 182.934C179.763 182.378 179.696 181.848 179.696 181.338Z" fill="black"/>
<path fill-rule="evenodd" clip-rule="evenodd" d="M190.292 175.165V186.748H191.706V180.575C191.706 179.962 191.811 179.4 192.022 178.891C192.231 178.368 192.522 177.918 192.897 177.545C193.286 177.171 193.742 176.885 194.266 176.691C194.789 176.48 195.374 176.392 196.017 176.422V175.006C194.969 174.962 194.063 175.195 193.3 175.703C192.552 176.212 191.999 176.937 191.639 177.882H191.594V175.165H190.292Z" fill="black"/>
<path fill-rule="evenodd" clip-rule="evenodd" d="M205.469 180.149H197.971C198.031 179.625 198.151 179.117 198.329 178.623C198.525 178.114 198.779 177.672 199.092 177.297C199.408 176.909 199.789 176.602 200.239 176.378C200.688 176.138 201.205 176.017 201.788 176.017C202.356 176.017 202.865 176.138 203.314 176.378C203.763 176.602 204.145 176.909 204.459 177.297C204.774 177.672 205.012 178.106 205.177 178.6C205.357 179.094 205.454 179.609 205.469 180.149ZM197.971 181.338H206.883C206.914 180.531 206.839 179.737 206.659 178.96C206.48 178.166 206.18 177.471 205.76 176.871C205.357 176.258 204.826 175.763 204.166 175.389C203.508 175.015 202.716 174.829 201.788 174.829C200.874 174.829 200.082 175.008 199.408 175.368C198.749 175.711 198.211 176.175 197.791 176.76C197.372 177.328 197.057 177.98 196.848 178.712C196.654 179.446 196.557 180.194 196.557 180.957C196.557 181.782 196.654 182.566 196.848 183.315C197.057 184.048 197.372 184.698 197.791 185.268C198.211 185.822 198.749 186.265 199.408 186.592C200.082 186.908 200.874 187.063 201.788 187.063C203.254 187.063 204.385 186.705 205.177 185.986C205.985 185.268 206.539 184.251 206.839 182.934H205.425C205.2 183.832 204.796 184.549 204.212 185.088C203.628 185.628 202.82 185.895 201.788 185.895C201.114 185.895 200.537 185.755 200.059 185.471C199.58 185.185 199.183 184.826 198.869 184.392C198.554 183.958 198.322 183.472 198.172 182.934C198.039 182.378 197.971 181.848 197.971 181.338Z" fill="black"/>
<path fill-rule="evenodd" clip-rule="evenodd" d="M208.545 175.165V186.748H209.959V179.991C209.974 179.423 210.065 178.898 210.228 178.42C210.408 177.926 210.648 177.506 210.946 177.163C211.262 176.803 211.636 176.526 212.069 176.332C212.519 176.122 213.028 176.017 213.596 176.017C214.165 176.017 214.636 176.106 215.011 176.286C215.4 176.466 215.706 176.714 215.931 177.028C216.156 177.342 216.312 177.715 216.402 178.149C216.492 178.569 216.537 179.026 216.537 179.52V186.748H217.953V179.295C217.953 178.606 217.885 177.986 217.749 177.432C217.616 176.877 217.383 176.414 217.054 176.04C216.725 175.651 216.283 175.351 215.729 175.142C215.191 174.932 214.517 174.828 213.708 174.828C212.885 174.828 212.129 175.045 211.442 175.478C210.752 175.898 210.274 176.458 210.003 177.163H209.959V175.165H208.545Z" fill="black"/>
<path fill-rule="evenodd" clip-rule="evenodd" d="M228.569 178.802H229.983C229.819 177.471 229.303 176.474 228.436 175.817C227.582 175.158 226.534 174.829 225.291 174.829C224.408 174.829 223.623 174.992 222.934 175.322C222.26 175.652 221.692 176.092 221.228 176.648C220.765 177.202 220.412 177.852 220.172 178.6C219.932 179.334 219.814 180.118 219.814 180.957C219.814 181.795 219.932 182.589 220.172 183.337C220.412 184.071 220.765 184.715 221.228 185.268C221.692 185.822 222.26 186.265 222.934 186.592C223.623 186.908 224.408 187.063 225.291 187.063C226.608 187.063 227.686 186.674 228.525 185.895C229.362 185.103 229.879 184.003 230.074 182.597H228.659C228.614 183.074 228.494 183.515 228.3 183.92C228.105 184.325 227.859 184.675 227.559 184.977C227.26 185.26 226.916 185.486 226.526 185.649C226.137 185.815 225.726 185.895 225.291 185.895C224.617 185.895 224.026 185.755 223.519 185.471C223.009 185.185 222.582 184.811 222.239 184.346C221.909 183.885 221.656 183.36 221.476 182.775C221.311 182.177 221.228 181.571 221.228 180.957C221.228 180.345 221.311 179.745 221.476 179.16C221.656 178.563 221.909 178.031 222.239 177.568C222.582 177.103 223.009 176.729 223.519 176.445C224.026 176.16 224.617 176.017 225.291 176.017C226.234 176.017 226.968 176.266 227.492 176.76C228.016 177.252 228.376 177.935 228.569 178.802Z" fill="black"/>
<path fill-rule="evenodd" clip-rule="evenodd" d="M240.154 180.149H232.656C232.716 179.625 232.836 179.117 233.016 178.623C233.209 178.114 233.463 177.672 233.779 177.297C234.092 176.909 234.474 176.602 234.923 176.378C235.372 176.138 235.888 176.017 236.472 176.017C237.04 176.017 237.549 176.138 237.999 176.378C238.448 176.602 238.829 176.909 239.143 177.297C239.459 177.672 239.697 178.106 239.862 178.6C240.042 179.094 240.139 179.609 240.154 180.149ZM232.656 181.338H241.568C241.599 180.531 241.523 179.737 241.343 178.96C241.165 178.166 240.865 177.471 240.445 176.871C240.042 176.258 239.511 175.763 238.851 175.389C238.194 175.015 237.4 174.829 236.472 174.829C235.559 174.829 234.766 175.008 234.092 175.368C233.434 175.711 232.896 176.175 232.476 176.76C232.057 177.328 231.742 177.98 231.532 178.712C231.339 179.446 231.242 180.194 231.242 180.957C231.242 181.782 231.339 182.566 231.532 183.315C231.742 184.048 232.057 184.698 232.476 185.268C232.896 185.822 233.434 186.265 234.092 186.592C234.766 186.908 235.559 187.063 236.472 187.063C237.939 187.063 239.069 186.705 239.862 185.986C240.671 185.268 241.223 184.251 241.523 182.934H240.109C239.885 183.832 239.48 184.549 238.897 185.088C238.312 185.628 237.505 185.895 236.472 185.895C235.799 185.895 235.222 185.755 234.743 185.471C234.265 185.185 233.868 184.826 233.554 184.392C233.239 183.958 233.006 183.472 232.857 182.934C232.723 182.378 232.656 181.848 232.656 181.338Z" fill="black"/>
</svg>
