<svg width="151" height="112" xmlns="http://www.w3.org/2000/svg"><g fill="#000" fill-rule="nonzero"><path d="M120.371 74.22l3.49-5.977h1.374l-3.341 5.903h2.524v-1.634l1.263-.074v1.708h1.485v1.114h-1.485v1.745h.965v1.114h-3.193v-1.114h.965V75.26h-4.084zM133.886 68.243l-2.228 3.675c.26-.111.52-.185.706-.185.223 0 .408-.037.594-.037.408 0 .78.074 1.15.222a3.52 3.52 0 011.003.632c.297.26.52.594.706.965.185.371.26.78.26 1.225 0 .557-.112 1.04-.297 1.485a3.27 3.27 0 01-.743 1.077c-.334.297-.668.52-1.114.668a4.04 4.04 0 01-1.336.223c-.446 0-.854-.074-1.263-.223a2.93 2.93 0 01-1.076-.668 3.53 3.53 0 01-.743-1.04 3.203 3.203 0 01-.297-1.336c0-.372.074-.743.223-1.151.148-.372.334-.78.557-1.188l2.413-4.382h1.485v.038zm-1.448 4.53c-.297 0-.594.036-.78.148a3.029 3.029 0 00-.63.408 2.107 2.107 0 00-.446.669c-.112.26-.186.594-.186.928 0 .334.074.63.186.928.111.26.26.483.482.668.186.186.446.334.706.409.26.074.557.148.89.148.298 0 .595-.037.855-.148.26-.112.52-.26.705-.446.186-.185.372-.408.483-.668.111-.26.186-.557.186-.891 0-.372-.075-.669-.186-.928a1.815 1.815 0 00-.52-.669 1.965 1.965 0 00-.78-.408 2.909 2.909 0 00-.965-.149zM136.41 69.728c0-.186.038-.372.112-.52.075-.149.149-.297.26-.408.112-.112.26-.223.409-.26.148-.075.334-.112.52-.112.185 0 .37.037.52.112.148.074.296.148.408.26.111.11.185.26.26.408.074.148.11.334.11.52 0 .185-.036.371-.073.52-.075.148-.149.297-.26.408-.112.111-.26.186-.409.26a1.186 1.186 0 01-.52.111c-.185 0-.37-.037-.52-.111-.148-.074-.296-.149-.408-.26-.111-.111-.185-.26-.26-.408-.148-.149-.148-.335-.148-.52zm.52 0c0 .111.038.222.075.334.037.111.111.186.148.26.075.074.149.111.223.148a.7.7 0 00.297.075.7.7 0 00.297-.075c.075-.037.186-.074.223-.148a.598.598 0 00.149-.26c.037-.112.074-.223.074-.334a.741.741 0 00-.074-.334.598.598 0 00-.149-.26.777.777 0 00-.223-.149c-.074-.037-.185-.037-.297-.037-.111 0-.185 0-.297.037-.074.037-.185.074-.223.149-.037.074-.11.148-.148.26-.037.111-.074.222-.074.334zM146.77 68.243h3.193v1.113h-.854v8.726h-1.67l-4.605-8.169v7.055h1.003v1.114h-3.193v-1.114h.928v-7.612h-.928v-1.15h2.673l4.492 8.094.038-.298v-6.646h-1.114v-1.113zM34.381 93.416h5.68v2.005H38.54l-5.013 15.482H30l-4.752-15.222-4.382 15.222h-3.49L12.29 95.421h-1.523v-2.005h5.681v2.005h-1.522l4.232 13.44 4.456-15.445h3.453l4.752 15.445 4.307-13.44h-1.745v-2.005zM49.158 93.416h5.57v2.005h-1.671v13.515h1.67v1.967h-5.569v-1.967h1.671V95.42h-1.67zM75.483 93.416h5.68v2.005h-1.485v15.482h-2.97l-8.131-14.517V108.9h1.782v1.967h-5.68V108.9h1.596V95.42h-1.671v-2.005h4.715l7.983 14.369.074-.557V95.42h-1.968v-2.005zM91.188 93.416H103.7v4.938h-2.376v-2.97h-6.237v5.606h5.235v1.968h-5.235v5.94h6.237v-2.97h2.376v4.938H91.188V108.9h1.67V95.42h-1.67zM.334 73.255h114.059v1.485H.334zM37.054.334h8.02l6.572 36.09h.149l5.42-36.09h9.097l-9.95 56.659h-8.169L41.14 19.567h-.149l-6.609 37.426h-8.168L15.483.334h9.096l5.978 36.09h.148zM76.04 56.993h-9.431L77.042.334H89.11l10.433 56.659h-9.43l-1.709-12.55H77.748l-1.708 12.55zm3.156-21.015h7.834l-3.862-24.32h-.148l-3.824 24.32z"/></g></svg>