<?xml version="1.0" encoding="UTF-8"?>
<svg id="Calque_2" data-name="Calque 2" xmlns="http://www.w3.org/2000/svg" viewBox="0 0 354.56 85">
  <defs>
    <style>
      .cls-1 {
        fill: #1a171b;
      }
    </style>
  </defs>
  <g id="Header">
    <g>
      <g>
        <path class="cls-1" d="M98.26,18.61h1.47c.16,0,.3,.04,.4,.12,.1,.08,.18,.18,.23,.31l3.85,9.62c.09,.21,.17,.45,.24,.71,.07,.25,.14,.51,.21,.79,.06-.27,.12-.54,.19-.79,.07-.26,.14-.49,.23-.71l3.83-9.62c.04-.11,.12-.21,.23-.3,.11-.09,.24-.14,.4-.14h1.48l-5.55,13.63h-1.66l-5.56-13.63Z"/>
        <path class="cls-1" d="M115.91,32.24h-1.85v-13.63h1.85v13.63Z"/>
        <path class="cls-1" d="M121.83,18.67c.08,.04,.17,.12,.27,.25l7.9,10.27c-.02-.16-.03-.32-.04-.48,0-.15-.01-.3-.01-.45v-9.66h1.62v13.63h-.93c-.15,0-.27-.02-.37-.08-.1-.05-.19-.13-.29-.25l-7.89-10.27c.01,.16,.02,.32,.03,.47,0,.15,0,.29,0,.42v9.71h-1.62v-13.63h.95c.16,0,.29,.02,.37,.06Z"/>
        <path class="cls-1" d="M142.83,20.74c-.06,.09-.12,.17-.18,.21-.06,.05-.15,.07-.25,.07-.11,0-.23-.05-.37-.16-.14-.11-.32-.23-.54-.36-.22-.13-.48-.25-.79-.35-.31-.11-.68-.16-1.12-.16-.41,0-.78,.06-1.09,.17-.32,.11-.58,.26-.8,.45-.21,.19-.37,.41-.48,.67-.11,.26-.16,.53-.16,.84,0,.38,.09,.69,.28,.94,.19,.25,.43,.46,.74,.64,.31,.18,.66,.33,1.05,.46,.39,.13,.79,.27,1.2,.4,.41,.14,.81,.3,1.2,.47,.39,.18,.74,.4,1.05,.66,.31,.27,.55,.59,.74,.98,.19,.39,.28,.86,.28,1.43,0,.6-.1,1.15-.31,1.68-.2,.52-.5,.98-.89,1.36-.39,.39-.87,.69-1.44,.91-.57,.22-1.21,.33-1.94,.33-.88,0-1.68-.16-2.41-.48-.73-.32-1.34-.75-1.86-1.3l.53-.88c.05-.07,.11-.13,.19-.17,.07-.05,.15-.07,.24-.07,.14,0,.29,.07,.46,.21,.17,.14,.38,.3,.64,.47,.26,.17,.57,.32,.93,.47,.36,.14,.81,.21,1.33,.21,.44,0,.83-.06,1.17-.18,.34-.12,.63-.29,.87-.51,.24-.22,.42-.48,.55-.78,.13-.31,.19-.65,.19-1.02,0-.41-.09-.75-.28-1.01-.19-.26-.43-.48-.74-.66-.3-.18-.65-.33-1.04-.45-.39-.13-.79-.25-1.2-.38-.41-.13-.81-.28-1.2-.45-.39-.17-.74-.39-1.04-.67-.3-.27-.55-.61-.74-1.02-.19-.41-.28-.91-.28-1.52,0-.48,.09-.95,.28-1.4,.19-.45,.46-.85,.82-1.2,.35-.35,.79-.63,1.32-.84,.52-.21,1.13-.31,1.8-.31,.76,0,1.46,.12,2.08,.36,.63,.24,1.18,.59,1.65,1.05l-.45,.88Z"/>
        <path class="cls-1" d="M163.32,25.43c0,1.02-.16,1.95-.48,2.79-.32,.84-.78,1.56-1.37,2.15-.59,.6-1.3,1.06-2.12,1.38-.82,.33-1.74,.49-2.74,.49h-5.1v-13.63h5.1c1,0,1.92,.16,2.74,.49,.83,.33,1.53,.79,2.12,1.39,.59,.6,1.05,1.32,1.37,2.16,.32,.84,.48,1.76,.48,2.79Zm-1.89,0c0-.84-.11-1.58-.34-2.25-.23-.66-.55-1.22-.97-1.67-.42-.46-.92-.81-1.52-1.05-.6-.24-1.26-.36-1.99-.36h-3.24v10.65h3.24c.73,0,1.39-.12,1.99-.36,.6-.24,1.1-.59,1.52-1.04,.42-.45,.74-1.01,.97-1.67,.23-.66,.34-1.41,.34-2.24Z"/>
        <path class="cls-1" d="M175.19,18.61v1.5h-6.54v4.53h5.3v1.45h-5.3v4.65h6.54v1.5h-8.4v-13.63h8.4Z"/>
      </g>
      <g>
        <path class="cls-1" d="M100.47,48.33c0-1.82,.28-4.77-1.78-5.54v-.12h9.58c5.34,0,8.45,2.27,8.45,5.86,0,2.71-1.74,4.25-4.04,5.26,3.64,.77,6.59,3.19,6.59,7.16,0,3.11-2.14,5.78-4.85,7.07-2.83,1.38-6.03,1.25-9.06,1.25h-6.67v-.12c2.02-.77,1.78-3.72,1.78-5.58v-15.24Zm5.46,5.05c2.63,0,6.39-.89,6.39-4.2,0-2.79-2.59-4.25-5.01-4l-2.71,.28v7.92h1.33Zm2.18,12.98c3.32,.33,6.67-1.21,6.67-5.05s-3.8-5.62-7.36-5.42l-2.83,.16v9.98l3.52,.32Z"/>
        <path class="cls-1" d="M153.26,55.69c0,8.24-6.83,14.23-14.88,14.23s-14.75-5.74-14.75-14.03c0-7.68,6.67-14.11,15.16-13.91,8.49-.04,14.47,6.43,14.47,13.71Zm-25.03-.16c0,5.66,4,11.48,10.35,11.48s10.07-4.49,10.07-10.51-3.76-11.6-10.15-11.6-10.27,4.53-10.27,10.63Z"/>
        <path class="cls-1" d="M176.43,66.6c-1.78,2.34-5.09,3.31-7.92,3.31-2.67,0-5.5-.85-7.32-2.83-2.14-2.34-2.06-5.05-2.06-7.97v-10.79c0-1.82,.29-4.77-1.78-5.54v-.12h7.68v.12c-2.02,.77-1.78,3.72-1.78,5.54v10.79c0,5.38,2.26,7.88,6.43,7.88,2.26,0,4.57-.93,5.9-2.83,.89-1.21,.85-2.22,.85-3.68v-12.17c0-1.82,.24-4.77-1.78-5.54v-.12h7.68l.04,.12c-2.06,.77-1.82,3.72-1.82,5.58v15.25c0,1.82-.24,4.77,1.82,5.54v.12h-5.94v-2.66Z"/>
        <path class="cls-1" d="M197.21,42.67c5.42,0,8.37,2.83,8.37,6.51s-3.12,6.35-6.43,7.11l5.82,7.32c1.7,2.1,4.25,4.2,6.55,5.66h-3.72c-2.15,0-3.48-.53-4.69-2.02l-4.93-6.1-3.72-5.7c3.24-.48,7-1.98,7-5.78,0-2.91-2.51-4.61-5.22-4.49-.93,.04-1.82,.16-2.75,.32v18.12c0,1.86-.24,4.81,1.82,5.54v.12h-7.72v-.12c2.07-.73,1.78-3.72,1.78-5.54v-15.25c0-1.86,.29-4.81-1.78-5.58v-.12h9.62Z"/>
        <path class="cls-1" d="M233.88,47.36h-.12c-1.66-1.86-4.73-2.43-7.2-2.43-6.31,0-11.12,4.12-11.12,10.63s5.17,11.44,11.56,11.44c1.86,0,3.8-.24,5.62-.77v-5.82c0-1.86-.04-3.84-1.86-4.57v-.12h6.18v.12c-.2,.49-.2,1.13-.2,1.74v9.3c0,.61-.04,1.25,.2,1.82-3.24,.61-6.39,1.21-9.67,1.21-10.35,0-16.45-5.66-16.45-13.78,0-8.69,6.91-14.11,16.7-14.11,2.14,0,4.24,.24,6.35,.69v4.65Z"/>
        <path class="cls-1" d="M270.18,55.69c0,8.24-6.83,14.23-14.88,14.23s-14.76-5.74-14.76-14.03c0-7.68,6.67-14.11,15.16-13.91,8.49-.04,14.48,6.43,14.48,13.71Zm-25.03-.16c0,5.66,4,11.48,10.35,11.48s10.07-4.49,10.07-10.51-3.76-11.6-10.15-11.6-10.27,4.53-10.27,10.63Z"/>
        <path class="cls-1" d="M297.19,47.36h-.12c-1.66-1.86-4.73-2.43-7.2-2.43-6.31,0-11.12,4.12-11.12,10.63s5.18,11.44,11.56,11.44c1.86,0,3.8-.24,5.62-.77v-5.82c0-1.86-.04-3.84-1.86-4.57v-.12h6.18v.12c-.2,.49-.2,1.13-.2,1.74v9.3c0,.61-.04,1.25,.2,1.82-3.23,.61-6.39,1.21-9.66,1.21-10.35,0-16.45-5.66-16.45-13.78,0-8.69,6.91-14.11,16.7-14.11,2.14,0,4.24,.24,6.35,.69v4.65Z"/>
        <path class="cls-1" d="M309.32,64.01c0,2.27-.04,3.88,2.1,5.14v.12h-7.16v-.12c2.14-1.26,2.14-2.87,2.14-5.14v-16.13c0-2.26,0-3.88-2.1-5.1v-.12h5.9v.04c.16,.48,.32,.69,.61,1.01l.57,.81,14.8,18.68v-15.32c0-2.26,.04-3.88-2.1-5.1v-.12h7.11v.12c-2.1,1.21-2.1,2.83-2.1,5.1v22.68c-2.87-.97-4.12-2.3-5.9-4.61l-13.87-17.59v15.65Z"/>
        <path class="cls-1" d="M341.82,65.88l5.13,.48c2.67,.25,5.46-.6,7.48-2.38h.12l-1.82,5.29h-16.86v-.12c2.06-.73,1.82-3.72,1.82-5.54v-15.25c0-1.86,.24-4.81-1.82-5.58v-.12h12.94c.69,0,1.37,.08,1.9-.2h.12v4.73h-.12c-1.25-1.46-2.91-1.62-4.77-1.62-1.42,0-2.83,.04-4.13,.29v7.52h4.81c.65,0,1.29,0,1.78-.24h.12v4.28h-.12c-.65-1.17-2.34-1.13-3.6-1.13h-2.99v9.58Z"/>
      </g>
      <g>
        <path class="cls-1" d="M26.6,54.36c.88-1.36,1.73-3.11,2.66-6.56,.44-1.76,1.03-5.25,1.55-10.51,.54-5.96,1.08-9.53,1.7-11.53,1.93-7.32,3.87-10.07,8.75-13.09,1.33-.75,1.77-.99,2.27-1.18,1.59-.62,1.87-.6,2.06-.45,0,0,.05,.09,.03,.24-.01,.1-.06,.21-.19,.33l-.09,.08-1.53,1.28c-.82,.56-1.61,1.7-2.37,3.63-.59,1.5-1.23,4-1.81,8.98l-.09,1.1-.76,8.48c.03,.79-.08,1.5-.14,2.3-.77,6.1-2.22,10.25-4.16,13.19-2.29,3.42-4.51,5.13-9.27,7.44-1.06,.5-2.26,.93-3.41,1.25l4.79-4.99Z"/>
        <path class="cls-1" d="M53.64,6.7c-3.35-1.45-6.9-1.74-11.14-1.74-10.02,0-19.45,3.9-26.54,10.99-7.09,7.09-11,16.52-11,26.55s3.91,19.46,11,26.55c7.09,7.09,16.52,10.99,26.54,10.99s19.97-4.3,27.6-11.82c7.65-7.53,12.04-17.51,12.04-27.37,0-9.1-.7-18.58-5.79-26.2l.09-.07c3.28,3.51,5.81,7.74,7.5,12.56,1.63,4.64,2.46,9.72,2.46,15.09,0,5.72-1.2,11.3-3.56,16.59-2.26,5.07-5.49,9.64-9.59,13.6-4.07,3.93-8.78,7.03-13.99,9.19-5.38,2.24-11.02,3.38-16.76,3.38-11.35,0-22.02-4.42-30.05-12.44C4.42,64.53,0,53.85,0,42.5S4.42,20.48,12.45,12.45C20.48,4.43,31.15,0,42.5,0c0,0,11.45,.04,18.73,4.37,7.27,4.34,11.02,12.35,4.85,19.33-2.43,2.8-9.85,5.59-14.11,6.18,4.81,.55,12.71,1.91,18.15,8.45,5.44,6.54,2.82,18.4-6.88,22.23-4.48,1.54-10.88,1.91-17.27-1.18,4.34,.29,11.76,1.54,15.8-5,2.13-3.67,4.97-12.16-2.38-19.73-1.84-1.98-6.91-4.27-10.21-3.9-1.62,.22-2.07,.2-2.07,.2,0,0-1.14,.16-1.16-.62-.02-.77,.66-.75,1.02-.79,.37-.04,3.37-.23,4.97-.85,1.6-.62,4.78-1.81,7.55-4.66,1-1.14,3.06-3.82,2.43-7.96,0,0-1.2-6.32-8.29-9.38Z"/>
      </g>
    </g>
  </g>
</svg>