<svg width="96" height="114" viewBox="0 0 96 114" fill="none" xmlns="http://www.w3.org/2000/svg">
    <path d="M96 0H0.00170898V84.3217H96V0Z" fill="#1A171B" />
    <path d="M96 84.1313H0V114H96V84.1313Z" fill="#C5AF7E" />
    <path
        d="M45.3858 15.7845C46.503 15.6632 47.3168 14.6049 47.2032 13.4253C47.0896 12.2458 46.0978 11.3712 44.9789 11.4891C43.86 11.6071 43.0479 12.6687 43.1581 13.8483C43.2683 15.0279 44.2703 15.9042 45.3858 15.7845ZM44.7077 12.4817C44.8496 12.3825 45.0106 12.3133 45.1806 12.2785C45.3505 12.2436 45.5259 12.2438 45.6958 12.279C45.8657 12.3143 46.0265 12.3838 46.1682 12.4833C46.31 12.5828 46.4297 12.7101 46.52 12.8575C46.694 13.1689 46.7428 13.5344 46.6566 13.8802C46.5704 14.226 46.3556 14.5265 46.0555 14.7212C45.9144 14.8196 45.7545 14.8882 45.5857 14.9226C45.4168 14.9571 45.2427 14.9567 45.074 14.9214C44.9054 14.8862 44.7458 14.8169 44.6052 14.7178C44.4646 14.6187 44.346 14.492 44.2567 14.3454C44.0785 14.0359 44.0262 13.6703 44.1107 13.3237C44.1952 12.9771 44.41 12.6758 44.7111 12.4817H44.7077ZM30.9755 35.0808C29.2801 25.2448 32.4792 15.6598 32.5182 12.726L32.4826 12.6519C29.8803 21.5931 27.8188 28.6268 28.9801 35.3066C30.021 41.3107 32.386 44.7163 36.9481 51.1147C40.1998 55.6747 40.5083 59.6094 40.5083 59.6094C40.6355 58.0304 41.0271 55.3326 35.7919 47.308C33.076 42.9065 31.5722 38.4864 30.9873 35.0808H30.9755ZM46.7929 29.0633C45.991 29.1256 45.3841 29.8738 45.4468 30.7282C45.4544 30.9249 45.5013 31.1181 45.5846 31.2967C45.668 31.4753 45.7862 31.6356 45.9324 31.7684C46.0786 31.9012 46.2499 32.0038 46.4363 32.0702C46.6228 32.1367 46.8206 32.1656 47.0184 32.1555C47.8203 32.088 48.4204 31.3449 48.3611 30.4889C48.3018 29.6328 47.6084 28.9959 46.8048 29.0633H46.7929ZM47.3015 31.2404C47.2058 31.2971 47.0993 31.3334 46.9887 31.347C46.8782 31.3607 46.7659 31.3514 46.6592 31.3197C46.5524 31.288 46.4534 31.2347 46.3685 31.163C46.2835 31.0913 46.2145 31.003 46.1657 30.9034C46.0461 30.7042 46.0061 30.4676 46.0535 30.2405C46.1009 30.0134 46.2323 29.8122 46.4216 29.6766C46.5177 29.6202 46.6245 29.584 46.7352 29.5705C46.846 29.557 46.9583 29.5663 47.0653 29.5979C47.1723 29.6296 47.2715 29.6828 47.3568 29.7544C47.4421 29.8259 47.5116 29.9142 47.5609 30.0137C47.684 30.2106 47.7275 30.4465 47.6829 30.674C47.6382 30.9016 47.5087 31.1039 47.3202 31.2404H47.3015ZM47.2557 42.3403C47.113 42.4539 47.0181 42.6164 46.9896 42.7959C46.961 42.9755 47.0009 43.1591 47.1015 43.3109C47.1478 43.3841 47.2089 43.4469 47.2809 43.4954C47.3528 43.544 47.4341 43.5772 47.5196 43.593C47.6051 43.6089 47.693 43.6069 47.7777 43.5874C47.8624 43.5679 47.9421 43.5311 48.0119 43.4794C48.1557 43.3671 48.2517 43.2049 48.2806 43.0253C48.3095 42.8457 48.2692 42.6619 48.1678 42.5105C48.1216 42.4397 48.0614 42.3789 47.9909 42.3317C47.9204 42.2846 47.841 42.2521 47.7576 42.2362C47.6742 42.2203 47.5883 42.2213 47.5053 42.2392C47.4223 42.2571 47.3437 42.2915 47.2744 42.3403H47.2557ZM48.0119 43.0396C47.9906 43.0848 47.9603 43.1252 47.9229 43.1583C47.8854 43.1915 47.8416 43.2167 47.794 43.2325C47.7464 43.2482 47.6961 43.2542 47.6461 43.25C47.5961 43.2458 47.5475 43.2316 47.5033 43.2081C47.4157 43.1496 47.3532 43.0606 47.3282 42.9587C47.3031 42.8568 47.3172 42.7493 47.3676 42.6571C47.3875 42.6107 47.4169 42.569 47.4539 42.5345C47.4909 42.5 47.5347 42.4735 47.5825 42.4567C47.6303 42.44 47.6811 42.4332 47.7317 42.437C47.7822 42.4407 47.8315 42.4548 47.8762 42.4785C47.9703 42.5338 48.0389 42.6233 48.0677 42.728C48.0965 42.8327 48.0832 42.9445 48.0305 43.0396H48.0119ZM50.1412 36.2301C50.0873 36.1208 50.011 36.0239 49.9172 35.9456C49.8234 35.8673 49.7142 35.8093 49.5966 35.7754C49.479 35.7414 49.3556 35.7323 49.2342 35.7485C49.1128 35.7647 48.9962 35.8059 48.8918 35.8694C48.6783 36.008 48.525 36.2213 48.4622 36.4669C48.3994 36.7125 48.4317 36.9726 48.5527 37.1956C48.6072 37.3053 48.684 37.4024 48.7783 37.481C48.8727 37.5595 48.9824 37.6176 49.1006 37.6517C49.2187 37.6858 49.3427 37.695 49.4647 37.6789C49.5866 37.6628 49.7039 37.6216 49.8089 37.5579C50.0216 37.4183 50.1739 37.2043 50.2354 36.9584C50.2969 36.7124 50.2633 36.4525 50.1412 36.2301ZM49.1325 37.1198C49.0179 37.0287 48.9417 36.8983 48.9191 36.7541C48.8965 36.61 48.9291 36.4627 49.0104 36.3413C49.0451 36.2814 49.0918 36.2293 49.1476 36.188C49.2034 36.1468 49.2671 36.1174 49.3348 36.1016C49.4025 36.0858 49.4727 36.084 49.5411 36.0962C49.6096 36.1085 49.6747 36.1345 49.7326 36.1728C49.8461 36.2645 49.9218 36.3945 49.9452 36.538C49.9687 36.6815 49.9383 36.8286 49.8598 36.9513C49.8247 37.0115 49.7774 37.0638 49.721 37.105C49.6646 37.1462 49.6003 37.1754 49.532 37.1907C49.4637 37.2061 49.393 37.2072 49.3243 37.1942C49.2555 37.1811 49.1902 37.1541 49.1325 37.1148V37.1198ZM50.6752 24.446C51.6365 24.6651 52.5791 24.0197 52.7842 23.0036C52.9894 21.9874 52.3841 20.9898 51.428 20.7725C50.4718 20.5551 49.5292 21.1921 49.3224 22.2099C49.1155 23.2277 49.7242 24.2202 50.6752 24.4342V24.446ZM50.7685 21.1651C51.3737 21.005 52.0044 21.4263 52.1688 22.1071C52.3333 22.7879 51.9705 23.4821 51.3618 23.6456C50.7532 23.8091 50.1209 23.3878 49.9632 22.7036C49.8055 22.0195 50.1616 21.3269 50.7685 21.16V21.1651ZM37.3431 30.7939C37.3431 30.7939 37.2753 30.8057 37.2736 30.8141C35.0324 40.5288 38.062 42.2527 42.992 53.5801C47.9085 64.8569 44.4262 77.925 44.55 77.5424C44.5263 77.6436 44.6144 77.6503 44.6415 77.5424C47.9831 66.2521 46.3369 58.1434 42.7885 49.6621C40.1455 43.3514 37.2635 39.4318 37.3431 30.7888V30.7939ZM58.7264 30.8158C58.7264 30.8074 58.6586 30.7939 58.6586 30.7956C58.7382 39.4385 55.8562 43.3581 53.2132 49.6689C49.653 58.1501 48.0187 66.2538 51.3602 77.5492C51.389 77.6553 51.4754 77.6486 51.4534 77.5492C51.5772 77.9317 48.1017 64.8636 53.0097 53.5868C57.938 42.2493 60.9693 40.5254 58.7264 30.8107V30.8158ZM63.5055 12.6519L63.4699 12.726C63.5089 15.6598 66.708 25.2448 65.0144 35.0808C64.4278 38.4864 62.9257 42.9065 60.1979 47.3064C54.9627 55.3326 55.3544 58.0305 55.4832 59.6077C55.4832 59.6077 55.7934 55.673 59.0434 51.113C63.6022 44.7096 65.9671 41.309 67.0115 35.3049C68.1694 28.6268 66.118 21.5931 63.5055 12.6519Z"
        fill="#C5AF7E" />
    <path
        d="M72.3027 100.63V107.679H73.998V103.803C73.9862 103.264 73.9862 103.144 73.9353 102.605C74.3286 103.111 74.4778 103.279 74.8508 103.714L78.3635 107.679H80.1216V100.63H78.4263V104.235C78.4246 104.722 78.4478 105.209 78.4958 105.694C78.0533 105.145 77.9719 105.044 77.5515 104.555L74.0743 100.63H72.3027ZM58.523 97.4689H59.2012V91.0082H62.2528V90.4184H55.3375V91.0082H58.523V97.4689ZM39.9201 105.027C39.7799 105.338 39.6698 105.662 39.5912 105.994C39.5014 105.635 39.38 105.284 39.2284 104.946L37.3788 100.63H34.8172V107.679H36.4956V102.718C36.4769 102.447 36.465 102.381 36.4345 102.09C36.4893 102.307 36.5601 102.52 36.6464 102.726L38.7673 107.679H40.3847L42.5038 102.624C42.6055 102.373 42.6361 102.287 42.7039 102.084C42.6658 102.302 42.6431 102.521 42.6361 102.742V107.679H44.3144V100.63H41.7714L39.9201 105.027ZM38.3418 97.661C40.9441 97.661 42.5801 95.9624 42.5801 93.9251C42.5801 92.1187 41.2238 90.2179 38.4096 90.1993C35.8276 90.1993 34.1984 91.8575 34.1984 93.9352C34.1984 96.072 35.8581 97.661 38.3418 97.661ZM38.1892 90.806C39.0233 90.7633 39.8509 90.9731 40.5627 91.4075C41.4358 91.9872 41.807 92.9966 41.807 93.8847C41.807 95.9321 40.2812 97.0611 38.3994 97.0611C36.4515 97.0611 34.9443 95.9034 34.9443 93.9656C34.9443 92.4961 35.9191 90.9071 38.1892 90.806ZM28.7072 100.63L25.2809 107.679H27.2204L29.6345 102.624L32.0623 107.679H34.0526L30.6263 100.627L28.7072 100.63ZM29.6566 105.477C29.4983 105.477 29.3436 105.523 29.212 105.611C29.0804 105.698 28.9779 105.822 28.9173 105.968C28.8567 106.113 28.8409 106.273 28.8717 106.427C28.9026 106.581 28.9788 106.723 29.0907 106.834C29.2027 106.946 29.3452 107.021 29.5005 107.052C29.6557 107.083 29.8166 107.067 29.9628 107.007C30.109 106.947 30.234 106.845 30.3219 106.714C30.4098 106.583 30.4568 106.429 30.4568 106.272C30.4563 106.061 30.3719 105.859 30.2219 105.71C30.0719 105.561 29.8687 105.477 29.6566 105.477ZM68.0372 88.4822H66.9217L66.074 89.741H66.5267L68.0372 88.4822ZM70.1869 96.8808H63.7853V94.0633H69.4257V93.4752H63.7853V91.0082H69.8885V90.4184H63.0937V97.4689H70.1869V96.8808ZM54.5543 97.4706V90.4184H53.8761V97.4706H54.5543ZM14.6359 106.813C15.0929 106.408 15.4157 105.875 15.5616 105.284L13.6967 105.295C13.4627 105.723 12.9914 106.622 11.4538 106.622C10.1077 106.622 8.89212 105.704 8.89212 104.167C8.89212 102.819 9.8059 101.709 11.4148 101.709C12.7931 101.709 13.3441 102.551 13.5356 102.848L15.4853 102.607C14.5613 100.585 12.2285 100.416 11.4165 100.416C9.17524 100.416 7.0459 101.496 7.0459 104.154C7.0459 106.619 8.79548 107.928 11.3164 107.928C13.1186 107.922 14.0612 107.342 14.6359 106.813ZM16.6025 100.63V107.679H18.3826V104.646H22.6735V107.679H24.4502V100.63H22.6735V103.347H18.3826V100.63H16.6025ZM83.9276 104.735H88.6017V103.486H83.9276V101.897H88.7627V100.63H82.1509V107.679H88.9645V106.42H83.9276V104.735ZM69.1307 107.679H70.487V103.904H66.6674V105.17H69.0002C68.8973 105.495 68.693 105.779 68.417 105.98C67.8411 106.401 67.141 106.619 66.4267 106.601C64.6991 106.601 63.7447 105.522 63.7447 104.144C63.7447 102.575 64.8602 101.695 66.3775 101.695C67.7236 101.695 68.2424 102.315 68.5272 102.664L70.487 102.395C70.2004 101.842 69.7657 101.379 69.2308 101.057C68.2559 100.467 67.1421 100.382 66.447 100.382C65.8943 100.382 64.0549 100.382 62.8868 101.631C62.2609 102.309 61.9162 103.198 61.9222 104.118C61.9222 105.804 62.8478 107.883 66.2029 107.883C67.2777 107.883 68.3729 107.603 69.1375 106.872L69.1307 107.679ZM57.2261 105.473C57.0678 105.473 56.9129 105.519 56.7811 105.606C56.6493 105.694 56.5464 105.818 56.4856 105.963C56.4248 106.108 56.4087 106.268 56.4394 106.423C56.4701 106.577 56.5461 106.719 56.658 106.83C56.7698 106.942 56.9124 107.018 57.0677 107.049C57.2229 107.079 57.3839 107.064 57.5302 107.004C57.6766 106.943 57.8016 106.842 57.8896 106.711C57.9776 106.58 58.0246 106.426 58.0246 106.269C58.0233 106.059 57.9387 105.858 57.7891 105.709C57.6396 105.561 57.4373 105.477 57.2261 105.477V105.473ZM29.8515 90.8279C30.7857 90.8279 31.7401 91.1464 32.3437 91.8861C32.495 92.0674 32.6295 92.262 32.7455 92.4675L33.3371 92.1305C33.0023 91.5295 32.5041 91.0343 31.8995 90.7015C31.2562 90.3636 30.5385 90.1898 29.8108 90.1959C27.5696 90.1959 25.8217 91.7732 25.8217 93.9116C25.8217 95.5967 26.9762 97.6475 29.8108 97.6475C30.9552 97.6475 32.1504 97.3105 33.0455 96.2489C33.2241 96.0394 33.3825 95.8138 33.5185 95.5748L32.9048 95.285C32.6132 95.7636 31.83 97.0325 29.8532 97.0325C27.7917 97.0325 26.5761 95.6052 26.5761 93.9672C26.5745 92.1372 27.9409 90.8279 29.8515 90.8279ZM56.2852 100.63L52.864 107.679H54.8001L57.2159 102.624L59.6436 107.679H61.634L58.2077 100.627L56.2852 100.63ZM52.8945 104.285C53.226 103.877 53.397 103.362 53.376 102.838C53.3879 102.346 53.2515 101.863 52.9844 101.449C52.4215 100.65 51.4484 100.62 50.694 100.62H46.3217V107.679H48.0679V105.027H50.5516C51.4654 105.027 52.3198 104.983 52.903 104.285H52.8945ZM48.0594 103.78V101.849H50.0616C50.8059 101.849 51.0653 101.849 51.3043 102.059C51.4089 102.159 51.4903 102.281 51.543 102.415C51.5957 102.55 51.6184 102.694 51.6095 102.838C51.6095 103.776 50.8228 103.786 50.2532 103.786L48.0594 103.78ZM48.2781 97.4622L50.9686 91.6704C51.0805 91.4412 51.0992 91.3907 51.1822 91.1902V97.4622H51.8129V90.4184H50.9296L47.9458 96.8808C47.8323 96.5926 47.7933 96.4814 47.6322 96.1326L44.9264 90.4184H44.0313V97.4689H44.6654V91.1969C44.7192 91.3768 44.7902 91.5511 44.8773 91.7176L47.5813 97.4689L48.2781 97.4622Z"
        fill="#1A171B" />
</svg>