<?xml version="1.0" encoding="UTF-8"?> <!-- Generator: Adobe Illustrator 22.1.0, SVG Export Plug-In . SVG Version: 6.00 Build 0) --> <svg xmlns="http://www.w3.org/2000/svg" xmlns:xlink="http://www.w3.org/1999/xlink" version="1.1" id="Layer_1" x="0px" y="0px" viewBox="0 0 97.401 37.687" style="enable-background:new 0 0 97.401 37.687;" xml:space="preserve"> <style type="text/css"> .st0{fill:#ED1C24;} .st1{fill:#FFFFFF;} .st2{fill:#006C32;} .st3{fill:#079247;} .st4{fill:#DB202D;} .st5{fill:#CE2339;} .st6{display:none;} .st7{display:inline;fill:#006C32;stroke:#03A24A;stroke-width:0.25;stroke-miterlimit:2;} .st8{fill:#9E1F63;} .st9{fill:#E6E515;} .st10{fill:#BC2032;} .st11{fill:#055E31;} .st12{fill:#CE2B37;} .st13{display:none;fill:#DB202D;} .st14{display:none;fill:#FFFFFF;} .st15{fill:#005826;} .st16{fill:#F0B829;stroke:#006838;stroke-width:5;stroke-miterlimit:10;} .st17{fill:#F0B829;} </style> <g id="Grape_roundel_no_words"> <path class="st10" d="M78.571,37.687c-10.407,0-18.843-8.436-18.843-18.843S68.164,0,78.571,0s18.843,8.436,18.843,18.843 S88.977,37.687,78.571,37.687"></path> <circle class="st1" cx="78.571" cy="18.843" r="12.562"></circle> <g> <path class="st11" d="M84.339,22.179c-0.062,0.114-0.122,0.228-0.186,0.34c-0.124,0.215-0.284,0.449-0.532,0.445 c-0.272-0.005-0.13-0.339-0.254-0.494c-0.091-0.114-0.121-0.276-0.214-0.387c-0.139-0.167-0.136-0.276,0.054-0.395 c0.321-0.201,0.514-0.524,0.716-0.824c0.251,0.105,0.259,0.373,0.416,0.528C84.339,21.655,84.339,21.917,84.339,22.179z"></path> <path class="st11" d="M81.727,12.286c0.229,0.167,0.276,0.731,0.744,0.369c0.276-0.213,0.29-0.794,0.035-1.132 c-0.078-0.104-0.174-0.197-0.272-0.282c-0.143-0.125-0.317-0.262-0.5-0.2c-0.208,0.07-0.085,0.292-0.087,0.44 c-0.003,0.308-0.076,0.564-0.389,0.672c-0.213,0.074-0.405,0-0.557-0.168c-0.217-0.239-0.2-0.489-0.087-0.779 c0.087-0.223,0.515-0.336,0.289-0.635c-0.243-0.321-0.64-0.351-1.027-0.321c-0.292,0.023-0.54,0.118-0.715,0.403 c0.381,0.172,0.735,0.343,0.913,0.726c0.184,0.396,0.203,0.796-0.19,1.05c-0.402,0.26-0.744,0.06-1.009-0.291 c-0.174-0.23-0.278-0.491-0.307-0.772c-0.044-0.436-0.268-0.411-0.56-0.244c-0.468,0.269-0.73,0.695-0.853,1.2 c-0.106,0.434-0.158,0.882-0.239,1.322c-0.061,0.331-0.132,0.666-0.334,0.942c-0.214,0.292-0.52,0.417-0.825,0.175 c-0.31-0.246-0.38-0.611-0.162-0.953c0.153-0.24,0.395-0.279,0.609-0.041c0.043,0.048,0.062,0.141,0.053,0.207 c-0.019,0.132-0.118,0.123-0.208,0.073c-0.122-0.068-0.212-0.063-0.248,0.088c-0.027,0.113-0.02,0.222,0.071,0.311 c0.09,0.088,0.193,0.112,0.306,0.055c0.2-0.1,0.291-0.281,0.356-0.482c0.258-0.788,0.056-1.493-0.594-2.008 c-0.322-0.255-0.687-0.462-0.984-0.742c-0.388-0.366-0.5-0.843-0.259-1.333c0.232-0.472,0.618-0.75,1.178-0.672 c0.363,0.051,0.611,0.253,0.733,0.607c0.104,0.302,0.113,0.589-0.103,0.847c-0.198,0.237-0.438,0.268-0.701,0.115 c-0.222-0.129-0.302-0.329-0.237-0.57c0.021-0.076,0.106-0.16,0.181-0.189c0.07-0.027,0.119,0.053,0.138,0.136 c0.033,0.147-0.058,0.379,0.206,0.381c0.134,0.001,0.239-0.104,0.282-0.239c0.067-0.211,0.054-0.419-0.132-0.561 c-0.286-0.22-0.605-0.304-0.937-0.098c-0.339,0.21-0.484,0.519-0.377,0.911c0.093,0.342,0.335,0.576,0.623,0.768 c0.436,0.29,0.878,0.574,1.2,1.084c0.223-0.475,0.347-0.984,0.753-1.285c0.68-0.503,1.482-0.79,2.234-1.165 c0.165-0.082,0.447-0.095,0.6-0.008c0.748,0.425,1.619,0.65,2.256,1.243c0.663,0.616,0.456,1.61-0.316,1.799 c-0.223,0.054-0.418,0.016-0.552-0.169C81.595,12.693,81.456,12.495,81.727,12.286z M79.867,11.839 c-0.013-0.353-0.465-0.857-0.772-0.853c-0.177,0.002-0.263,0.086-0.257,0.28c0.015,0.441,0.397,0.938,0.73,0.937 C79.822,12.203,79.884,12.056,79.867,11.839z M81.368,11.377c-0.103-0.06,0.035-0.318-0.213-0.277 c-0.194,0.032-0.317,0.18-0.302,0.396c0.013,0.171,0.061,0.359,0.268,0.344C81.379,11.822,81.304,11.573,81.368,11.377z"></path> <path class="st11" d="M76.247,17.679c-0.007,0.859-0.545,1.473-1.285,1.464c-0.847-0.01-1.416-0.551-1.406-1.338 c0.009-0.787,0.633-1.468,1.332-1.456C75.685,16.363,76.253,16.919,76.247,17.679z"></path> <path class="st11" d="M79.766,19.726c1.103,0.474,1.468,1.186,1.049,2.047c-0.289,0.594-0.931,0.873-1.601,0.695 c-0.599-0.159-0.971-0.707-0.924-1.358c0.055-0.757,0.512-1.3,1.157-1.368c0.111-0.012,0.223-0.002,0.335-0.003L79.766,19.726z"></path> <path class="st11" d="M77.043,23.832c-0.817-0.021-1.442-0.579-1.424-1.272c0.022-0.854,0.613-1.492,1.362-1.47 c0.77,0.022,1.395,0.656,1.38,1.401C78.346,23.184,77.694,23.848,77.043,23.832z"></path> <path class="st11" d="M79.784,19.739c-0.606-0.331-1.157-0.692-1.071-1.52c0.083-0.808,0.639-1.329,1.403-1.283 c0.711,0.043,1.276,0.582,1.29,1.231c0.018,0.829-0.542,1.483-1.308,1.53c-0.111,0.007-0.222,0.018-0.331,0.028 C79.766,19.726,79.784,19.739,79.784,19.739z"></path> <path class="st11" d="M81.895,15.416c-0.009,0.819-0.556,1.414-1.282,1.396c-0.816-0.02-1.42-0.606-1.408-1.364 c0.012-0.763,0.614-1.395,1.322-1.387C81.377,14.071,81.904,14.593,81.895,15.416z"></path> <path class="st11" d="M77.596,15.104c0.84,0.011,1.416,0.532,1.407,1.274c-0.01,0.802-0.622,1.511-1.293,1.496 c-0.809-0.017-1.378-0.596-1.37-1.394C76.346,15.722,76.919,15.095,77.596,15.104z"></path> <path class="st11" d="M82.445,21.755c-0.136-0.054-0.272-0.108-0.408-0.162c-0.724-0.287-1.076-0.873-0.943-1.571 c0.134-0.702,0.689-1.157,1.377-1.129c0.702,0.028,1.194,0.477,1.279,1.167c0.084,0.679-0.372,1.354-1.066,1.58 c-0.088,0.029-0.172,0.068-0.258,0.103L82.445,21.755z"></path> <path class="st11" d="M80.394,24.896c0.556-0.436,1.136-0.716,1.831-0.297c0.597,0.36,0.851,1.2,0.544,1.808 c-0.307,0.609-1.051,0.864-1.731,0.593c-0.65-0.259-0.98-0.964-0.772-1.648c0.048-0.159,0.098-0.318,0.147-0.477 C80.414,24.875,80.394,24.896,80.394,24.896z"></path> <path class="st11" d="M74.539,19.373c0.836-0.001,1.436,0.558,1.425,1.325c-0.011,0.793-0.609,1.439-1.34,1.448 c-0.752,0.009-1.372-0.549-1.387-1.248C73.218,20.045,73.793,19.373,74.539,19.373z M74.128,20.016 c-0.498,0.419-0.551,0.692-0.262,1.055C73.945,20.753,74.024,20.434,74.128,20.016z"></path> <path class="st11" d="M78.701,19.397c-0.001,0.729-0.625,1.385-1.331,1.4c-0.782,0.016-1.398-0.59-1.393-1.369 c0.005-0.795,0.615-1.446,1.345-1.435C78.092,18.005,78.702,18.627,78.701,19.397z M76.933,18.626 c-0.427,0.348-0.669,0.624-0.398,1.149C76.671,19.38,76.782,19.062,76.933,18.626z"></path> <path class="st11" d="M81.626,17.42c0.023-0.867,0.561-1.461,1.301-1.434c0.789,0.028,1.322,0.586,1.308,1.367 c-0.014,0.817-0.597,1.403-1.364,1.37C82.152,18.692,81.608,18.123,81.626,17.42z"></path> <path class="st11" d="M80.672,23.491c0.008-0.166,0.008-0.334,0.026-0.499c0.111-1.013,0.646-1.39,1.747-1.237l-0.018-0.013 c0.566,0.364,0.89,0.862,0.744,1.547c-0.106,0.5-0.41,0.888-0.932,1.016c-0.56,0.137-1.027-0.036-1.364-0.518 c-0.072-0.104-0.143-0.209-0.214-0.313L80.672,23.491z"></path> <path class="st11" d="M80.661,23.474c0.123,0.514-0.078,0.967-0.267,1.422c0,0,0.02-0.021,0.02-0.021 c-0.433,0.211-0.8,0.59-1.373,0.367c-0.615-0.239-0.964-0.578-0.965-1.149c-0.001-0.556,0.226-1.012,0.747-1.271 c0.499-0.248,1.126-0.134,1.536,0.275c0.117,0.117,0.208,0.26,0.312,0.393C80.672,23.491,80.661,23.474,80.661,23.474z M78.943,23.23c-0.518,0.529-0.56,0.785-0.272,1.155C78.752,24.043,78.831,23.706,78.943,23.23z"></path> <path class="st11" d="M78.884,15.328c-0.418-0.221-0.769-0.476-1.222-0.469c-0.253,0.004-0.182-0.186-0.149-0.321 c0.197-0.81,1.242-1.217,1.93-0.762c0.178,0.118,0.235,0.218,0.052,0.383C79.164,14.458,79.018,14.861,78.884,15.328z"></path> <path class="st11" d="M72.35,19.164c0.058-0.287,0.101-0.543,0.251-0.767c0.345-0.515,0.463-0.462,0.839,0.005 c0.439,0.546,0.543,0.953-0.112,1.369c-0.176,0.112-0.162,0.504-0.402,0.453c-0.248-0.053-0.345-0.371-0.451-0.607 C72.407,19.468,72.385,19.298,72.35,19.164z"></path> <path class="st11" d="M76.657,24.116c0.094-0.006,0.186-0.006,0.277-0.018c0.254-0.032,0.608-0.189,0.741-0.078 c0.255,0.213,0.235,0.636,0.429,0.938c0.144,0.224-0.077,0.233-0.223,0.234C77.272,25.198,76.794,24.781,76.657,24.116z"></path> </g> </g> <g> <path class="st10" d="M11.492,12.62H9.557V3.23h1.935V12.62z"></path> <path class="st10" d="M20.165,4.797h-2.876v7.822h-1.935V4.797h-2.837V3.23h7.648V4.797z"></path> <path class="st10" d="M25.795,10.685h-3.392l-0.645,1.935h-2.057l3.495-9.389h1.793l3.515,9.389h-2.057L25.795,10.685z M22.926,9.118h2.347l-1.18-3.515L22.926,9.118z"></path> <path class="st10" d="M31.316,11.066h4.108v1.554h-6.043V3.23h1.935V11.066z"></path> <path class="st10" d="M38.59,12.62h-1.935V3.23h1.935V12.62z"></path> <path class="st10" d="M45.8,10.685h-3.392l-0.645,1.935h-2.057l3.495-9.389h1.793l3.515,9.389h-2.057L45.8,10.685z M42.93,9.118 h2.347l-1.18-3.515L42.93,9.118z"></path> <path class="st10" d="M57.021,12.62h-1.935L51.32,6.442v6.178h-1.935V3.23h1.935l3.773,6.191V3.23h1.928V12.62z"></path> </g> <g> <path d="M33.315,21.018l1.264-6.681h1.928l-2.083,9.389h-1.948l-1.528-6.281l-1.528,6.281h-1.948l-2.083-9.389h1.928l1.27,6.668 l1.548-6.668h1.638L33.315,21.018z"></path> <path d="M39.609,23.726h-1.935v-9.389h1.935V23.726z"></path> <path d="M49.037,23.726h-1.935l-3.766-6.178v6.178h-1.935v-9.389h1.935l3.773,6.191v-6.191h1.928V23.726z"></path> <path d="M56.376,19.657h-3.715v2.515h4.359v1.554h-6.294v-9.389h6.281v1.567h-4.347v2.238h3.715V19.657z"></path> </g> <g> <path class="st11" d="M7.655,31.705c-0.073,1.01-0.446,1.806-1.119,2.386s-1.56,0.871-2.66,0.871c-1.204,0-2.151-0.405-2.841-1.216 S0,31.824,0,30.409v-0.574c0-0.903,0.159-1.698,0.477-2.386c0.318-0.688,0.773-1.216,1.364-1.583 c0.591-0.368,1.278-0.551,2.06-0.551c1.083,0,1.956,0.29,2.618,0.871s1.045,1.395,1.148,2.444H5.733 c-0.047-0.606-0.216-1.046-0.506-1.319s-0.732-0.41-1.325-0.41c-0.645,0-1.127,0.231-1.448,0.693s-0.485,1.179-0.493,2.151v0.709 c0,1.015,0.154,1.756,0.461,2.225c0.307,0.469,0.792,0.703,1.454,0.703c0.598,0,1.044-0.136,1.338-0.41 c0.294-0.273,0.463-0.695,0.506-1.267H7.655z"></path> <path class="st11" d="M14.574,30.764H10.86v2.515h4.359v1.554H8.925v-9.389h6.281v1.567H10.86v2.238h3.715V30.764z"></path> <path class="st11" d="M23.99,34.833h-1.935l-3.766-6.178v6.178h-1.935v-9.389h1.935l3.773,6.191v-6.191h1.928V34.833z"></path> <path class="st11" d="M32.56,27.011h-2.876v7.822h-1.935v-7.822h-2.837v-1.567h7.648V27.011z"></path> <path class="st11" d="M37.139,31.396h-1.541v3.437h-1.935v-9.389h3.489c1.109,0,1.965,0.247,2.567,0.742 c0.602,0.494,0.903,1.193,0.903,2.096c0,0.641-0.139,1.175-0.416,1.603c-0.277,0.428-0.698,0.768-1.261,1.022l2.031,3.837v0.09 h-2.077L37.139,31.396z M35.598,29.829h1.561c0.486,0,0.862-0.124,1.129-0.371c0.267-0.247,0.4-0.588,0.4-1.022 c0-0.443-0.126-0.791-0.377-1.045c-0.252-0.254-0.637-0.38-1.158-0.38h-1.554V29.829z"></path> <path class="st11" d="M47.392,32.898H44l-0.645,1.935h-2.057l3.495-9.389h1.793l3.515,9.389h-2.057L47.392,32.898z M44.523,31.331 h2.347l-1.18-3.515L44.523,31.331z"></path> <path class="st11" d="M52.913,33.279h4.108v1.554h-6.043v-9.389h1.935V33.279z"></path> </g> </svg> 