<?xml version="1.0" encoding="UTF-8"?><svg id="Layer_2" xmlns="http://www.w3.org/2000/svg" viewBox="0 0 467.39 120.42"><defs><style>.cls-1{fill:#1d1d1b;}</style></defs><g id="Layer_1-2"><g><path class="cls-1" d="M123.6,96.64l-3.35,9.45h6.72l-3.36-9.45Zm3.67,10.24h-7.31c-.96,2.7-1.43,4.35-1.43,4.95-.01,.59,.12,1.01,.39,1.26,.27,.24,.73,.43,1.38,.58v.11h-5.67v-.11c.59-.23,1.07-.53,1.43-.92,.36-.39,.76-1.05,1.2-1.99,.45-.93,1.04-2.42,1.8-4.43l4.45-11.84h1.72l4.27,11.81c1.05,2.93,1.82,4.82,2.3,5.66,.47,.84,1.12,1.41,1.93,1.7v.11h-6.61v-.11c.61-.12,1.04-.3,1.3-.51,.26-.22,.38-.61,.36-1.19,0-.58-.5-2.27-1.5-5.08"/><path class="cls-1" d="M139,92.91v17.46c0,1.12,.14,1.89,.39,2.3,.26,.41,.81,.74,1.64,1v.11h-6.31v-.11c.82-.26,1.38-.59,1.64-1,.26-.4,.39-1.17,.38-2.3v-12.78c-.01-1.2-.15-1.99-.42-2.38s-.92-.7-1.93-.95v-.11c1.69-.16,3.2-.58,4.51-1.24h.11Z"/><path class="cls-1" d="M144.31,109.55v-8.84h-2.22v-.11l1.14-.63c.61-.35,1.16-.8,1.64-1.34,.47-.54,1-1.3,1.57-2.28h.12v3.32h3.81v.99h-3.81v9.32c0,1.72,.77,2.57,2.32,2.58,.72,0,1.47-.16,2.24-.47l.11,.13c-1.28,1.18-2.55,1.77-3.8,1.77-2.08,0-3.12-1.49-3.12-4.45"/><path class="cls-1" d="M163.54,106.7c.01-1.89-.41-3.5-1.23-4.81-.82-1.31-1.95-1.97-3.35-1.97s-2.51,.66-3.32,1.97c-.82,1.31-1.23,2.92-1.23,4.81,0,2.51,.66,4.43,1.97,5.77,.72,.72,1.58,1.07,2.59,1.07s1.88-.35,2.58-1.07c1.31-1.32,1.97-3.24,1.99-5.77m.5,5.23c-1.41,1.46-3.09,2.19-5.07,2.19s-3.66-.73-5.05-2.18c-1.39-1.45-2.09-3.2-2.09-5.27s.7-3.8,2.12-5.22c1.42-1.42,3.09-2.12,5.03-2.12s3.62,.7,5.04,2.12c1.42,1.42,2.13,3.15,2.12,5.2,.01,2.05-.69,3.81-2.09,5.27"/><path class="cls-1" d="M176.67,101.18c-.54-.86-1.28-1.3-2.22-1.3s-1.68,.42-2.22,1.26c-.54,.84-.81,1.86-.8,3.08,0,1.22,.26,2.27,.77,3.15,.5,.88,1.24,1.32,2.22,1.34,.97,0,1.73-.43,2.26-1.28s.78-1.89,.78-3.11-.27-2.27-.8-3.13m-5.63,17.75c.82,.55,1.95,.84,3.39,.84s2.72-.34,3.81-1,1.65-1.55,1.65-2.68c0-1.36-.96-2.09-2.88-2.16l-4.49-.19c-.12,0-.28-.01-.47-.05-1.5,.82-2.24,1.84-2.24,3.04,0,.91,.41,1.65,1.23,2.2m1.26-10.12c-.65,.61-.97,1.19-.96,1.72,0,.74,.59,1.14,1.77,1.19l3.96,.2c3.07,.15,4.62,.99,4.62,3.2-.01,1.11-.46,2.08-1.34,2.92-1.68,1.58-3.99,2.38-6.95,2.38-1.53,0-2.85-.27-3.97-.81-1.12-.54-1.68-1.31-1.66-2.32,0-1.45,1.35-2.66,4.04-3.65-1.26-.26-2.05-.97-2.05-1.85,0-1.11,.74-2.13,2.24-3.08-.86-.41-1.57-.99-2.11-1.74-.53-.76-.8-1.66-.8-2.72,0-1.46,.5-2.65,1.51-3.55,1.01-.91,2.19-1.36,3.5-1.36s2.47,.3,3.46,.88l4.53-.88-.22,1.82-3.62-.36c1.05,.85,1.58,1.99,1.58,3.42s-.51,2.62-1.54,3.58c-1.03,.95-2.28,1.42-3.78,1.42-.82,0-1.57-.14-2.22-.39"/><path class="cls-1" d="M186.79,101.26c-.72,.88-1.16,2.13-1.34,3.77l7.08-.26c-.01-3.23-1.05-4.84-3.13-4.84-1.01,0-1.89,.45-2.61,1.32m-1.41,4.32v.74c0,1.86,.47,3.34,1.41,4.42s2.18,1.62,3.7,1.62,2.93-.54,4.23-1.64l.16,.11c-.45,.76-1.13,1.49-2.09,2.2-.96,.72-2.12,1.07-3.5,1.07-1.81-.01-3.31-.65-4.49-1.9-1.18-1.26-1.77-3.01-1.77-5.24s.66-4.07,1.97-5.49c1.31-1.42,2.88-2.13,4.67-2.15,3.39,0,5.09,1.85,5.09,5.54,0,.26-.01,.5-.03,.72h-9.36Z"/><path class="cls-1" d="M198.26,109.55v-8.84h-2.22v-.11l1.14-.63c.61-.35,1.16-.8,1.64-1.34,.47-.54,1-1.3,1.57-2.28h.12v3.32h3.81v.99h-3.81v9.32c0,1.72,.77,2.57,2.32,2.58,.72,0,1.47-.16,2.24-.47l.11,.13c-1.28,1.18-2.55,1.77-3.8,1.77-2.08,0-3.12-1.49-3.12-4.45"/><path class="cls-1" d="M217.04,104.06c0-2.18-1.08-3.27-3.26-3.28-1.07,0-2.3,.39-3.66,1.19v8.32c0,1.17,.14,1.99,.41,2.41,.27,.42,.81,.74,1.62,.97v.11h-6.31v-.11c.82-.26,1.38-.61,1.64-1.03,.26-.42,.39-1.2,.38-2.35v-12.54c0-1.22-.14-2.03-.41-2.43-.27-.4-.92-.76-1.95-1.05v-.11c1.27-.07,2.77-.49,4.51-1.24h.11v8.66c1.82-1.5,3.49-2.24,4.99-2.24,1.23,0,2.23,.38,2.99,1.15,.76,.77,1.14,1.97,1.14,3.64v5.54c0,1.5,.12,2.47,.35,2.95,.23,.47,.78,.82,1.66,1.07v.11h-6.22v-.11c.82-.26,1.36-.61,1.62-1.03,.26-.42,.38-1.2,.39-2.35v-6.23Z"/><path class="cls-1" d="M226.96,101.26c-.72,.88-1.16,2.13-1.34,3.77l7.08-.26c-.01-3.23-1.05-4.84-3.13-4.84-1.01,0-1.89,.45-2.61,1.32m-1.41,4.32v.74c0,1.86,.47,3.34,1.41,4.42,.93,1.08,2.18,1.62,3.7,1.62s2.93-.54,4.23-1.64l.16,.11c-.45,.76-1.13,1.49-2.09,2.2-.96,.72-2.12,1.07-3.5,1.07-1.81-.01-3.31-.65-4.49-1.9-1.18-1.26-1.77-3.01-1.77-5.24s.66-4.07,1.97-5.49c1.31-1.42,2.88-2.13,4.67-2.15,3.39,0,5.09,1.85,5.09,5.54,0,.26-.01,.5-.03,.72h-9.36Z"/><path class="cls-1" d="M244.49,102.48c-.45,0-.81-.15-1.12-.46-.31-.31-.46-.68-.46-1.11,0-.88,.7-1.58,1.58-1.58,.45,0,.81,.15,1.12,.46,.31,.31,.46,.68,.46,1.12s-.15,.81-.46,1.12c-.31,.3-.68,.45-1.12,.45m-3.3-3.15v10.96c0,1.16,.15,1.96,.46,2.38,.31,.42,.95,.76,1.92,1v.11h-6.58v-.11c.82-.26,1.38-.59,1.64-1.01,.26-.42,.39-1.2,.38-2.36v-6.12c0-1.22-.13-2.03-.39-2.43-.27-.4-.92-.76-1.96-1.05v-.11c1.2-.05,2.68-.47,4.43-1.24h.11Z"/><path class="cls-1" d="M269.13,100.44c0-2.04-.14-3.42-.42-4.14-.28-.72-.87-1.22-1.77-1.51v-.11h5.39v.11c-.63,.2-1.11,.49-1.39,.82-.28,.34-.49,.86-.61,1.58-.12,.72-.18,1.8-.19,3.24v8.19c0,1.74-.66,3.11-1.99,4.09-1.32,.99-3.09,1.49-5.31,1.47-2.22,0-4.01-.5-5.39-1.5-1.38-1-2.07-2.35-2.05-4.07v-10.32c0-1.15-.16-1.96-.47-2.43-.31-.47-.95-.84-1.88-1.08v-.11h7.03v.11c-.93,.24-1.57,.61-1.88,1.08-.31,.47-.47,1.28-.47,2.43v10.71c0,1.23,.47,2.23,1.42,3,.95,.77,2.3,1.15,4.05,1.15s3.19-.4,4.28-1.2c1.09-.8,1.65-1.95,1.65-3.42v-8.11Z"/><path class="cls-1" d="M284.93,104.06c0-2.18-1.08-3.27-3.26-3.28-1.07,0-2.3,.39-3.66,1.19v8.4c0,1.12,.14,1.89,.39,2.3,.26,.41,.81,.74,1.64,1v.11h-6.23v-.11c.82-.26,1.38-.59,1.64-1,.26-.4,.39-1.17,.38-2.3v-5.86c0-1.07-.05-1.84-.18-2.31-.12-.47-.32-.81-.61-1.03-.28-.22-.81-.42-1.57-.62v-.11c1.47-.11,2.95-.47,4.41-1.11h.11v2.24c1.81-1.5,3.51-2.24,5.09-2.24,1.17,0,2.15,.38,2.9,1.15,.76,.77,1.14,1.97,1.14,3.61v6.2c.01,1.15,.13,1.93,.39,2.35,.26,.42,.8,.77,1.62,1.03v.11h-6.22v-.11c.82-.26,1.36-.61,1.62-1.03,.26-.42,.38-1.2,.39-2.35v-6.23Z"/><path class="cls-1" d="M292.82,96.72c-.28-.31-.43-.66-.43-1.05s.15-.74,.45-1.04c.3-.3,.65-.45,1.05-.45s.76,.15,1.05,.45c.3,.3,.45,.65,.45,1.05s-.15,.76-.45,1.04c-.3,.28-.65,.43-1.07,.45-.42,0-.77-.15-1.05-.45m2.2,2.61v11.04c0,1.12,.14,1.89,.39,2.3,.26,.4,.81,.74,1.64,1v.11h-6.23v-.11c.82-.26,1.38-.59,1.64-1,.26-.41,.39-1.18,.38-2.3v-6.47c0-1.17-.13-1.96-.42-2.35-.28-.39-.93-.72-1.93-1v-.11c1.5-.11,2.97-.47,4.43-1.11h.11Z"/><path class="cls-1" d="M309.87,111.48v-10.07c-.45-.35-1.01-.68-1.73-.97-.72-.3-1.42-.45-2.12-.45-1.47,0-2.65,.59-3.5,1.8s-1.28,2.74-1.28,4.65,.5,3.36,1.49,4.39c.99,1.03,2.2,1.54,3.64,1.54s2.61-.3,3.51-.89m2.27-12.15v17.05c0,1.22,.13,2.07,.41,2.55,.27,.49,.81,.85,1.61,1.09v.11h-6.58v-.11c.93-.24,1.55-.61,1.85-1.09,.3-.49,.45-1.34,.45-2.55v-4.54c-.55,.61-1.26,1.14-2.12,1.58-.87,.45-1.78,.68-2.74,.69-1.55,.01-2.96-.59-4.2-1.8s-1.86-2.87-1.86-4.96c0-2.45,.77-4.4,2.3-5.85,1.53-1.45,3.4-2.18,5.62-2.18,1.07,0,2.26,.16,3.54,.47l1.5-.47h.24Z"/><path class="cls-1" d="M328.38,99.33v9.55c0,1.55,.12,2.54,.38,2.97,.26,.43,.91,.77,1.97,1.03v.12c-1.46,.15-2.92,.51-4.38,1.11h-.11v-2.19c-1.72,1.46-3.3,2.19-4.76,2.19-2.69,0-4.04-1.5-4.04-4.51v-5.07c0-1.09-.05-1.86-.18-2.34-.12-.47-.34-.81-.62-1.03-.28-.22-.81-.42-1.55-.62v-.11c1.5-.11,2.97-.47,4.42-1.11h.12v10.27c0,.96,.28,1.69,.87,2.19,.58,.5,1.41,.74,2.45,.74s2.12-.32,3.24-.97v-7.66c0-1.2-.13-1.99-.4-2.36-.27-.38-.92-.7-1.95-.99v-.11c1.5-.11,2.97-.47,4.43-1.11h.11Z"/><path class="cls-1" d="M336.03,101.26c-.72,.88-1.16,2.13-1.34,3.77l7.08-.26c-.01-3.23-1.05-4.84-3.13-4.84-1.01,0-1.89,.45-2.61,1.32m-1.41,4.32v.74c0,1.86,.47,3.34,1.41,4.42,.93,1.08,2.18,1.62,3.7,1.62s2.93-.54,4.23-1.64l.16,.11c-.45,.76-1.13,1.49-2.09,2.2-.96,.72-2.12,1.07-3.5,1.07-1.81-.01-3.31-.65-4.49-1.9-1.18-1.26-1.77-3.01-1.77-5.24s.66-4.07,1.97-5.49c1.31-1.42,2.88-2.13,4.67-2.15,3.39,0,5.09,1.85,5.09,5.54,0,.26-.01,.5-.03,.72h-9.36Z"/><path class="cls-1" d="M349.04,113.67c-.66,.66-1.69,.66-2.35,0-.66-.66-.66-1.69,0-2.35,.66-.66,1.69-.66,2.35,0,.66,.66,.66,1.69,0,2.35"/><path class="cls-1" d="M88.55,52.7c-1.72-4.96-5.89-8.58-10.88-9.7-1.31-.35-2.69-.54-4.11-.54-8.75,0-15.86,7.12-15.86,15.86,0,5.67,2.99,10.65,7.47,13.45-1.92-.28-3.78-.84-5.57-1.71-4.56-2.21-7.99-6.06-9.66-10.85l-.02-.06c-.82-2.35-1.52-4.39-1.52-15.08V7.96c0-4.16-3.2-7.59-7.27-7.96V35.3c0,10.42-3.16,14.99-11.08,19.53-1.8,.87-3.69,1.44-5.63,1.72,4.38-2.83,7.29-7.75,7.29-13.34,0-8.74-7.12-15.86-15.86-15.86-.6,0-1.19,.04-1.78,.1-5.65,.45-10.59,4.06-12.72,9.33-.88,1.97-1.37,4.14-1.37,6.43,0,.28,0,.55,.02,.83,.06,8.07,5.13,15.61,13.18,18.41,2.79,.97,5.69,1.46,8.6,1.46,3.94,0,7.77-.88,11.37-2.63,3.26-1.58,6.09-3.77,8.39-6.43,.33,2.62,.86,4.55,1.61,6.71,1.82,5.24,5.18,9.66,9.64,12.79-2.54-1.13-5.35-1.76-8.31-1.76-11.33,0-20.55,9.22-20.55,20.55s9.22,20.55,20.55,20.55,20.55-9.22,20.55-20.55c0-6.77-3.29-12.78-8.36-16.53,3.54,1.68,7.29,2.53,11.15,2.53,2.92,0,5.81-.49,8.6-1.46,10.22-3.55,15.64-14.75,12.09-24.97"/><path class="cls-1" d="M356.96,52.16h-4.85v12.62c-.65-1.33-2.5-3-6.15-3-5.89,0-9.96,4.94-9.96,10.95s4.03,11.04,10.05,11.04c2.97,0,5.16-1.46,6.14-3.22,0,.86,.13,2.23,.22,2.7h4.76c-.04-.35-.21-1.93-.21-3.82v-27.28Zm-15.98,20.58c0-4,2.41-6.54,5.67-6.54s5.5,2.49,5.5,6.49-2.28,6.7-5.55,6.7-5.63-2.66-5.63-6.66m-21.95-1.55c0-2.75,1.51-4.94,4.34-4.94,3.14,0,4.3,2.06,4.3,4.64v12.37h4.98v-13.23c0-4.6-2.45-8.29-7.56-8.29-2.32,0-4.81,.98-6.19,3.39v-2.78h-4.85v20.91h4.98v-12.07Zm-19.27,8.81c-1.98,0-3.05-1.29-3.05-2.71,0-1.72,1.24-2.58,2.79-2.84l5.46-.82v.95c0,4.08-2.41,5.41-5.2,5.41m-8.03-2.41c0,3.31,1.96,6.31,6.34,6.31,3.39,0,6.19-1.72,7.19-3.3,0,1.67,.17,2.53,.21,2.66h4.64c-.04-.21-.26-1.46-.26-3.34v-10.4c0-4.17-2.45-7.81-8.89-7.81-5.15,0-8.42,3.22-8.8,6.82l4.55,1.03c.21-2.11,1.67-3.78,4.3-3.78s3.95,1.41,3.95,3.18c0,.73-.35,1.33-1.55,1.51l-5.37,.82c-3.56,.51-6.31,2.58-6.31,6.31m-3.26-25.43h-4.98v31.09h4.98v-31.09Zm-19.27,27.84c-1.98,0-3.05-1.29-3.05-2.71,0-1.72,1.24-2.58,2.79-2.84l5.46-.82v.95c0,4.08-2.41,5.41-5.2,5.41m-8.03-2.41c0,3.31,1.96,6.31,6.34,6.31,3.39,0,6.2-1.72,7.18-3.3,0,1.67,.17,2.53,.22,2.66h4.63c-.05-.21-.26-1.46-.26-3.34v-10.4c0-4.17-2.45-7.81-8.89-7.81-5.15,0-8.42,3.22-8.8,6.82l4.55,1.03c.21-2.11,1.67-3.78,4.3-3.78s3.95,1.41,3.95,3.18c0,.73-.35,1.33-1.55,1.51l-5.37,.82c-3.56,.51-6.31,2.58-6.31,6.31m-7.62-1.63c-.68,2.06-2.23,3.66-5.24,3.66s-5.59-2.28-5.71-5.46h15.29c.05-.09,.13-.77,.13-1.58,0-6.62-3.78-10.86-10.22-10.86-5.29,0-10.18,4.37-10.18,10.99,0,7.09,5.02,11.21,10.69,11.21,5.03,0,8.33-2.96,9.45-6.61l-4.21-1.33Zm-10.83-5.45c.17-2.24,1.98-4.64,5.11-4.64,3.44,0,5.07,2.19,5.15,4.64h-10.27Zm-7.08,12.75v-4.89h-17.31l17.09-20.67v-4.89h-23.07v4.85h16.41l-16.88,20.53v5.06h23.75Z"/><path class="cls-1" d="M181.95,62.35l-4.94,14.47-4.25-14.47h-5.32l6.78,20.91h5.11l5.07-15.03,5.2,15.03h4.98l6.7-20.91h-5.07l-4.17,14.47-4.94-14.47h-5.15Zm-19.71,13.61c-.69,2.06-2.24,3.66-5.24,3.66s-5.59-2.28-5.72-5.46h15.29c.04-.09,.13-.77,.13-1.58,0-6.62-3.78-10.86-10.22-10.86-5.29,0-10.18,4.37-10.18,10.99,0,7.09,5.02,11.21,10.7,11.21,5.02,0,8.33-2.96,9.44-6.61l-4.2-1.33Zm-10.83-5.45c.17-2.24,1.97-4.64,5.11-4.64,3.44,0,5.07,2.19,5.16,4.64h-10.27Zm-8.45,12.75v-30.45h-5.15v21.6l-13.83-21.6h-6.57v30.45h5.15v-23.06l15.04,23.06h5.36Z"/><path class="cls-1" d="M462.93,75.95c-.69,2.06-2.23,3.65-5.24,3.65s-5.59-2.28-5.72-5.46h15.29c.04-.09,.13-.77,.13-1.59,0-6.62-3.78-10.86-10.22-10.86-5.29,0-10.18,4.38-10.18,10.99,0,7.09,5.02,11.21,10.7,11.21,5.03,0,8.33-2.96,9.45-6.61l-4.21-1.33Zm-10.83-5.45c.17-2.24,1.97-4.65,5.11-4.65,3.43,0,5.07,2.2,5.16,4.65h-10.27Zm-22.82,.68c0-2.75,1.5-4.94,4.34-4.94,3.14,0,4.3,2.06,4.3,4.64v12.37h4.98v-13.23c0-4.59-2.44-8.28-7.55-8.28-2.32,0-4.81,.98-6.19,3.39v-2.79h-4.85v20.91h4.98v-12.07Zm-15.32-16.19c0,1.8,1.46,3.22,3.22,3.22s3.26-1.42,3.26-3.22-1.46-3.27-3.26-3.27-3.22,1.46-3.22,3.27m5.71,7.34h-4.93v20.91h4.93v-20.91Zm-18.94,12.88l-7.26-22.42h-5.37l-7.13,22.24-6.1-22.24h-5.41l8.64,30.45h5.28l7.39-23.02,7.39,23.02h5.33l8.54-30.45h-5.32l-5.97,22.42Z"/></g></g></svg>