<svg xmlns="http://www.w3.org/2000/svg" xmlns:xlink="http://www.w3.org/1999/xlink" width="80" height="113" viewBox="0 0 80 113">
    <defs>
        <path id="0y8p42hb9a" d="M0.193 0.1L19.777 0.1 19.777 61.686 0.193 61.686z"/>
        <path id="4i4fty1t0c" d="M9 103L71 103 71 10 9 10z"/>
    </defs>
    <g fill="none" fill-rule="evenodd">
        <g>
            <g transform="translate(-208 -1) translate(208 1)">
                <path fill="#FFF" d="M0 0H80V113H0z"/>
                <path fill="#832555" d="M23.1 87.126c-.556-1.945-1.44-4.076-4.289-4.076-2.521 0-3.635 1.698-3.635 3.366 0 2.254 1.572 3.335 4.159 4.57C21.922 92.253 25 93.674 25 97.164c0 3.242-2.914 5.836-7.27 5.836-1.343 0-2.423-.247-3.209-.463-.818-.247-1.31-.494-1.637-.649-.23-.648-.655-3.304-.884-4.787l.982-.215c.491 1.883 1.965 5.002 5.37 5.002 2.489 0 3.93-1.451 3.93-3.706 0-2.285-1.8-3.366-4.257-4.601-2.095-1.081-5.403-2.595-5.403-6.084 0-2.965 2.522-5.497 6.746-5.497 1.506 0 2.881.34 4.125.71.132 1.081.295 2.317.558 4.262l-.95.154zM52 84.805c-1.982.258-2.24.489-3.102 2.875-.632 1.839-2.384 7.271-4.74 15.32h-.89c-1.58-4.628-3.562-10.176-5.026-14.343h-.058c-1.608 5.058-3.217 9.687-4.682 14.343h-.89c-1.523-5.202-3.131-10.262-4.71-15.378-.719-2.357-1.15-2.616-2.902-2.817V84h6.98v.805c-2.097.258-2.155.489-1.724 1.954 1.12 3.88 2.241 7.761 3.505 11.843h.057c1.551-4.887 3.188-9.658 4.653-14.344h.834c1.608 4.743 3.274 9.4 5.026 14.373h.057c1.207-3.852 2.815-9.486 3.247-11.527.401-1.725.287-2.04-1.954-2.299V84H52v.805zM68 98.381c-.186.965-.805 3.713-1.084 4.619H52v-.819c2.817-.204 3.064-.438 3.064-2.835V87.712c0-2.601-.247-2.718-2.661-2.894V84h13.802c0 .73.155 2.718.248 4.209l-.898.117c-.279-1.228-.588-1.87-.99-2.485-.433-.643-1.269-.847-3.497-.847h-2.352c-.96 0-1.021.087-1.021.935v6.665h2.908c2.817 0 2.971-.234 3.343-2.193h.897v5.583h-.897c-.402-2.075-.619-2.25-3.311-2.25h-2.94v5.525c0 1.373.185 2.016.742 2.367.588.38 1.672.38 3.219.38 2.352 0 3.218-.234 3.9-.993.525-.586 1.113-1.608 1.547-2.749l.897.117z"/>
                <g transform="translate(30 10)">
                    <mask id="eilswz23ub" fill="#fff">
                        <use xlink:href="#0y8p42hb9a"/>
                    </mask>
                    <path fill="#832555" d="M18.289 36.227c-.005.155-.148.265-.304.236-.775-.147-2.908-.525-4.263-.525-1.28 0-2.24.494-2.706.695-.14.06-.295-.038-.3-.186-.054-1.878.016-9.573.016-9.573s.785-1.129 2.915-1.129c2.318 0 3.072.459 4.632.568.146.01.263.123.261.266-.017 2.013-.207 8.224-.251 9.648zm-8.258.106c0 .197-.224.32-.394.212-.43-.276-1.233-.63-2.528-.63-2.12 0-3.953.725-3.953.725s.037 21.678.703 22.544c-1 0-1.259-1.01-1.259-1.01S1.564 21.527 1.527 20.84c-.037-.685.016-1.047.63-2.38.409-.89 1.332-1.727 1.875-2.167.078-.063.183.032.128.115-.513.783-.902 1.505-1.29 3.207-.287 2.623-.058 6.53-.058 6.53s.974-.334 3.781-.334c2.807 0 3.438 1.06 3.438 1.06v9.46zM8.06 3.79l.821-.012s-.091 7.712-.261 8.616c-.098.795-.705 1.518-1.058 1.585.027-.108.384-1.407.376-1.897-.008-.49.123-8.292.123-8.292zm11.672 17.956c.083-1.257.32-3.588-2.458-5.522 0 0-4.295-2.309-4.295-4.293 0-.364-.042-1.18-.082-2.537V3.777c.3-.04.535-.28.535-.582V.697c0-.33-.274-.598-.612-.598H7.149c-.338 0-.612.268-.612.598v2.498c0 .303.234.543.534.582v5.618c-.04 1.356-.082 2.173-.082 2.537 0 1.984-4.295 4.293-4.295 4.293C-.084 18.159.154 20.49.236 21.747c-.028.131-.043.266-.043.405l1.098 37.427c.028.965.84 1.733 1.83 1.733l4.254.267.747.048c.323.02.646.035.97.045l.233.004c.22.005.44.01.66.01.22 0 .44-.005.66-.01l.233-.004c.324-.01.647-.024.97-.045l.746-.048 4.255-.267c.99 0 1.801-.768 1.829-1.733l1.098-37.427c0-.139-.015-.274-.043-.405z" mask="url(#eilswz23ub)"/>
                </g>
                <mask id="bxdlul05yd" fill="#fff">
                    <use xlink:href="#4i4fty1t0c"/>
                </mask>
                <path fill="#832555" d="M9 79L71 79 71 78 9 78z" mask="url(#bxdlul05yd)"/>
            </g>
        </g>
    </g>
</svg>
