<?xml version="1.0" encoding="utf-8"?>
<!-- Generator: Adobe Illustrator 19.2.0, SVG Export Plug-In . SVG Version: 6.00 Build 0)  -->
<svg version="1.1" id="Layer_1" xmlns="http://www.w3.org/2000/svg" xmlns:xlink="http://www.w3.org/1999/xlink" x="0px" y="0px"
	 viewBox="0 0 170 55" style="enable-background:new 0 0 170 55;" xml:space="preserve">
<style type="text/css">
	.st0{fill:#276194;}
</style>
<g>
	<g id="XMLID_77_">
		<path id="XMLID_100_" class="st0" d="M33.5,55C15,55,0,42.7,0,27.5S15,0,33.5,0C52,0,67.1,12.3,67.1,27.5S52,55,33.5,55z
			 M33.5,1.8C16,1.8,1.8,13.3,1.8,27.5S16,53.2,33.5,53.2c17.5,0,31.7-11.5,31.7-25.7S51,1.8,33.5,1.8z"/>
		<g id="XMLID_78_">
			<path id="XMLID_99_" class="st0" d="M49.7,24.3c1,0,2-0.8,2-1.8h-3.8C47.9,23.5,48.7,24.3,49.7,24.3z"/>
			<path id="XMLID_82_" class="st0" d="M19.4,31.2c0.6-2,1.7-4,2.9-5.8c1.3-2,3-3.8,3.5-4c-1.1-0.2-2.2,0.7-3.6,2.8
				c-0.8,1.2-2.2,3.9-4.3,5.3c-2,1.4-4.2-0.2-4.2-0.5c0-0.3,2.6,1.3,4.1-2.6c0.2-0.5,0.4-1,0.7-1.5c-1.1,0.3-2.1-0.4-2-0.6
				c0-0.2,1.7,0.9,2.7-1.7c1.4-3.7,2.7-4.4,4.6-5.1c0.1,0-0.1-1.2,1.3-2.9l0-0.8l0.1-0.1c0.5-0.4,0.7-0.9,0.8-1.6c0.1,0,0.2,0,0.3,0
				c0.4,0,0.9,0,1.4-0.4c0.2-0.1,0.3-0.3,0.5-0.5l0,0l0.1,0c0.3,0,0.7-0.1,1-0.3c0.5-0.3,0.9-0.7,1.3-1.3l0,0
				c0.1-0.2,0.2-0.3,0.3-0.5c0.4,0,0.8-0.1,1.1-0.3c0.3-0.1,0.5-0.3,0.7-0.5c0,0-0.1,0.1-0.1,0.2c-0.3,0.5-0.7,1.3-1.4,2.1
				c-0.3,0.4-0.7,0.8-1.2,1.1c-0.1,0-0.1,0.1-0.2,0.1l-0.2,0.1c-0.1,0-0.1,0.1-0.2,0.1l-0.2,0.1l-0.1,0l0,0c0,0-0.1,0-0.1,0
				l-0.2,0.1c-0.2,0-0.3,0.1-0.5,0.2c-0.7,0.3-1.3,0.7-1.7,1.3c-0.4,0.6-0.7,1.3-1,2c-0.2,0.7-0.4,1.4-0.5,2
				c-0.1,0.3-0.2,0.7-0.3,0.9c0,0,0,0,0,0.1c0,0,0,0,0,0c0,0,0,0,0,0c0,0,0,0,0,0l-0.1,0l0,0c-0.2,0-0.4,0-0.5,0
				c-0.2,0-0.3,0.1-0.5,0.1c-0.2,0-0.3,0.1-0.5,0.2c-0.3,0.2-0.6,0.4-0.8,0.7c-0.4,0.6-0.5,1.1-0.7,1.6c-0.2,0.5-0.4,0.9-0.6,1.3
				c-0.2,0.4-0.4,0.6-0.6,0.9c-0.2,0.2-0.4,0.4-0.5,0.5c-0.1,0.1-0.2,0.2-0.2,0.2s0.1-0.1,0.2-0.1c0.1-0.1,0.3-0.2,0.6-0.4
				c0.2-0.2,0.5-0.5,0.8-0.8c0.3-0.3,0.5-0.8,0.7-1.3c0.2-0.5,0.4-1,0.7-1.5c0.1-0.2,0.4-0.4,0.6-0.5c0.1,0,0.3-0.1,0.4-0.1
				c0.1,0,0.3,0,0.4-0.1c0.2,0,0.3,0,0.5,0l0,0l0.1,0l0,0l0.1,0c0,0,0.1,0,0.1,0c0,0,0.1,0,0.1-0.1c0.1,0,0.1-0.1,0.2-0.1l0.1-0.1
				c0.2-0.4,0.3-0.7,0.4-1.1c0.2-0.7,0.3-1.4,0.5-2c0.2-0.6,0.5-1.3,0.8-1.8c0.4-0.5,0.8-0.9,1.4-1.2c0.1-0.1,0.3-0.1,0.4-0.2
				l0.2-0.1l0.1,0l0,0c0,0,0,0,0,0l0,0l0.1,0l0.2-0.1c0.1,0,0.2-0.1,0.2-0.1l0.2-0.1c0.1,0,0.1-0.1,0.2-0.1c0.5-0.4,0.9-0.8,1.2-1.3
				c0.6-0.9,0.9-1.7,1.2-2.3c0.1-0.1,0.1-0.3,0.1-0.4C33,8,33,8,33,8c0.1-0.1,0.1-0.1,0.1-0.2c0.4,0,0.9-0.2,1.2-0.6c0,0,0,0,0,0
				c0.4,0.2,0.9,0.3,1.3,0.5c0.5,0.3,1,0.6,1.3,1.1c-0.1,0-0.3,0.1-0.5,0.2c0,0-0.1,0.1-0.2,0.1l-0.1,0.1l-0.2,0.2
				c-0.1,0.1-0.2,0.3-0.3,0.4c-0.1,0.1-0.2,0.3-0.3,0.4c-0.2,0.2-0.4,0.4-0.7,0.6c-0.3,0.2-0.6,0.3-0.9,0.4
				c-0.2,0.1-0.3,0.2-0.5,0.4c-0.1,0.2-0.2,0.3-0.3,0.5C33,12.5,33,12.8,32.8,13c-0.2,0.2-0.5,0.4-0.8,0.6l-0.4,0.3l-0.2,0.1
				L31.2,14l-0.1,0l0,0c0,0,0,0-0.1,0c-0.1,0.1,0.1,0.3,0.1,0.3c0.1,0,0,0,0,0l0,0l1-0.1c0.3,0,0.7-0.1,1-0.1c0.2,0,0.3,0,0.5,0
				c0.2,0,0.3,0,0.5,0c0.4,0,0.7-0.1,1-0.4c0.2-0.3,0.3-0.6,0.5-0.9c-0.2,0.3-0.3,0.6-0.5,0.9c-0.2,0.2-0.6,0.3-0.9,0.3
				c-0.2,0-0.3-0.1-0.5-0.1c-0.2,0-0.3,0-0.5,0c-0.3,0-0.7,0-1,0L32,14c0.1,0,0.1-0.1,0.2-0.1c0.3-0.2,0.6-0.3,0.9-0.6
				c0.3-0.3,0.4-0.7,0.5-1c0.1-0.1,0.1-0.3,0.2-0.4c0.1-0.1,0.2-0.2,0.3-0.3c0.3-0.1,0.6-0.3,1-0.4c0.3-0.2,0.6-0.4,0.9-0.7
				c0.1-0.2,0.2-0.3,0.3-0.4c0.1-0.1,0.2-0.2,0.3-0.4l0.2-0.2l0.1-0.1c0,0,0,0,0,0c0.1-0.1,0.2-0.1,0.4-0.1c0.1,0,0.2,0,0.3,0
				c0,0,0,0,0,0c0.2,0.1,0.5,0.2,0.7,0.3c0.1,0.1,0.1,0.1,0.2,0.1l0,0c0,0,0,0,0,0l0.1,0l0.2,0.1l0.1,0c0,0,0.1,0.1,0.1,0.1
				c-0.2,0-0.3,0.1-0.5,0.1c-0.2,0.1-0.5,0.2-0.7,0.3c-0.2,0.2-0.4,0.4-0.5,0.7l0,0.2l0,0.1c0,0.1,0,0.2-0.1,0.3
				c-0.1,0.2-0.1,0.3-0.2,0.4c-0.1,0.1-0.3,0.2-0.5,0.5c-0.2,0.2-0.3,0.5-0.4,0.7c0,0.1-0.1,0.2-0.1,0.4L36,14.2
				c0,0.2-0.1,0.4-0.1,0.6c0,0.2-0.1,0.3-0.2,0.4c0,0,0,0-0.1,0c0,0,0,0,0,0l0,0l0,0c0,0-0.3,0.1-0.3,0.1c-0.2,0-0.4,0.1-0.7,0.2
				c-0.2,0.1-0.4,0.1-0.7,0.2c-0.1,0.1-0.2,0.1-0.3,0.2c-0.1,0.1-0.2,0.2-0.3,0.4c-0.1,0.2-0.1,0.4-0.1,0.5
				c-0.1,0.1-0.3,0.1-0.5,0.2c0,0-0.1,0-0.2,0.1c-0.1,0-0.2,0.1-0.2,0.2c-0.1,0.1-0.1,0.2-0.1,0.2c0,0,0,0.1,0,0.1c0,0,0,0.1,0,0.1
				c0,0.3,0,0.4,0,0.6c0,0.2,0.1,0.4,0.1,0.6c0,0.1,0,0.2,0.1,0.3c0,0.1,0.1,0.2,0.1,0.3c0.1,0.2,0.1,0.3,0.2,0.5
				c0.1,0.3,0.1,0.6,0,0.9c-0.1,0.1-0.1,0.3-0.2,0.4c-0.1,0.1-0.2,0.2-0.3,0.4c-0.2,0.3-0.5,0.4-0.8,0.6c-0.3,0.2-0.7,0.3-1,0.5
				L30,22.9L29.7,23l-0.5,0.2l-0.6,0.2l1.4-1.4c0.3-0.3,0.5-0.5,0.8-0.8c0.3-0.3,0.5-0.6,0.6-1c0.1-0.4,0.1-0.8,0-1.1
				c-0.1-0.4-0.2-0.7-0.4-1.1c0.2,0.3,0.3,0.7,0.3,1.1c0,0.4,0,0.7-0.1,1.1c-0.1,0.4-0.3,0.7-0.6,0.9c-0.3,0.3-0.6,0.5-0.8,0.7
				c-0.6,0.5-1.1,1-1.7,1.5c-0.1,0.1-0.3,0.3-0.4,0.4l-0.1,0.1l0,0c0-0.2-0.1,0.3-0.1,0.2c0,0,0,0.1,0.1,0.1c0.1,0,0.2,0,0.1,0l0,0
				l0,0l0,0l0.1,0l0.3-0.1l1.1-0.4l0.5-0.2l0.3-0.1l0.3-0.1c0.3-0.1,0.7-0.3,1-0.4c0.4-0.2,0.7-0.4,1-0.7c0.1-0.1,0.3-0.3,0.4-0.5
				c0.1-0.2,0.2-0.4,0.3-0.6c0.1-0.2,0.1-0.4,0.1-0.7c0-0.2,0-0.4-0.1-0.6c-0.1-0.4-0.3-0.7-0.3-1.1c0-0.2-0.1-0.4-0.1-0.5
				c0-0.2,0-0.4,0-0.5c0,0,0,0,0,0c0,0,0,0,0,0c0,0,0,0,0,0c0,0,0,0,0.1,0c0.2-0.1,0.4-0.1,0.6-0.2l0,0c0.1-0.1,0.2-0.1,0.2-0.2
				c0-0.1,0-0.1,0.1-0.2c0-0.1,0-0.1,0-0.1c0-0.1,0-0.2,0-0.2c0-0.1,0.2-0.2,0.4-0.2c0.2-0.1,0.4-0.1,0.6-0.2
				c0.2-0.1,0.4-0.1,0.6-0.2l0.3-0.1l0.1,0c0,0,0.1,0,0.1-0.1c0.1,0,0.2-0.1,0.2-0.1c0.3-0.2,0.3-0.5,0.4-0.8
				c0.1-0.2,0.1-0.5,0.1-0.7l0.1-0.3c0-0.1,0-0.2,0.1-0.3c0.1-0.2,0.1-0.3,0.2-0.5c0.1-0.1,0.3-0.2,0.5-0.4c0.2-0.2,0.3-0.5,0.4-0.7
				c0-0.1,0.1-0.2,0.1-0.4l0-0.2c0,0,0,0,0,0l0,0l0-0.1c0-0.1,0.1-0.2,0.2-0.3c0.1-0.1,0.3-0.2,0.5-0.2c0.2-0.1,0.4-0.1,0.6-0.2
				c0.1,0,0.1,0,0.2-0.1c0.2,0.2,0.4,0.5,0.5,0.8c0.2,0.4,0.2,0.8,0.1,1.2c-0.1,0.3,0,0.6,0,0.9c0.1,1,0.1,2-0.4,3
				c-0.1,0.2-0.2,0.4-0.4,0.6c-0.3,0.2-0.4,0.5-0.3,0.8c0.1,0.6,0.1,1.3,0.3,1.9c0.1,0.5,0,0.6-0.5,0.6c-0.6,0-0.8,0.2-0.8,0.8
				c0,0.2-0.1,0.3-0.3,0.4c-0.1,0-0.3,0.1-0.4,0.1c0,0.4-0.1,0.7-0.5,0.9c-0.1,0-0.2,0.3-0.2,0.4c-0.1,0.7-0.5,0.9-1.1,0.7
				c-0.6-0.2-1.1-0.3-1.7-0.5c-0.4-0.1-1-0.1-1.3,0.1c-1.7,1.1-0.5,3.5-0.6,3.7c-0.1,0.4-0.7-1.3-3.8-2c-2.6-0.6-3.8,0.5-3.8,0.5
				c-2.6,1.3-3.4,6.6-5.3,12.5c-0.8,2.6-2.2,5.3-4.6,6.8c-0.1,0-0.6,0.2-1.4,0.6c0.6,0.5,1.2,0.9,1.9,1.3c1.5-1.2,2.9-2.6,3.6-4.4
				c1.5-3.3,2.8-9.8,2.8-9.9c0-0.1,0.2-0.1,0.2,0.1c-0.1,0.6,0.5,5.9,0.5,5.9s0,0,0.6,5c0.3,2.2,0.3,4.5-0.6,6.5
				c0,0.1,0,0.1-0.1,0.2c0.6,0.2,1.1,0.4,1.7,0.5c0.3-0.9,0.5-1.9,0.5-2.9c0-0.6-1.4-10.3-1.4-10.3c-0.5-3.8-0.9-7.3,0.3-9.1
				c1.5-2.2,4.3-3.6,7.5-1.1c1.9,1.5,1.7,2.5,2.4,4.7c0.4,1.4,1.2,2.9,2.3,3.9c1.2,1.3,2.4,2.6,3.2,4.2c1.4-2.6,3.6-4.6,5.4-6.9
				c0.3-0.5,0.8-1.4,1.1-1.9c0-0.1,2.2-3.7,2.7-4c0.2-0.1,1.5-0.3,2-0.6c0.2-0.1,0.6,0,0.7,0c0.3,0,0.3,0.5,0.3,0.6
				c0,0.2-0.2,0.2-0.2,0.2c0.1,0,0.3,0,0.3,0.2c0.1,0.9-0.2,0.8-0.3,0.8c0,0,0.3,0,0.3,0.2c0.1,0.8,0,0.7-0.1,0.9
				c-0.1,0.1,0,0,0,0.2c0,0.6-0.1,0.5-0.5,0.9c0,0,0,0.2-0.3,0.4c-0.8,0.6-2.7,1.6-2.8,1.8c-0.4,0.4-1.6,2.5-2.3,3.8
				c-0.3,0.8-0.7,1.7-1.1,2.5c-0.8,1.6-3.1,5.5-4.8,6.3c-1,0.7-1.6-0.6-2.6-1.3c-0.8-0.6-1.6-1.3-2.3-1.9c-1.2-1-2.4-2.1-3.4-3.3
				c-1.1-1.2-2.1-2.6-2.8-4.1c-0.3-0.7-0.6-1.5-1-2.2c0,0.1,0,0.2,0.1,0.3c0.1,0.2,0.1,0.4,0.2,0.6c0.4,1,0.7,2.1,1.2,3.1
				c0.5,0.9,1.1,1.8,1.8,2.6c3.2,3.8,6.3,7.5,12.1,11.7c0.6-0.2,1.3-0.3,1.9-0.5c-2.2-1.4-3.9-2.7-4.8-3.7c-0.2-0.3,0.8-0.7,0.9-0.8
				c0,0,6.4,5.4,16.9-3.1c4.2-4.2,6.6-9.5,6.6-15.4C63.6,14,50.2,3,33.5,3S3.4,14,3.4,27.5c0,4.7,1.6,9.1,4.4,12.8
				C11.1,43.8,16.5,40.8,19.4,31.2z M31.2,14L31.2,14C31.2,14,31.2,14,31.2,14z M38.5,38.2c-0.3-0.8-1.4-2-1.7-2.2
				c-2.9-2.5-3.2-3.9-4.1-7.8c-0.2-0.5-0.2-0.5-0.1-0.6c0.4-0.2,2.1,4.5,3.9,6.6C39.4,37.4,38.5,38.2,38.5,38.2z M47.4,20.4
				c0.3-1.2,0.9-2.4,1.4-3.6l4.1,0.9c0,0.8,0,2.7-0.2,3.6c-0.1,0.5-0.3,1.3-0.6,1.8c-0.5,0.9-1.2,1.5-2.2,1.9
				c-0.7,0.3-0.6,0.2-0.8,1c0,0.2-0.1,0.3-0.1,0.5l-0.6,0.2c0.1-0.3,0.1-0.7,0.2-1c0.1-0.3,0-0.5-0.2-0.8c-0.5-0.6-0.9-1.2-1.2-1.9
				C47.1,22.1,47.1,21.3,47.4,20.4z M33.3,6c0.2,0.1,0.3,0.2,0.4,0.3C33.9,6.4,34,6.6,34,6.8c0,0,0,0,0,0.1
				c-0.1,0.2-0.3,0.3-0.6,0.4c0-0.2-0.1-0.4-0.3-0.6C33.2,6.4,33.3,6.2,33.3,6z M30.6,8.3c-0.1,0.3-0.2,0.6-0.4,0.9l0,0
				c-0.3,0.5-0.7,0.9-1.1,1.1c-0.2,0.1-0.4,0.2-0.6,0.2c0-0.2-0.1-0.4-0.1-0.6c0.1-0.9,0.4-1.7,1.1-2.5c0.3,0.1,0.7,0.2,1,0.2
				C30.6,7.9,30.6,8.1,30.6,8.3z M32.7,7.6c-0.3,0.3-0.6,0.5-0.9,0.7c-0.2,0.1-0.4,0.2-0.6,0.2c0.1-0.3,0.1-0.7,0-1.1
				c0.2-0.3,0.6-0.6,1.1-0.5c0.2,0,0.4,0.2,0.4,0.4C32.8,7.4,32.7,7.5,32.7,7.6z M32.4,5.5c0.2,0,0.3,0.2,0.3,0.3
				c0,0.3,0,0.4-0.2,0.5c-0.3-0.2-0.5-0.4-0.8-0.6C32,5.5,32.2,5.4,32.4,5.5z M29.5,5.8c0.3-0.2,0.6-0.3,0.9-0.3
				C30.8,5.6,31,5.7,31.2,6c0.1,0.1,0.2,0.2,0.3,0.3c-0.3,0.1-0.6,0.4-0.9,0.7c-0.1,0-0.3-0.1-0.4-0.1c-0.2-0.1-0.5-0.1-0.7-0.2
				c-0.2-0.1-0.4-0.1-0.6-0.2c0,0,0,0,0,0C29,6.2,29.2,6,29.5,5.8z M27.5,7.3C27.6,7.2,27.7,7,27.9,7c0.1,0,0.1,0,0.2,0
				c0.1,0,0.2,0,0.3,0.1c0.2,0.1,0.3,0.2,0.5,0.2c0,0.1-0.1,0.1-0.1,0.2c-0.1,0.1-0.1,0.2-0.2,0.3c0,0.1-0.1,0.1-0.1,0.2
				c-0.1,0-0.1,0-0.2,0c-0.2,0-0.4,0-0.6-0.1c-0.1,0-0.2-0.1-0.3-0.1C27.4,7.7,27.4,7.6,27.5,7.3z M27.5,8.6c0.1-0.1,0.1-0.1,0.2,0
				c0.1,0,0.3,0.1,0.4,0.1c0,0.1-0.1,0.2-0.1,0.3c-0.2,0.7-0.3,1.2-0.2,1.8l-0.1,0.1c-0.1,0.2-0.3,0.3-0.4,0.4
				c-0.3,0.2-0.6,0.3-1.1,0.3c0,0-0.1,0-0.1,0c0,0,0,0,0,0c0-0.2,0-0.4,0-0.6C26.3,9.9,26.7,9.1,27.5,8.6z M25.6,8.5
				c0.3-0.5,0.7-0.6,1.2-0.6c0,0.1,0.1,0.2,0.2,0.2c-0.4,0.3-0.7,0.7-0.9,1.1c-0.2-0.1-0.4-0.1-0.6-0.1C25.4,8.9,25.5,8.7,25.6,8.5z
				 M24.4,10.9c0.2-0.4,0.4-0.7,0.8-1.1c0.2,0,0.4,0,0.6,0c-0.2,0.5-0.3,1.1-0.3,1.8c0,0.1,0,0.2,0,0.3c-0.1,0.5-0.2,0.9-0.6,1.2
				c-0.3-0.2-0.5-0.6-0.6-1C24.2,11.7,24.2,11.3,24.4,10.9z M23.6,11.9c0,0.7,0.3,1.3,0.9,1.7c0,0.1-0.1,0.1-0.1,0.2
				c-0.1,0.1-0.2,0.2-0.3,0.4c-0.3-0.2-0.5-0.5-0.6-0.9C23.4,12.9,23.4,12.4,23.6,11.9z M22.5,14.3c0.1-0.3,0.2-0.5,0.3-0.7
				c0.1,0.3,0.3,0.6,0.7,1.1c-0.1,0.1-0.4,0.2-0.6,0.2l0,0C22.7,14.8,22.5,14.7,22.5,14.3C22.5,14.3,22.5,14.3,22.5,14.3z
				 M22.5,15.3c0.4,0.4,1,0.3,1.5-0.2c-0.2,0.4-0.4,0.9-0.8,0.9c-0.1,0-0.3-0.1-0.5-0.2c-0.2-0.1-0.3-0.2-0.7-0.7
				C22,15.1,22,15,22,15C22.1,15,22.2,15.1,22.5,15.3z"/>
			<path id="XMLID_81_" class="st0" d="M26.8,22.5c0.2-0.2,0.3-0.4,0.4-0.7c0.1-0.2,0.2-0.4,0.2-0.6c0-0.2,0.1-0.4,0.1-0.5
				c0-0.1,0-0.2,0-0.3c0-0.1,0-0.1,0-0.1s0,0-0.1,0.1c0,0.1-0.1,0.2-0.1,0.3c-0.1,0.3-0.2,0.6-0.5,0.9c-0.1,0.1-0.1,0.2-0.2,0.3
				c-0.1,0.1-0.2,0.2-0.2,0.3c-0.2,0.2-0.4,0.3-0.6,0.5c-0.2,0.2-0.5,0.3-0.7,0.5c-0.2,0.2-0.5,0.3-0.8,0.5l-0.1,0.1l0,0l0,0l0,0
				c0,0,0,0-0.1,0.1c0,0,0,0,0,0l0,0c0,0,0,0,0,0.1c0,0.1,0,0.2,0,0.3c0,0.1,0.1,0.1,0.1,0.1c0,0,0,0,0.1,0c0,0,0,0,0.1,0l0,0l0.1,0
				c0.1,0,0.1,0,0.2,0c0.2,0,0.3,0,0.5-0.1c0.3-0.1,0.6-0.2,0.9-0.3c0.5-0.2,1-0.5,1.4-0.9c0.4-0.3,0.6-0.6,0.7-0.9
				c0.1-0.1,0.1-0.2,0.1-0.3c0-0.1,0-0.1,0-0.1s0,0-0.1,0.1c0,0.1-0.1,0.1-0.2,0.2c-0.2,0.2-0.5,0.4-0.9,0.6
				c-0.3,0.2-0.8,0.4-1.2,0.6c0.1-0.1,0.2-0.2,0.3-0.3C26.4,22.9,26.6,22.7,26.8,22.5z"/>
			<path id="XMLID_1_" class="st0" d="M32,15c-0.1-0.1-0.1,0-0.1,0l0,0c-0.1,0-0.1,0-0.1,0c-0.3,0-0.5,0.1-0.7,0
				c-0.3,0-0.6-0.1-0.9,0c-0.3,0-0.6,0.1-0.9,0.3c-0.3,0.1-0.5,0.3-0.7,0.6c-0.2,0.2-0.3,0.5-0.4,0.7c-0.1,0.2-0.2,0.5-0.2,0.7
				c-0.1,0.4-0.1,0.8-0.1,1.1c0,0.3,0,0.4,0,0.4s0-0.1,0.1-0.4c0.1-0.2,0.2-0.6,0.4-0.9c0.1-0.2,0.2-0.4,0.3-0.6
				c0.1-0.2,0.2-0.4,0.4-0.6c0.1-0.2,0.3-0.3,0.6-0.4c0.2-0.1,0.5-0.2,0.7-0.2c0.2,0,0.5,0,0.8,0l0,0c-0.1,0-0.2,0.1-0.3,0.1
				c-0.2,0.1-0.4,0.3-0.5,0.4c-0.1,0.1-0.2,0.3-0.2,0.4c0,0.1-0.1,0.2-0.1,0.3c0,0.1,0,0.1,0,0.1s0,0,0.1-0.1c0-0.1,0.1-0.1,0.2-0.2
				c0.2-0.2,0.4-0.4,0.8-0.6c0.1,0,0.2-0.1,0.3-0.1c0.1,0,0.1,0,0.2,0c0,0,0.1,0,0.1,0l0.1,0c0.1-0.1,0.2-0.1,0.4-0.2
				c0.1-0.1,0.1-0.1,0.2-0.2l0,0l0,0l0,0l0,0c0,0.2,0.1-0.3,0-0.2C32.2,15.2,32.1,15,32,15z"/>
			<path id="XMLID_79_" class="st0" d="M31.6,49.5c-0.1-0.5-0.1-0.9-0.2-1.3c-0.2-0.8-0.5-1.6-0.8-2.3c-0.6-1.4-1.3-2.4-1.8-3.1
				c-0.5-0.7-0.9-1-0.9-1s0.2,0.4,0.5,1.2c0.3,0.8,0.7,1.9,1,3.2c0.2,0.7,0.3,1.4,0.4,2.2c0.1,0.4,0,0.8,0.1,1.2c0,0.4,0,0.8,0,1.2
				c0,0.3-0.1,0.7-0.1,1c0.6,0.1,1.3,0.1,1.9,0.1c0-0.4,0.1-0.7,0-1.1C31.7,50.4,31.7,49.9,31.6,49.5z"/>
		</g>
	</g>
	<g id="XMLID_72_">
		<path id="XMLID_76_" class="st0" d="M107.6,14.6l-4.6,15c-0.2,0.8-0.4,1.5-0.6,2.1c-0.2-0.6-0.4-1.3-0.7-2l-5.2-15.1H91l1.8,5.1
			l-3.5,10.2c-0.2,0.7-0.5,1.3-0.7,2c-0.2-0.7-0.4-1.4-0.6-2l-4.9-15.2h-6l9.1,25.9h4.3l4.1-11.3l0.1-0.4c0.2-0.6,0.4-1.1,0.6-1.8
			c0.2,0.7,0.5,1.5,0.8,2.2l4,11.2h4.4l8.7-25.9H107.6z"/>
		<path id="XMLID_75_" class="st0" d="M122.8,25c-2.2-1.2-4-2.2-4-3.9c0-1.5,1.6-2,3.1-2c1.7,0,3.4,0.5,5.5,1.7l0.7,0.4l0.1-5.1
			l-0.2-0.1c-1-0.5-3.1-1.4-6.3-1.4c-5,0-8.5,3-8.5,7.3c0,1.9,0.6,3.5,1.7,4.7c1.3,1.5,3.1,2.4,4.8,3.3c2.2,1.2,4.1,2.2,4.1,3.9
			c0,1.8-1.9,2.4-3.6,2.4c-1.8,0-3.6-0.6-5.3-1.8l-0.4-0.3l-2.3,4.2l0.4,0.2c2.3,1.6,4.9,2.3,7.8,2.3c5.4,0,9.1-3.1,9.1-7.6
			C129.4,28.5,125.7,26.6,122.8,25z"/>
		<polygon id="XMLID_74_" class="st0" points="145.4,19.4 146.9,14.6 132.1,14.6 132.1,40.4 146.8,40.4 146.8,35.6 137.6,35.6 
			137.6,29.6 145.5,29.6 145.5,24.9 137.6,24.9 137.6,19.4 		"/>
		<polygon id="XMLID_73_" class="st0" points="149.4,14.6 149.4,19.4 156.5,19.4 156.5,40.4 162,40.4 162,19.4 168.6,19.4 170,14.6 
					"/>
	</g>
</g>
</svg>
