<?xml version="1.0" encoding="UTF-8"?>
<svg id="Layer_1" xmlns="http://www.w3.org/2000/svg" viewBox="0 0 190.91 72.51">
    <defs>
        <style>.cls-1{fill:#000;}</style>
    </defs>
    <path class="cls-1"
        d="m25.43,53.54l-.79.24.5.66-.82.08.35.75-.82-.1.19.8-.78-.27.02.83-.7-.43-.16.81-.6-.56-.32.76-.47-.68-.47.68-.32-.76-.6.56-.16-.81-.7.43.02-.83-.78.27.18-.8-.82.1.35-.75-.82-.08.5-.66-.79-.24.62-.54-.72-.4.71-.4-.62-.54.79-.24-.5-.66.82-.07-.35-.75.82.1-.18-.8.78.26-.02-.83.7.43.16-.81.6.56.32-.76.47.68.47-.68.32.76.6-.56.16.81.7-.43-.02.83.78-.26-.19.8.82-.1-.35.75.82.07-.5.66.79.24-.62.54.71.4-.72.4.62.54Zm-.86,3.21c-.58.49-1.26.86-2.01,1.08,2.18,3.15,3.21,8.24,3.53,9.46l1.62-3.37s2.16.63,3.6,2.08l.17.16c-1.04-5.56-6.46-9.01-6.91-9.42Zm-14.14,9.42l.17-.16c1.44-1.45,3.6-2.08,3.6-2.08l1.62,3.37c.32-1.23,1.34-6.31,3.53-9.46-.75-.22-1.44-.59-2.01-1.08-.45.41-5.87,3.86-6.91,9.42Zm4.41-20.55c-.31-.51-.6-1.01-.87-1.49-4.69-8.34-3.69-12.81,1.24-20.76,7.93-12.77,4.72-18.22,4.72-18.22l-3.93.07c3.79,11.87-11.51,20.74-7.6,32.24.77,2.28,3.73,5.47,5.35,7.1.66.66,1.09,1.06,1.09,1.06m-7.5-18.27c4.99-12.31,7.15-11.91,6.63-22.13h-1.96c-1.02,12.39-10.41,23.92-4.31,31.52-1.65-2.82-1.29-7.1-.36-9.38m18.61,19.81c-.36,1.05-.58,1.68-.66,1.93.27.33.5.7.69,1.09.21-.41.9-1.8.99-1.95,4.96-8,11.42-9.49,11.71-17.7-2.12,6.45-11.52,11.46-12.73,16.64m-3.14.22c.41.14.8.32,1.15.55.19-.46.67-1.62.72-1.74,3.2-7,13.4-13.55,13.4-20.61-.29-2.76-2.07-7.6-2.07-7.6-.45,11.8-11.05,18.71-12.79,27.47-.03.13-.29,1.36-.41,1.92m-3.68.07c.6-.23,1.25-.36,1.93-.36h.14c.06-.33.07-1.02.18-1.48,3.47-15.67,17.85-22.35,10.79-40.55,1.57,16.29-14.83,27.55-13.23,40.83.04.55.08,1.18.19,1.55m-1.96,1.27c.17-.17.35-.33.54-.47-.33-.73-.48-2.1-.5-2.31-2.45-10.97,5.02-19.15,6.47-21.9,6.33-11.97,4.98-18.83,4.98-18.83h-4.62c.45,8.85-2.3,14.69-5.73,20.12-4.24,6.69-6.9,11.12-2.26,21.61.08.15.94,1.48,1.13,1.79" />
    <path class="cls-1"
        d="m46.15,6.37l-.03-.51c.3-.38,1.13-.57,2.5-.57l2.94.03,1.71.03.76-.03c2.76,0,4.42.05,4.99.13.02.25.03.44.03.57,0,.19-.02.46-.06.82l-3.02.13c-.15.02-.35.07-.6.15-.08.21-.13.37-.13.48,0,.12.06.33.19.6.17.36.33.74.48,1.14l2,5.57,4.74,11.91c.55,1.45.92,2.39,1.11,2.82.59,1.33,1.34,3.19,2.25,5.57.32.82,1.07,2.61,2.28,5.36.06.17.19.44.38.82.95-1.54,2.34-4.24,4.18-8.08,1.44-2.95,2.33-4.99,2.69-6.11l-.25-.63-5.44-12.37c-.71-1.54-1.27-2.77-1.67-3.68-.82-1.91-1.43-2.99-1.82-3.27-.38-.28-1.51-.46-3.37-.57l-.67-.15c-.17-.19-.26-.4-.26-.65.05-.19.14-.33.28-.43.68-.02,1.15-.03,1.42-.03l2,.06,1.02-.03h1.74l1.55-.03h1.65l2.98-.15c.19,0,.48.01.86.03l.5-.03c.3,0,.51.07.66.21s.22.29.22.46c0,.15-.05.32-.13.51-.33.13-.94.23-1.8.32-1.25.15-1.97.28-2.17.41s-.3.3-.3.51c0,.4.82,2.52,2.45,6.37l3.24,7.32c.98-1.94,2.34-5,4.04-9.18.72-1.73,1.08-3.01,1.08-3.83,0-.44-.18-.84-.54-1.2-.28-.25-.89-.42-1.83-.5l-.66-.1-.57-.25-.03-.25c0-.13.05-.31.15-.54.21-.17.4-.26.57-.28.32-.04,1.78.01,4.4.16h2.16l1.33.03,2.22-.03c.17.02.42.07.76.16.17.17.25.33.25.48,0,.23-.09.42-.27.57-.18.15-.59.28-1.22.38-1.6.28-2.81.7-3.61,1.27-.53.4-1,.97-1.43,1.71l-2.3,5.13c-.55,1.56-1,2.74-1.36,3.51-.15.49-.42,1.13-.82,1.93l-1.29,3.01c.23.55.62,1.44,1.17,2.66l3.26,7.57c.15.33.59,1.27,1.31,2.82.73,1.54,1.34,2.97,1.82,4.27l.48-1.52.06-.16,1.93-5.03c.68-1.54,1.35-3.17,2.02-4.88l2.43-6.15,3.67-10.45c.38-1.2.69-2.36.92-3.48l.1-.51c.06-.23.1-.4.1-.51,0-.3-.15-.57-.44-.81-.3-.24-1.34-.57-3.13-1-.17-.06-.33-.16-.5-.28-.06-.25-.1-.46-.1-.6l.03-.22c.89-.04,1.45-.06,1.68-.06l2.44.06,2.75-.03h2.38l.95.06.03.32c0,.15-.02.37-.06.66-1.53.59-2.47,1.01-2.84,1.27-.37.25-.66.53-.86.82s-.58,1.09-1.13,2.41c-.06.13-.73,2.03-1.99,5.7-.28.55-.56,1.27-.86,2.18-.08.25-.26.71-.53,1.36l-.5,1.27-.35.92c-1.39,3.84-2.92,7.87-4.58,12.07l-3.42,9.5-1.36,3.61c-.33.04-.57.06-.73.06-.14,0-.35,0-.61-.03-.28-.78-.88-2.26-1.82-4.43-2.43-5.53-4.6-10.12-6.53-13.77l-.38.63c-1.07,2.05-2.37,4.76-3.88,8.14l-2.47,5c-1.01,2.13-1.83,3.61-2.46,4.43l-1.45.03-5.12-12.54-4.24-9.94-3.73-9.44c-.25-.61-.48-1.19-.66-1.74-.15-.4-.28-.81-.41-1.24-.21-.66-.8-2.14-1.77-4.47-.38-.61-.99-1-1.83-1.17s-1.46-.33-1.87-.5v-.03Z" />
    <path class="cls-1"
        d="m129.81,7.73c.17,1.38.25,2.17.25,2.38l-.12,2.79c-.04,1.19-.1,1.95-.15,2.28-.19.08-.34.13-.47.13l-.28-.06c-.67-2.92-1.8-5.05-3.4-6.39-1.6-1.34-3.55-2.01-5.84-2.01s-4.33.67-5.86,2.01c-1.53,1.34-2.28,2.89-2.28,4.67,0,1.36.53,2.6,1.6,3.73,1.06,1.13,3.79,2.81,8.17,5.06,3.34,1.72,5.73,3.14,7.17,4.24,1.44,1.09,2.52,2.37,3.26,3.81.73,1.44,1.09,3.05,1.09,4.83,0,2.24-.58,4.34-1.74,6.3s-2.72,3.44-4.68,4.43c-1.96,1-4.56,1.49-7.8,1.49-2.82,0-5.52-.45-8.11-1.35-1.53-.54-2.45-.98-2.79-1.31-.33-.33-.5-.69-.5-1.07,0-.23.02-.52.06-.88.29-2.47.45-4.49.47-6.08.04-.98.12-1.56.22-1.72.08-.14.24-.22.47-.22.19,0,.33.07.45.21s.19.39.23.77c.23,2.57,1.42,4.87,3.57,6.89,2.13,2.03,4.54,3.04,7.23,3.04,1.65,0,3.17-.34,4.56-1.03,1.38-.69,2.47-1.69,3.26-2.99.79-1.31,1.17-2.57,1.17-3.8,0-1.69-.59-3.24-1.79-4.63-1.19-1.4-3.58-3.03-7.17-4.9-3.59-1.87-5.93-3.23-7.02-4.09-1.75-1.4-3.07-2.88-3.95-4.45-.65-1.21-.97-2.62-.97-4.23,0-2.9,1.15-5.36,3.44-7.38,2.29-2.01,5.37-3.03,9.24-3.03,2.13,0,3.96.24,5.51.72,1.13.37,2.28.99,3.48,1.85h.01Z" />
    <path class="cls-1"
        d="m178.57,8.26l.35,4.8c.13,1.45.19,2.45.19,2.97l-.88.16c-1.42-3.21-3.17-5.61-5.27-7.2-2.1-1.6-4.66-2.4-7.69-2.4-3.71,0-6.59.45-8.66,1.36-2.99,1.29-5.55,3.52-7.68,6.7-2.13,3.18-3.19,7.02-3.19,11.5,0,2.59.39,4.92,1.17,6.98.78,2.07,1.88,3.98,3.3,5.77s3.1,3.32,5.04,4.63c1.26.86,2.77,1.52,4.52,1.96.99.23,2.47.35,4.42.35,1.26,0,2.66-.18,4.2-.53,1.54-.36,2.7-.84,3.48-1.44s1.31-1.28,1.6-2.04.42-2.23.42-4.42c0-3.64-.24-5.77-.73-6.37s-2.01-1-4.58-1.18l-1.27-.1-.86.03c-.13-.02-.3-.05-.51-.1l-.47-.79c0-.1.07-.24.22-.41,1.09-.17,3.48-.25,7.14-.25.82,0,2.16.02,4.01.06l3.26.13,2.94-.03c.57,0,1.26.02,2.05.06.15.02.24.06.28.11s.06.14.06.27c0,.23-.05.53-.16.88-.88.19-1.57.28-2.05.28l-2.05-.03c-.7,0-1.26.24-1.67.73-.21.23-.32,1.02-.32,2.37l.03,4.14c0,2.84-.12,4.65-.35,5.43-.13.46-.39.88-.79,1.25-.4.37-1.24.8-2.53,1.31-1.83.73-3.49,1.24-4.99,1.49-2.78.48-5.46.73-8.06.73-4.17,0-7.59-.53-10.25-1.6-2.66-1.06-4.96-2.54-6.89-4.44-1.93-1.9-3.3-3.81-4.13-5.75-1.24-2.84-1.87-5.74-1.87-8.69,0-3.69.97-7.29,2.92-10.82,1.95-3.53,5.09-6.4,9.43-8.61,3.05-1.56,7.2-2.34,12.45-2.34,3.62,0,6.58.32,8.9.95,2.3.63,4.13,1.35,5.48,2.15h.03Z" />
    <path class="cls-1"
        d="m68.09,65.45c-.03.12-.04.19-.04.24s0,.12.04.25c-.73-.02-1.14-.03-1.95-.03s-1.21.01-1.95.03c.03-.13.04-.18.04-.25,0-.05-.01-.13-.04-.24h.4c.24-.02.4-.14.45-.33.01-.12.03-.29.03-.5v-.25c.03-.8.03-.83.03-1.39v-1.48c0-.51,0-.54-.02-1.28-.02-.65-.03-.72-.12-.83-.07-.1-.2-.13-.37-.14h-.4c.03-.14.04-.19.04-.25,0-.03-.01-.1-.04-.21.73.02,1.15.03,1.95.03s1.21-.01,1.95-.03c-.03.12-.04.17-.04.21,0,.05,0,.12.04.25h-.4c-.24.02-.4.12-.44.3-.01.1-.03.25-.03.45v.23c-.04.75-.04.79-.04,1.28v1.48c0,.48,0,.63.02,1.14v.26c.03.72.04.8.12.91.07.1.21.15.37.16h.4Z" />
    <path class="cls-1"
        d="m75.84,62.03c0-.71-.03-1.49-.08-2.13-.05-.65,0-.61-.67-.66.02-.13.03-.19.03-.23s-.01-.11-.03-.22c.32.02.51.03,1.07.03s.77-.01,1.08-.03c-.03.12-.04.17-.04.22,0,.04.01.11.04.23-.11,0-.19,0-.23.02-.23.01-.29.05-.31.27-.03.33-.05.5-.07.88-.03.44-.04.81-.05,1.02l-.05,2.06c-.02.95-.03,1.38-.03,1.92,0,.27,0,.32.01.73-.25-.04-.37-.06-.48-.06s-.22.02-.48.06c-.79-1-.83-1.04-1.47-1.79-.33-.38-.57-.68-.73-.87l-1.2-1.43c-.39-.48-.5-.62-.85-1.09h-.03c.05.5.06.64.06,1.16v1.05c.01.35.02.69.04,1.34.03.75.11.87.49.9l.27.02c-.01.12-.02.19-.02.24s.01.11.02.25c-.32-.02-.52-.03-1.11-.03s-.78.01-1.12.03c.03-.13.04-.18.04-.25,0-.05,0-.13-.04-.24l.27-.02c.2-.02.31-.12.32-.32.01-.14.03-.31.04-.53.04-.85.02-.42.04-1.3l.05-1.85c.01-.16.01-.42.01-.78v-.35c0-.95-.02-1-.45-1.03l-.29-.03c.03-.13.04-.18.04-.23s0-.11-.04-.22c.32.02.5.03,1.05.03s.74-.01,1.06-.03c.22.33.27.38.62.82l.42.54.95,1.14c.63.74.87,1.03,1.06,1.22l.39.43c.19.2.24.27.4.5h.03c-.04-.33-.05-.41-.05-.75v-.65Z" />
    <path class="cls-1"
        d="m81.64,63.25c0,.22.01.8.02,1.11.02.55.03.71.08.79.06.08.28.13.7.13,1.05,0,1.42-.05,1.62-.23.16-.14.37-.49.64-1,.16.03.24.04.31.04.07,0,.15-.01.31-.04-.22.82-.3,1.08-.51,1.9h-.2l-1.45-.05c-.98-.02-1.61-.03-2.08-.03-.61,0-.99,0-1.6.05-.16.01.02,0-.55.03.03-.17.03-.2.03-.25s-.01-.11-.03-.24h.25c.3-.03.41-.11.45-.33.01-.21.02-.36.04-1.01.01-.37.02-.73.02-1.14v-1.48c0-.51,0-.54-.03-1.28-.02-.92-.04-.95-.48-.97h-.25c.03-.17.03-.21.03-.25,0-.02-.01-.08-.03-.21.3.03.37.04.72.05.14,0,.28.01.58.02.37,0,.6,0,.68,0,.44,0,.94,0,2.56-.05.54-.01.57-.01,1.08-.03.08.76.12.98.25,1.72-.16-.02-.23-.03-.3-.03-.07,0-.15.01-.29.03-.13-.47-.26-.71-.44-.9-.16-.16-.51-.23-1.19-.23s-.85.08-.9.47c-.02.19-.03.37-.04.8-.01.28-.01.54-.01.75v.58c.37.02.61.03.85.03.74,0,.83-.06.84-.67v-.29c.14.02.2.03.25.03s.11-.01.25-.03c-.03.75-.03,1-.03,1.32s.01.62.03,1.15c-.13-.02-.19-.03-.23-.03-.06,0-.13.01-.25.03v-.35c0-.5-.18-.63-.92-.63-.11,0-.29.01-.52.02h-.09s-.08.01-.08.01h-.1v.68Z" />
    <path class="cls-1"
        d="m90.97,62.96c-.66-.46-.92-.69-1.16-1.04-.23-.36-.36-.81-.36-1.25,0-1.23.95-2.02,2.46-2.02.63,0,1.2.11,1.95.38-.05.69-.04.51-.07,1.33v.29c-.16-.03-.23-.04-.31-.04-.05,0-.13,0-.29.04l-.11-.52c-.14-.56-.17-.64-.36-.76-.21-.11-.55-.19-.84-.19-.5,0-.84.28-.84.69,0,.2.1.38.28.56.16.14.12.12.64.47l.9.63c1.13.79,1.51,1.34,1.51,2.2,0,1.46-1.08,2.35-2.83,2.35-.74,0-1.3-.11-1.96-.38l-.02-.95c-.03-.95-.02-.65-.03-.93.19.02.28.03.36.03s.18-.01.37-.03l.14.64c.03.15.08.34.14.47.13.33.56.53,1.12.53.67,0,1.12-.32,1.12-.84,0-.17-.07-.36-.21-.5q-.14-.17-.82-.64l-.77-.52Z" />
    <path class="cls-1"
        d="m101.45,59.86c0,.19.01.48.02.86-.15-.02-.23-.03-.3-.03s-.14.01-.3.03c-.19-1.02-.69-1.54-1.46-1.54-1.07,0-1.68,1.1-1.68,3.05,0,1.06.18,1.94.5,2.54.22.42.66.68,1.15.68.86,0,1.46-.57,1.69-1.64.19.06.27.07.36.07.04,0,.11,0,.22-.01-.1.8-.13,1.04-.19,1.83-.68.25-1.5.37-2.21.37-1.02,0-2.03-.37-2.71-1.01-.67-.64-1.03-1.54-1.03-2.63,0-2.28,1.52-3.8,3.76-3.8.63,0,1.23.1,2.19.35-.01.38-.02.67-.02.86Z" />
    <path class="cls-1"
        d="m105.86,62.02l.66.02h1.07c.34,0,.28,0,.92-.01.02,0,.11-.01.21-.01v-.72c0-.46,0-.34-.03-1.31-.03-.65-.07-.71-.49-.73h-.24c.03-.14.03-.2.03-.25,0-.03-.01-.1-.03-.21.14,0,.24.01.32.01.28.01.77.02,1.42.02s1.15-.01,1.42-.02c.07,0,.18-.01.32-.01-.02.12-.03.18-.03.22,0,.05.01.11.03.23h-.25c-.3.03-.41.08-.45.3-.01.13-.03.29-.03.45v.23c-.04.74-.04.77-.04,1.29v1.47c0,.56.01.93.04,1.65.02.71.07.8.48.82h.25c-.02.13-.03.2-.03.25,0,.06.01.12.03.25-.14,0-.25-.01-.32-.01-.25-.01-.77-.02-1.42-.02s-1.16.01-1.42.02c-.07,0-.18.01-.32.01.02-.14.03-.19.03-.25s-.01-.12-.03-.24h.25c.3-.03.42-.14.45-.4.02-.28.04-.54.05-1.13.01-.29.01-.55.01-.78v-.52l-.68-.02h-1.05c-.33,0-.27,0-.9.01-.03,0-.11.01-.22.01v.52c0,.35.01.81.03,1.29.03.89.07.99.47,1.01h.25c-.01.13-.02.2-.02.25,0,.06,0,.12.02.25-.13,0-.24-.01-.32-.01-.26-.01-.76-.02-1.42-.02s-1.16.01-1.41.02c-.08,0-.19.01-.32.01.03-.17.03-.2.03-.25s-.01-.11-.03-.24h.24c.3-.03.42-.11.44-.33.02-.21.03-.35.05-1,.01-.38.02-.73.02-1.15v-1.47c0-.52,0-.54-.03-1.29-.03-.92-.04-.95-.48-.97h-.24c.03-.17.03-.21.03-.24s-.01-.1-.03-.22c.13,0,.24.01.32.01.28.01.75.02,1.41.02s1.14-.01,1.42-.02c.07,0,.19-.01.32-.01-.02.12-.02.18-.02.21,0,.05,0,.12.02.25h-.24c-.31.03-.4.08-.44.3-.02.12-.03.28-.04.45-.03.97-.03.85-.03,1.31v.72Z" />
    <path class="cls-1"
        d="m120.48,62.2c0,2.22-1.66,3.88-3.86,3.88s-3.85-1.59-3.85-3.66,1.7-3.79,3.88-3.79,3.83,1.56,3.83,3.56Zm-5.17-2.29c-.22.42-.31.97-.31,1.78,0,1.22.19,2.32.53,3.02.22.48.69.76,1.22.76.95,0,1.49-.85,1.49-2.33,0-.63-.1-1.65-.2-2.18-.25-1.23-.73-1.79-1.53-1.79-.51,0-.98.29-1.2.75Z" />
    <path class="cls-1"
        d="m124.53,63.72c0,.78,0,.81.02,1.07.02.35.03.39.13.44.1.05.28.07.51.07.9,0,1.35-.17,1.66-.64.12-.16.22-.36.48-.88.28.12.31.13.62.14-.28.87-.36,1.14-.6,2.02-.23,0-.4-.01-.52-.01-.41-.01-1.22-.02-2.24-.02-1.07,0-1.84.01-2.27.02-.12,0-.29.01-.51.01.03-.17.03-.2.03-.25s-.01-.11-.03-.24h.25c.3-.03.41-.11.45-.33.01-.21.02-.36.04-1.01,0-.37.02-.73.02-1.14v-1.48c0-.51,0-.54-.03-1.28-.03-.92-.04-.95-.48-.97h-.25c.03-.17.03-.21.03-.25,0-.02-.01-.08-.03-.21.51.02.79.03,1.61.03.66,0,1.22-.01,1.55-.02.07,0,.21-.01.38-.01-.02.12-.03.18-.03.21,0,.05.01.12.03.25h-.32c-.31.03-.39.08-.44.3-.02.13-.03.28-.03.45v.23c-.04.73-.04.77-.04,1.28v2.22Z" />
    <path class="cls-1"
        d="m134.92,63c.41,1.03.38.95.6,1.56.33.89.31.87.79.89-.02.13-.03.19-.03.24,0,.06.01.11.03.25-.14,0-.24-.01-.31-.01-.26-.01-.72-.02-1.35-.02s-1.1.01-1.35.02c-.06,0-.17.01-.31.01.03-.13.04-.18.04-.25,0-.05-.01-.13-.04-.24.55-.05.66-.08.66-.25,0-.08-.05-.29-.18-.7-.08-.25-.18-.55-.39-1.17-.29-.03-.44-.04-.85-.04-.51,0-.68.01-.99.04-.19.61-.32,1.03-.43,1.5-.04.19-.05.29-.05.35,0,.15.08.2.4.23.09,0,.22.01.39.03-.02.12-.03.18-.03.24s.01.12.03.25c-.4-.02-.64-.03-1.36-.03s-.96.01-1.35.03c.02-.14.03-.19.03-.25s-.01-.13-.03-.24c.48-.06.58-.1.68-.27.03-.04.1-.18.22-.45.05-.14-.08.18.42-1,.1-.2.21-.5.35-.89l.36-.98c.08-.18.16-.44.26-.75l.23-.73c.15-.46.2-.65.2-.79,0-.01,0-.06-.01-.14v-.05c.58-.14,1.01-.43,1.25-.84.13.02.2.03.27.03s.14-.01.29-.03c.07.3.11.4.2.73.14.43.3.88.39,1.15l.83,2.17.15.37Zm-2.01-.29c-.4-1.22-.36-1.11-.79-2.24-.42,1.18-.38,1.04-.75,2.24h1.54Z" />
    <path class="cls-1"
        d="m141.59,62.25c.4.13.6.22.81.39.3.23.64.63.83.98l.35.63.08.15c.13.23.06.11.24.42.28.49.43.6.84.63-.03.12-.03.19-.03.24,0,.06,0,.12.03.25-.36-.02-.57-.03-1.2-.03s-.84.01-1.2.03l-.76-1.69c-.12-.27-.44-.9-.64-1.27-.17-.31-.33-.43-.6-.43h-.06s-.05,0-.1-.03c.03.1.03.13.03.23v.21c0,.55.01.93.04,1.65.02.71.07.8.47.82h.25c-.02.13-.03.2-.03.25,0,.06.01.12.03.25-.14,0-.25-.01-.32-.01-.28-.01-.78-.02-1.43-.02s-1.15.01-1.41.02c-.07,0-.18.01-.32.01.03-.17.03-.2.03-.25s-.01-.11-.03-.24h.25c.3-.03.41-.11.45-.33.01-.21.02-.36.04-1.01.01-.37.02-.73.02-1.14v-1.48c0-.51,0-.54-.03-1.28-.02-.92-.04-.95-.48-.97h-.25c.03-.17.03-.21.03-.25,0-.02-.01-.08-.03-.21.49.02.72.03,1.38.03.51,0,1.13-.01,1.61-.02.46-.01.82-.02.95-.02.68,0,1.07.06,1.45.21.57.27.94.83.94,1.51s-.38,1.21-1.07,1.47c-.31.11-.61.17-1.16.23v.05Zm-1.36-.37c0,.08,0,.1-.03.17.04-.03.06-.03.11-.03h.07c.51,0,.79-.05.98-.2.29-.19.46-.63.46-1.14,0-.87-.4-1.38-1.07-1.38-.35,0-.45.08-.46.39,0,.04-.01.2-.01.42-.01.14-.01.36-.02.64v.48s-.02.66-.02.66Z" />
    <path class="cls-1"
        d="m154.69,64.97c0,.33-.01.37-.16.45-.71.37-1.99.66-2.89.66-2.31,0-3.97-1.53-3.97-3.65s1.68-3.79,4.08-3.79c.84,0,1.48.15,2.81.66-.02.49-.02.68-.02.84,0,.22.01.43.03.93-.31,0-.35.01-.65.07-.25-1.29-.93-1.97-1.98-1.97-1.3,0-2.04,1.07-2.04,2.95,0,1.06.19,1.96.56,2.56.29.48.84.78,1.44.78.3,0,.58-.05.7-.15.08-.08.13-.25.13-.53v-.73c0-.08-.01-.28-.03-.39-.03-.3-.11-.33-.92-.38.03-.13.04-.19.04-.24,0-.04,0-.12-.04-.23.69.03,1.05.04,1.84.04.72,0,1.04-.01,1.63-.04-.03.12-.04.18-.04.22,0,.06.01.12.04.25-.08.01-.15.02-.18.02-.38.05-.36.01-.37.66v1.02Z" />
    <path class="cls-1"
        d="m161.83,61.39c0-.64-.03-1.25-.08-1.72-.04-.36-.11-.39-.72-.42.02-.13.03-.18.03-.23,0-.04-.01-.11-.03-.22.34.02.57.03,1.21.03s.86-.01,1.21-.03c-.03.12-.03.18-.03.22s0,.11.03.23c-.48.03-.58.05-.65.16-.06.08-.06.13-.1.68,0,.38-.02.75-.02.92v1.62c0,1.22-.13,1.98-.4,2.44-.39.66-1.27,1.03-2.39,1.03-1.24,0-2.23-.42-2.64-1.15-.2-.36-.27-.86-.27-1.9v-2.64s-.01-.2-.01-.2q-.01-.66-.06-.77c-.06-.11-.18-.14-.44-.16-.05,0-.12-.01-.22-.02.03-.13.03-.19.03-.23s0-.11-.03-.22c.15,0,.25.01.33.01.27.01.76.02,1.43.02s1.16-.01,1.42-.02c.06,0,.18-.01.33-.01-.02.12-.03.19-.03.22,0,.05,0,.11.03.23-.12,0-.2,0-.27,0-.34.01-.45.06-.5.31-.03.15-.06.88-.06,1.44v1.34c0,.15.01.75.02,1.18.02.69.1,1.01.27,1.28.23.31.63.49,1.11.49.8,0,1.28-.35,1.42-1.06.04-.17.06-.44.08-.89,0-.34,0-.58,0-.65v-1.29Z" />
    <path class="cls-1"
        d="m168.77,65.45c-.03.12-.04.19-.04.24s0,.12.04.25c-.73-.02-1.14-.03-1.95-.03s-1.21.01-1.95.03c.03-.13.04-.18.04-.25,0-.05-.01-.13-.04-.24h.4c.24-.02.4-.14.45-.33.01-.12.03-.29.03-.5v-.25c.03-.8.03-.83.03-1.39v-1.48c0-.51,0-.54-.02-1.28-.02-.65-.03-.72-.12-.83-.07-.1-.2-.13-.37-.14h-.4c.03-.14.04-.19.04-.25,0-.03-.01-.1-.04-.21.73.02,1.15.03,1.95.03s1.21-.01,1.95-.03c-.03.12-.04.17-.04.21,0,.05,0,.12.04.25h-.4c-.24.02-.4.12-.44.3-.01.1-.03.25-.03.45v.23c-.04.75-.04.79-.04,1.28v1.48c0,.48,0,.63.02,1.14v.26c.03.72.04.8.12.91.07.1.21.15.37.16h.4Z" />
    <path class="cls-1"
        d="m173.28,63.72c0,.78,0,.81.02,1.07.02.35.03.39.13.44.1.05.28.07.51.07.9,0,1.35-.17,1.66-.64.12-.16.22-.36.48-.88.28.12.31.13.62.14-.28.87-.36,1.14-.6,2.02-.23,0-.4-.01-.52-.01-.41-.01-1.22-.02-2.24-.02-1.07,0-1.84.01-2.27.02-.12,0-.29.01-.51.01.03-.17.03-.2.03-.25s-.01-.11-.03-.24h.25c.3-.03.41-.11.45-.33.01-.21.02-.36.04-1.01,0-.37.02-.73.02-1.14v-1.48c0-.51,0-.54-.03-1.28-.03-.92-.04-.95-.48-.97h-.25c.03-.17.03-.21.03-.25,0-.02-.01-.08-.03-.21.51.02.79.03,1.61.03.66,0,1.22-.01,1.55-.02.07,0,.21-.01.38-.01-.02.12-.03.18-.03.21,0,.05.01.12.03.25h-.32c-.31.03-.39.08-.44.3-.02.13-.03.28-.03.45v.23c-.04.73-.04.77-.04,1.28v2.22Z" />
    <path class="cls-1"
        d="m177.99,59.24c.03-.16.03-.2.03-.25,0-.02-.01-.08-.03-.21.47.02.75.03,1.23.03.52,0,.95-.01,1.51-.04.35-.02.73-.03.87-.03,1.1,0,1.89.28,2.57.89.75.7,1.17,1.7,1.17,2.87,0,1.1-.37,2.02-1.02,2.59-.66.57-1.6.88-2.66.88-.1,0-.53-.02-1.05-.04-.36-.02-.85-.03-1.41-.03s-.8.01-1.21.03c.03-.17.03-.2.03-.25s-.01-.11-.03-.24h.25c.3-.03.41-.11.45-.33.01-.21.02-.36.04-1.01.01-.37.02-.73.02-1.14v-1.48c0-.51,0-.54-.03-1.28-.02-.92-.04-.95-.48-.97h-.25Zm2.71,4.93v.23s.01.23.01.23c.02.51.02.54.13.62.1.07.29.12.51.12,1.21,0,1.76-.85,1.76-2.66,0-1.19-.19-2.01-.64-2.67-.31-.47-.77-.74-1.27-.74-.33,0-.44.1-.46.38-.04.63-.05,1.15-.05,2.39v2.1Z" />
    <path class="cls-1"
        d="m56.37,66.13c-.13-.03-.43-.04-.64-.04s-.61.01-.74.04l-1.71-4.18c-.14-.33-.27-.64-.39-.9-.25-.55-.2-.47-.42-.98-.11-.27-.02-.07-.27-.58-.08-.19-.11-.2-.49-.23.02-.13.03-.19.03-.23s-.01-.11-.03-.22c.45.02.7.03,1.48.03s1.04-.01,1.48-.03c-.03.12-.04.18-.04.22s.01.11.04.23c-.24.02-.31.05-.31.16,0,.05,0,.04.1.33l.29.75c.15.34.24.58.29.69.14.33.21.57.23.61l.77,1.72c.19.44.23.54.38.98h.03c.12-.3.15-.38.32-.68l.32-.61-1.22-2.9c-.36-.88-.32-.79-.37-.88-.07-.12-.18-.16-.5-.17.03-.13.04-.19.04-.23s-.01-.11-.04-.22c.44.02.68.03,1.46.03s1-.01,1.44-.03c-.03.12-.04.18-.04.22,0,.05.01.11.04.23-.05,0-.11,0-.13,0-.19.01-.26.04-.26.14,0,.07.01.1.13.42l.06.15.05.17.07.16.06.17.15.36c.07.17.1.23.14.44h.03c.02-.16.03-.21.1-.37l.12-.28c.13-.32.22-.58.32-.84.07-.2.07-.24.07-.32,0-.14-.08-.18-.4-.19-.04,0-.1,0-.19,0,.03-.13.04-.19.04-.23s-.01-.11-.04-.22c.33.02.52.03,1.1.03s.77-.01,1.1-.03c-.03.12-.04.18-.04.22s.01.11.04.23c-.46.05-.5.06-.69.39-.43.73-.28.48-.83,1.52l-.38.7.68,1.52c.22.53.28.64.44,1.13h.03c.05-.23.08-.29.17-.52l.17-.43c.16-.37.37-1.02.64-1.88.17-.58.17-.55.34-1.2.27-1.05.19-.8.2-.86.02-.08.03-.14.03-.2,0-.12-.06-.15-.29-.16-.04,0-.1,0-.15,0,.02-.13.02-.18.02-.23,0-.04,0-.11-.02-.22.31.02.49.03,1.03.03s.73-.01,1.04-.03c-.02.12-.03.17-.03.22s.01.11.03.23c-.33.04-.47.12-.55.34l-.07.16-.06.16c-.1.2-.04.08-.15.35-.29.64-.3.66-.48,1.13l-.56,1.42c-.3.8-.22.61-.47,1.18-.23.54-.51,1.65-.8,2.14-.13-.03-.4-.04-.62-.04s-.65.01-.76.04l-.48-1.15c-.22-.54-.25-.65-.42-1.14h-.03c-.09.29-.11.35-.25.65,0,0-.49,1.15-.76,1.64Z" />
</svg>